<?xml version="1.0" standalone="no"?>
<!DOCTYPE svg PUBLIC "-//W3C//DTD SVG 20010904//EN"
 "http://www.w3.org/TR/2001/REC-SVG-20010904/DTD/svg10.dtd">
<svg version="1.0" xmlns="http://www.w3.org/2000/svg"
 width="298.000000pt" height="298.000000pt" viewBox="0 0 298.000000 298.000000"
 preserveAspectRatio="xMidYMid meet">
<metadata>
Created by potrace 1.14, written by Peter Selinger 2001-2017
</metadata>
<g transform="translate(0.000000,298.000000) scale(0.100000,-0.100000)"
fill="#000000" stroke="none">
<path d="M2505 2968 c-89 -8 -82 -6 -700 -178 -242 -67 -447 -124 -455 -125
-69 -16 -1137 -318 -1164 -329 -56 -23 -124 -74 -132 -98 -15 -48 60 -61 191
-33 39 9 84 18 100 21 17 3 49 9 72 15 89 19 344 58 434 65 119 10 335 10 416
1 95 -11 211 -44 267 -76 104 -57 228 -245 256 -386 30 -150 7 -318 -65 -466
-13 -27 -22 -49 -20 -49 3 0 59 71 217 275 51 66 217 280 368 475 151 195 280
362 287 370 183 228 221 295 209 373 -8 45 -44 100 -79 119 -44 24 -121 34
-202 26z"/>
<path d="M1263 1631 c-10 -16 -64 -87 -189 -246 -13 -16 -183 -237 -379 -490
-196 -253 -364 -469 -373 -480 -50 -60 -100 -134 -110 -164 -39 -111 18 -212
133 -237 29 -6 154 -5 190 1 82 16 63 11 385 100 151 43 320 90 375 105 55 15
282 78 505 140 223 62 533 148 689 191 156 43 307 89 335 103 62 31 107 68
110 93 4 23 -29 42 -71 43 -26 0 -208 -32 -318 -56 -22 -5 -103 -20 -150 -29
-16 -2 -50 -7 -75 -11 -25 -3 -56 -7 -70 -10 -130 -22 -475 -25 -585 -5 -171
31 -255 78 -341 191 -71 94 -109 177 -130 280 -10 47 -10 183 0 245 9 52 47
169 73 218 16 33 13 46 -4 18z"/>
</g>
</svg>
