<svg
  clip-rule="evenodd"
  fill-rule="evenodd"
  height="511.933"
  image-rendering="optimizeQuality"
  shape-rendering="geometricPrecision"
  text-rendering="geometricPrecision"
  viewBox="0 0 6201.44 6509.6"
  width="487.699"
  xmlns="http://www.w3.org/2000/svg">
  <path fill="#fff"
    d="m1754.55 4945.76h190.71c4.17 50.16 21.75 124.7 32.79 183.35l72.24 385.46c9.21 47.66 30.65 143.86 34.82 194.04l-238.47 244.66-228.86-235.04 136.76-772.47zm-343.28 813.71c0 51.21 381.06 432.28 432.28 432.28 69.52 0 168.08-123.59 238.39-193.89 281.39-281.4 221.69-146.02 132.02-685.09l-77.99-443.29c0-66.98 108.05-274.07 127.14-356 363.86 0 739.87 265.82 907.22 593.04 47.54 92.95 109.91 265.97 109.91 398.66v813.71h-406.85v-597.57c0-93.96-190.71-117.5-190.71 25.43v572.14h-1665.56v-597.57c0-98.12-190.71-96.32-190.71 0v597.57h-406.85v-788.28c0-265.44 141.6-528.52 314.6-702.53 164.04-164.99 449.8-314.6 702.53-314.6l127.14 343.28c0 71.15-97.31 558.96-116.14 672.15-10.97 65.96-36.43 156.22-36.43 230.56zm241.57-1245.99h394.14c-16.62 71.34-70.88 163.92-76.28 228.85h-241.57l-76.28-228.85zm-661.14-1029.85v-699.28c244.41 0 765.78-215.9 978.42-343.86 156.8-94.36 172.95-135.3 254.86-190.14 73.04 109.08 96.52 178.01 200.34 295.51 53.18 60.19 205.29 205.07 282.8 225.77v584.85c0 251.93-9.35 326.85-97.27 500.3-136.23 268.77-415.86 453.26-792.72 453.26-434.81 0-826.42-391.62-826.42-826.42zm1907.12 114.43c5.63-67.66 12.83-116.21 12.72-203.42-.09-72.05 0-144.1 0-216.15 140.87 32.82 208.13 219.08 98.66 352.94-28.58 34.94-63.1 55.37-111.38 66.62zm-2263.12-216.14c0-98.77 73.77-185.07 152.57-203.43l-.07 317.92c2.98 56.72 11.55 46.4 12.78 101.65-92.13-21.46-165.29-104-165.29-216.14zm1322.27-2174.12c-49.53-4.12-89.67-20.53-140.79-24.5-166.01-12.89-271.57-12.78-439.18 29.37-95.96 24.13-162.17 52.26-244.82 85.75-305.81 123.91-146.31 252.65-90.63 252.65 43.62 0 97.03-36.71 135.45-55.26 299.64-144.71 628.25-167.82 928.48-16.97 116.29 58.44 177.67 142.57 236.46 171.26 64.9 31.69 213.82-32.2 412.08 57.47 411.83 186.26 424.58 687.61 365.56 1095.11-10.63 73.4-31.06 156.26-31.06 223.22-75.52-6.29-84.11-48.77-178-50.86 0-379.31 38.79-259.5-172.66-412.19-332.68-240.22-372.57-592.22-463.04-592.22-152.19 0-89.39 89.88-340.57 256.99-295.06 196.31-645.53 311.65-1003.74 369.39-193.08 31.12-143.25 131.42-143.25 378.04-76.11 1.7-118.88 32.5-165.28 63.57-2.89-34.75-9.59-56.12-16.59-97.85-45.27-270 35.74-504.81-111.74-523.96l-214.96-39.32c14.33-53.68 33.54-48.11 72.49-80.08 58.87-48.32 102.82-108.61 153.1-164.76 29.25-32.68 44.31-57.34 72.2-93.09 46.16-59.16 274.35-310.09 274.35-361.36 0-51.98-60.57-102.17-110.98-96.37-114.53 13.2-419.13 532.48-639.64 655.31-49.85 27.76-101.23 37.01-101.23 114.92 0 116.7 259.22 244.11 381.42 254.28 0 171.26 17.84 320.59 47.54 473.74 61.77 318.65-16.81 192.29 13.61 367.48 35.79 206.13 194.82 353.91 409.28 353.91 68.98 296.1 357.44 466.55 406.85 533.99-285.39 66.49-533.44 187.56-720.97 410.59-163.03 193.89-321.59 473.19-321.59 822.68v839.13c0 46.46 35.08 101.71 76.28 101.71h3114.96c41.2 0 76.28-55.25 76.28-101.71v-851.85c0-179.08-49.32-334.36-99.72-459.7-28.59-71.1-57.51-119.88-96.35-183.37-188.01-307.33-493.03-495.14-846.49-577.49l241.57-216.14c34.91 9.32 84.32 46.66 121.58 69.13l251.46 129.97c648.38 289.72 1449.76 231.61 2048.21-129.96 343.01-207.24 600.75-483.53 805.84-821.57 384.58-633.87 379.22-1508.92 40.61-2159.27-70.12-134.67-154.18-257.87-247.05-375.94-61.46-78.13-264.78-310.46-350.68-310.46-115.17 0-113.11 128.55-36.72 189.29 372 295.78 685.14 946.3 685.14 1412.7 0 419.89-24.04 671.07-207.66 1038.32-113.06 226.12-286.01 479.54-478.9 627.23-29.75 22.78-38.43 35.09-67.33 59.81-43.11 36.9-98.78 76.3-146.11 108.18-101.96 68.67-211.15 122.14-320.57 175.29-427.61 207.72-1018.19 222.89-1479.65 68.38l-270.97-110.46c-54.18-27.09-205.45-111.33-232.79-148.64 11.69-50.19 39.16-89.67 50.86-139.85 133.74 0 100.12-43.9 231.28 35.7 221.18 134.23 468.69 205.08 747.47 218.82 55.65 2.74 75.08 16.37 139.72 12.98 127.61-6.71 298.73-26.86 425.23-58.79 95.5-24.1 427-109.08 427-221.42 0-199.65-246.36-36.85-439.4 18.31-405.54 115.88-864.23 39.33-1213.44-145.45 179.33-338.91 76.28-239.14 76.28-432.28 0-160.53 296.68-940.4-108.78-1480.49-103.44-137.79-343.85-286.77-577.79-286.77 42.61-182.91 396.6-480.09 526.28-567.14 541.68-363.63 1254-326.1 1782.69 25.44 41.19 27.39 81.87 55.04 116.24 87.18l203.35 203.51c102.23 114.66 168.81 233.12 236.53 373.74 205.29 426.28 188.66 1034.67-49.82 1433.83l-196.04 287.1c-35.53 46.01-74.47 81.59-117.47 124.1-57.59 56.93-111.5 75.64-111.5 168.21 0 78.7 103.65 96.71 175.47 35.61 68.05-57.9 139.23-117.99 193.27-188.16 71.62-93 154.92-189.51 211.99-296.58 275.77-517.35 312.49-1063.97 91.5-1608.94-68.23-168.24-179.81-338.8-293.62-469.22l-190.71-190.71c-217.3-189.38-455.8-314.17-754.87-389.41-360.11-90.6-776.05-57.56-1118.63 86.8-295.98 124.72-559.96 323.98-752.04 582.95-38.27 51.6-129.27 177.8-143.32 238.11-39.65-10.59-68.41-37.21-105.67-59.61-40.04-24.07-62.3-43.6-110.46-54.82 21.05-90.39 229.59-362.89 295.35-429.35 321.67-325.09 707.68-557.35 1173.9-631.51 324.62-51.64 625.94-27.72 941.11 61.78 137.77 39.12 245.12 90.53 365.65 155.63 23.74 12.82 101.84 55.19 122.82 55.19 44.32 0 101.71-57.4 101.71-101.71 0-111.6-362.87-241.98-462.49-274.94-1062.17-351.45-2202.02 93.15-2728.77 1088.64z"/>
  <path fill="#fff"
    d="m3852.39 1080.66v1156.99c0 92.41 226.8 284.01 295.6 352.82 122.23 122.23 260.22 308.32 378.25 308.32 59.48 0 76.28-65.17 76.28-114.42 0-40.81-426.32-447.12-486.42-505.29-40.45-39.15-57.66-37.32-61.26-104.02l.97-852.82c0-91.87 22.43-249.72-21.9-308.74-61.83-82.32-181.52-34.54-181.52 67.18z"/>
  <path fill="#fff"
    d="m1538.41 3737.91c0 147.78 262.93 322.73 511.44 168.16 174.53-108.55 112.01-257.16 22.55-257.16-127.19 0-46.76 114.42-241.57 114.42-115.93 0-105.05-114.42-190.71-114.42-54.41 0-101.71 39.19-101.71 89z"/>
  <path fill="#fff"
    d="m1284.13 3165.78c0 178.1-29.33 305.14 114.42 305.14 117.55 0 89-231.53 89-305.14 0-143.64-203.43-143.64-203.43 0z"/>
  <path fill="#fff"
    d="m2212.26 3191.21c0 86.1-22.45 279.71 101.71 279.71 132.97 0 101.71-152.34 101.71-305.14 0-132.89-203.43-166.89-203.43 25.43z"/>
</svg>
