<svg
  clip-rule="evenodd"
  fill-rule="evenodd"
  height="180.6mm"
  image-rendering="optimizeQuality"
  shape-rendering="geometricPrecision"
  text-rendering="geometricPrecision"
  viewBox="0 0 3381.24 3755.31"
  width="614.589"
  xmlns="http://www.w3.org/2000/svg">
  <path fill="#fff"
    d="m1012.17 3131.87c0-47.34 27.46-88.01 73.35-88.01h454.74c41.2 0 73.35 32.14 73.35 73.35v528.09h-601.44v-513.42zm-711.45 322.72c0-45.77 20.99-80.68 66.01-80.68h462.08c98.97 0 73.35 158.65 73.35 271.38h-601.43v-190.7zm2031.68-139.36v330.06h-601.44v-887.49c0-36.25 29.76-66.01 66.01-66.01h476.75c74.4 0 58.68 160.38 58.68 190.7-.01 145.12-22.52 212.7 66.01 212.7 14.9 0 32.54-16.88 38.2-27.81 18.36-35.5-6.87-796.18 8.75-856.73 8.64-33.48 39.64-61.62 77.74-61.62h432.74c47.34 0 88.01 27.46 88.01 73.35v1422.91h-601.43v-330.06c0-73.72-110.02-80.37-110.02 0zm-718.79-454.74v80.68c-21.58-5.03-22.39-7.34-51.34-7.34 6.14-23.01 36.59-56.37 51.34-73.35zm330.06-601.44c44.26 3.68 37.96 25.88 44.22 139.14 3.28 59.41 14.45 108.47 14.45 176.25h-168.69c10.48-39.24 55.98-58.37 77.84-134.86 11.27-39.42 32.17-138.09 32.17-180.53zm58.68-322.72c27.52 18.42 78.36 85.95 104.32 115.72 123.67 141.83 99.8 110.77 73.07 325.71l-23.36 196.68h-36.67l-23.96-269.43c-15.3-125.99-37.62-113.65-122.74-170.65 0-67.46 29.34-130.57 29.34-198.03zm-608.77 990.17 188.25-398.52c68.99-137 31.08-118.1 48.46-244.92 10.55-77.01 12.67-190.5 12.67-280.72l249.38-102.68-84.87 487.23c-11.94 51.93-35.78 72.21-71.25 119.45l-305.28 406.17c-18.5 19.45 2.8 13.1-37.35 13.99zm645.44-1136.86 123.74-382.34c16.18-32 152.89-101.08 185.74-122.31l174.6-104.12v858.15c-58.9 0-104.86 17.06-141.37 56.66-30.87 33.49-49.79 71.13-49.6 133.76.35 119.89.27 239.78.27 359.67-23.73-5.53-32.18-12.47-58.68-14.67 0-150.81 79.53-374.38 13.37-475.44-35.37-54.03-248.07-298.67-248.07-309.36zm-205.37-909.49c60.31 0 71.86 52.83 115.15 141.76 51.26 105.31-93.03 129.62-93.15 129.62-51.75 0-84.84-79.32-115.15-141.76-51.73-106.55 82.63-129.62 93.15-129.62zm1232.21-520.76c0 56.74 27.44 64.61 60.44 93.58l78.91 75.11h-564.76v-330.06h564.76c-33.7 50.32-139.36 97.01-139.36 161.36zm-542.76 440.08-163.9 85.47c-54.95 27.67-243.99 140.02-283.51 149.23-10.42-44.74-56.16-131.62-79.19-170.18-19.1-31.99-25.07-46.32-56.84-67.85-85.93-58.23-174.46-30.7-252.93 25.11-51.46 36.6-73.12 84.47-73.12 154.25 0 53.13 36.2 101.36 56.24 141.79 63.86 128.79 46.35 67.36 83.11 122.26-16.84 31.82-31.31 60.56-43.19 96.16-11.28 33.8-68.49 175.22 21.19 175.22 59.5 0 63.59-56.06 77.49-105.87 32.84-117.66 56.97-127.14 179.27-187.46l176.07-95.31c59-30.55 392.03-219.71 425.32-227.46-2.1 94.34-64.8 151.23-136.17 193.88-61.82 36.95-493.35 285.92-509.04 320.47-19.14 42.15.17 79.75 73.12 79.75-22.56 47.02-75.88 241.43-89.58 262.48-7.57 11.62 1.57 1.87-10.59 11.41l-237.22 100.17c20.56-88.27 98.15-256.71 0-256.71-63.77 0-65.88 65.7-83.85 128.85-40.15 141.04-68.97 213.15-70.46 362.28l-8.12 211.92c-2.84 25.32-3 66.42-6.92 95.76-3.49 26.15-156.49 334.24-172.96 369.8-13.5 29.14-19.83 47.4-34.18 75.84-12.95 25.66-27.82 48.24-34.24 75.78-125.82 0-235.93-15.48-302.81 49.25-83.42 80.75-63.92 143.19-63.92 295.47-35.56-2.96-45.98-14.67-88.01-14.67h-432.74c-109.73 0-198.03 88.3-198.03 198.03v190.7c-125.98 0-183.36-19.69-183.36 66.01 0 17.66 26.35 44.01 44.01 44.01h3256.56c75.8 0 75.8-110.02 0-110.02h-139.36v-1408.24c0-101.65-77.25-198.03-176.03-198.03h-344.72v-946.16c0-38.85 66.01-90.34 66.01-220.04 0-67.07-10.09-118.99-66.01-132.02v-95.35h660.11c39.25 0 80.68-37.64 80.68-73.35 0-65.92-46.09-83.44-82.46-115.58-20.12-17.77-28.08-29.41-49.57-45.78-19.68-15-37.44-30.59-51.34-51.34 30.02-20.1 67.41-60.53 97.52-85.84 38.78-32.6 85.85-55.8 85.85-112.19 0-42.86-37.83-80.68-80.68-80.68h-660.11c0-47.72-11.4-80.68-58.68-80.68-74.84 0-58.68 80.26-58.68 154.03v645.44z"/>
</svg>
