<svg
  clip-rule="evenodd"
  fill-rule="evenodd"
  height="180.6mm"
  image-rendering="optimizeQuality"
  shape-rendering="geometricPrecision"
  text-rendering="geometricPrecision"
  viewBox="0 0 1202.6 1682.33"
  width="129.1mm"
  xmlns="http://www.w3.org/2000/svg">
  <path fill="#fff"
    d="m601.3 1324.18c9.85 2.63 46.47 36.89 52.57 46-16.77 3.91-31.02 10.83-50.13 12.35-17.31 1.38-40.11-6.2-51.73-12.35 2.05-2.8 45.65-43.56 49.29-46zm568.44 358.15h-64.29c-13.45-2.14-21.14-8.11-21.14-23 0-32.23 19.61-26.29 59.14-26.29 0-80.63 8.04-160.66-21.56-234.74-12.87-32.22-29.09-54.08-48.82-79.33-14.64-18.73-49.34-44.8-70.23-57.91-20.86-13.1-64.18-31.47-95.97-32.17l-125.31 160.55c-53.94 72.41-52.35 38.73-84.98 16.88-23.97 5.58-36.45 23-69 23v203.72h354.87c24.31 0 24.31 49.29 0 49.29h-949.6c-19.59 0-26.29-13.26-26.29-32.86 0-107.68-9.43-214.76 42.85-305.44 26.79-46.46 62.41-86.33 106.91-116.52 23.58-16 46.22-26.16 74.55-37.16 10.78-4.19 36.05-8.66 42.79-13.07 7.89-5.16 2.89-6.48 16.71-12.86 6.11-2.82 14.23-5.61 18.94-7.35 147.42-54.45 104.6-34.9 157.25-7.04v-46c-28.71-2.39-91.27-37.02-113.08-51.21-36.23-23.58-57.02-45.23-86.56-74.44-44.94-44.43-107.95-159.05-109.22-216.07-15.59 1.3-24.82 6.57-42.72 6.57-60.34 0-115-54.33-115-105.15 0-60.27 16.19-90.34 69-118.29 0-47.45-6.07-117.45 7.82-153.19 12.47-32.1 48.04-66.96 90.76-66.96 3.72-44.67 80.72-177.43 105.15-177.43 17.62 0 29.57 7.73 29.57 26.29 0 16.44-80.92 102.9-82.14 157.72 31.18 7.26 65.72 47.93 65.72 85.43v118.29c0 26.15-17.72 53.34-31.49 67.08-15.14 15.1-34.92 29.64-57.22 31.49 0 20.97 3.5 27.43 3.36 49.21-.32 50.44 8.67 84.36 24.11 130.32 14.07 41.89 50.52 100.91 78.47 128.54 41.53 41.04 62.67 62.17 117.49 89.51 68.59 34.21 114.57 42.71 197.15 42.71 78.47 0 174.2-38.67 229.02-83.13 25.72-20.86 57.04-50.64 76.58-77.86 23.94-33.36 39.01-59.57 54.47-99.96 22.99-60.06 24.37-98.7 24.37-179.35-41.87-9.76-85.43-50.8-85.43-101.86v-111.72c0-41.49 32.52-80.98 65.72-88.72-.52-23.21-25.25-65.28-35.01-83.28l-49.62-68.67-63.24-55.05c-23.25-16.41-48.32-30.44-75.6-42.69-195.07-87.57-368.47 29.53-377.83 29.53-11.45 0-26.29-14.83-26.29-26.29 0-20.82 26.04-29.47 41.62-37.24 82.97-41.38 134.3-48.19 227.82-48.19 108.63 0 250.2 69.36 312.64 147.37 14.18 17.71 26.89 32.43 40.28 51.72 7.69 11.08 10.7 16.71 17.36 28.64 13.69 24.55 38.15 70.03 40.44 97.56 43.06 0 79.94 36.42 90.92 70.08 12.94 39.66 7.65 100.11 7.65 150.07 46.05 24.37 69 55.01 69 111.72 0 61.71-55.8 111.72-118.29 111.72-14.34 0-25.68-5.43-39.43-6.57-1.24 55.59-64.05 171.41-109.22 216.07-31.7 31.34-47.99 50.67-88.91 75.38-23.83 14.38-79.81 47.7-110.73 50.28v49.29c12.35-8.27 21.64-16.42 34.21-25.02 16.64-11.38 21.46-6.47 40.12-.05 28.97 9.98 56.38 18.91 83.83 27.91 45.87 15.04 26.21 18.28 43.73 25.28l13.54 2.89c30.25 6.11 70.75 28.27 94.11 43.9 51.71 34.59 76 64.83 108.43 118.29 50.92 83.96 42.05 202.86 42.05 306.24 0 15.89-9.33 29.57-26.29 29.57zm-824.74-483.01 69-23c35.3 23.64 108.04 85.05 147.86 111.72-13.46 20.1-40.33 38.51-58.33 56.67-10.79 10.89-16.43 17.16-29 26.86-53.98 41.67-16.48 64.33-4.67 64.33 19.31 0 28.66-20.16 42.72-29.57 46.75 31.31 65.72 15.43 65.72 32.86v193.86h-519.16c0-144.3-14.96-204.92 70.37-314.07 27.01-34.55 107.27-90.09 166.2-90.09l59.88 74.84c6.67 8.29 12.3 20.45 25.55 20.45 14.32 0 26.75-10.46 28.19-23.88 2.5-23.2-60.88-74.04-64.34-100.98zm387.72 170.86-67.62-60.53c-9.01-6.94-15.32-12.98-21.1-21.62 13.15-8.81 22.8-17.15 35.67-26.76 13.18-9.85 24.1-18.06 37.56-28.16l74.64-56.8c20.27 4.72 60.68 22.04 72.29 23-2.68 10.02-24.48 34.19-32.11 43.47l-66.92 84.22c-5.48 6.86-10.04 13.79-15.53 20.62-7.01 8.73-10.66 13.27-16.88 22.55zm-46-249.72c0 88.44 9.85 59.17-53.61 110.68-11.59 9.41-20.01 16.13-31.82 24.03l-42.26-33.31c-15.36-11.49-27.15-21.68-43.17-32.41v-72.29c39.28 18.85 141.36 3.29 170.86 3.29zm368.01-502.73c0-19.22 27.79-26.29 49.29-26.29 57.76 0 74.29 124.86-19.71 124.86-14.13 0-17.81-3.83-29.57-6.57v-29.57c28.64 0 46 4.21 46-26.29 0-25.24-20.95-26.29-46-26.29v-9.86zm-952.88 29.57c0 35.92 8.67 32.86 46 32.86v29.57c-23.5 5.47-51.51 16.38-79.74-12.26-31.08-31.52-24.75-106.03 43.6-106.03 19.69 0 35.67 14.86 36.14 36.14-19.26 0-46 1.81-46 19.71zm864.17-131.43c0-68.75-12.86-135.32 52.1-140.51 34.97-2.8 62.9 21.85 62.9 55.08v105.15c-17.97 0-33.82 5.89-46.96 12.19-16.92 8.1-24.06 14.26-28.61 33.82-25.53-13.51-39.43-31.61-39.43-65.72zm-768.88 65.72c-7.33-31.46-43.59-46-75.57-46 0-91.97-17.12-161 65.72-161 12.26 0 30.99 11.44 36.87 18.99 19.6 25.18 16.15 138.4 2.65 161.81-7.38 12.8-16.6 19.29-29.66 26.2z"/>
  <path fill="#fff"
    d="m335.15 621.02c0-56.98 42.24-98.57 85.43-98.57 31.42 0 55.99 1.97 79.74 28.7 55.36 62.28 14.97 156.55-67.26 160.91-49.7 2.64-97.91-42.51-97.91-91.04zm341.72-3.29c0-51.52 40.78-95.29 85.43-95.29 30.18 0 56.89 3.86 79.76 28.67 52.82 57.29 18.32 156.4-67.28 160.94-51.81 2.75-97.91-41.75-97.91-94.32zm-256.29 144.58c53.8 0 82.64-10.61 119.19-48.39 55.01-56.88 7.39-89.61 68.1-89.61 14.91 0 17.35 3.12 19.99 16.16 13.8 68.11 68.48 121.85 134.44 121.85 50.64 0 84.27-10.92 117.53-46.76 39.75-42.84 48.94-106.24 24.78-161.27-40.15-91.45-179.95-122.86-253.18-21.13-10.47 14.54-13.1 26.33-20.56 41.87-57.06-4.75-15.73-.97-59.14 0-12.97-27.03-20.45-49.93-47.33-70.96-148.06-115.79-320.76 82.32-201.62 211.48 19.82 21.48 58.01 46.77 97.8 46.77z"/>
  <path fill="#fff"
    d="m427.15 345.01c0 42.72 49.42 19.22 85.39 13.1 55.27-9.4 121.53-9 177.06.46 24.99 4.26 85.85 31.77 85.85-13.56 0-18.26-11.88-22.45-26.18-26.39-90.95-25.04-202.6-26.54-293.34-.69-15.94 4.54-28.78 7.67-28.78 27.08z"/>
  <path fill="#fff"
    d="m486.3 226.72c0 55.68 63.16-8.18 185.95 21.15 21.23 5.07 44.06 7.88 44.06-21.15 0-24.75-21.96-27.07-44.1-31.47-40.43-8.04-185.9-17.79-185.9 31.47z"/>
</svg>
