<svg
  clip-rule="evenodd"
  fill-rule="evenodd"
  height="646.764"
  image-rendering="optimizeQuality"
  shape-rendering="geometricPrecision"
  text-rendering="geometricPrecision"
  viewBox="0 0 5444.74 5498.44"
  width="640.449"
  xmlns="http://www.w3.org/2000/svg">
  <path fill="#fff"
    d="m193.31 4929.26c45.13 10.51 78.41 27.99 119.38 41.71 320.86 107.45 696.14 106.61 1017.61-.11 34.53-11.46 85.78-33.74 119.49-41.6 0 208.11 54.08 244.89-181.15 323.59-247.81 82.9-636.95 82.46-883.54.11-244.24-81.57-191.79-99.89-191.79-323.69zm666.07 569.17h-70.2c-202.1-3.45-398.27-35.54-534.72-93.37-155.34-65.84-254.46-146.23-254.46-325.45v-3060.65c0-159.78 103.78-272.33 225.52-300.7-12.27-45.96-379.17-394.13-150.24-901.98 36.16-80.22 123.75-214.18 185.52-265.53 28.03-23.3 55.72-45.89 84.79-65.56 70.24-47.51 107.66-71.78 195.71-104.99 300.64-113.4 678.55-9.74 867.04 198.18 18.18 20.06 28.06 35.03 49.52 57.87 107.65 114.56 185.23 352.52 185.23 512.82 0 276.88-113.88 402.44-225.52 569.17 56 13.05 117.1 55.93 153.43 93.56 43.36 44.91 72.09 90.47 72.09 174.91v3146.57c0 244.24-391.3 358.93-783.71 365.13zm-666.07-1020.22c116.98 9.74 142.24 118.13 708.78 118.13 103.21 0 207.42-16.53 294.32-38.59l253.37-79.54c0 219.72 54.85 239.84-183.75 320.98-92.73 31.53-214.86 52.08-321.08 54.78-54.42 1.39-60.38 11.01-117.97 11.63-140.35 1.54-529.23-53.37-615.87-147.46-37.21-40.41-17.79-172.22-17.79-239.94zm0-461.78c325.15 172.05 929.68 172.92 1256.48 0 0 241.54 36.77 241.69-136.21 314.83-317.2 134.12-1048.01 67.98-1113.5-85.35-20.84-48.8-6.77-168.97-6.77-229.49zm0-451.05c346.62 166.32 926.45 174.63 1256.48 0v236.26c-223.56 149.7-442.18 150.35-708.78 150.35-132.03 0-293.77-30.91-392.89-68.9-208.09-79.75-154.81-117.86-154.81-317.71zm0-451.04c65.53 15.27 237.22 108.5 451.1 118.08 169.31 7.59 345.81 12.15 512.88-23.96 90.64-19.59 214.72-56.79 292.5-94.11v236.26c-44.87 23.74-66 45.75-116.27 66.29-274.43 112.14-695.57 110.55-975.27 15.76-216.22-73.28-164.94-116.61-164.94-318.32zm0-451.04 233.93 77.5c259.1 66.53 649 59.86 905.87-33.1 39.13-14.16 77.86-35.36 116.68-44.41 0 206.55 51.91 245.8-173.02 320.98-254.29 85-656.87 90.33-910.23-.22-227.21-81.21-173.23-111.33-173.23-320.77zm0-451.04 244.81 77.37c273.61 68.58 616.77 55.9 884.25-32.96 47.37-15.74 79.9-33.33 127.42-44.4 0 66.39 17.84 188.73-12.83 234.17-23.5 34.82-121.26 73.67-168.33 89.41-257.24 86.05-629.27 77.47-883.46.03-247.02-75.26-191.86-117.67-191.86-323.62zm0-236.26c10.27-38.45 37.47-59.62 71.41-78.94 96.97-55.2 110.36-59.77 160.74-35.08 493.34 241.67 771.42-14.84 820.28-14.84 25.2 0 473.6 125.39-55.71 255.73-121.97 30.04-155.01 31.19-266.75 33.95-116.58 2.88 9.4 16.5-182.86.86-118.17-9.61-89.83 10.85-270.29-30.42-93.56-21.4-234.53-68.07-276.84-131.25zm0-816.18c0-657.13 850.61-895.76 1191.77-300.42 192.01 335.07-25.17 923.29-558.16 923.29-346.68 0-633.61-277.8-633.61-622.87z"/>
  <path fill="#fff"
    d="m2727.74 5315.87c-163.92 0-526.33-50.14-615.78-146.7-37.27-40.24-17.83-172.25-17.83-239.91 44.55 3.71 261.8 118.13 536.96 118.13 199.75 0 287.94 9.03 485.46-40.76l244.8-77.38c0 183.63 42.45 249.2-183.67 321.06-122.43 38.91-291.03 65.55-449.93 65.55zm66.61 182.56h-135.96c-266.12-8.62-520.87-67.91-647.19-174.81-36.9-31.23-99.63-97.17-99.63-158.11v-2308.91c0-90.15 62.46-144.76 116.38-184.31 64.74-47.49 116.49-66.86 196.37-93.59 143.1-47.87 347.95-76.49 503.42-76.49 223.56 0 816.17 75.75 816.17 365.13v2265.96c0 234.09-366.01 352.64-749.56 365.13zm-700.22-1030.96c309.3 163.66 797.79 167.03 1137.14 52.48 40.55-13.68 82.73-37.81 130.08-41.75 0 205.94 40.99 242.42-186.57 318.16-100.7 33.51-214.45 54.69-329 57.61-54.42 1.39-60.38 11.01-117.97 11.63-137.72 1.51-543.06-52.64-618.91-155.16-34.1-46.08-14.75-174.44-14.75-242.98zm741-64.44c-242.95 0-360.41 10.29-594.9-70.93-194.88-67.51-146.1-123.4-146.1-315.68 336.98 178.3 918.23 167.45 1267.22 0 0 231.08 31.22 234.79-139.61 311.43-84.15 37.75-263.84 75.17-386.61 75.17zm-32.22-451.04c-194.04 0-377.12.85-554.22-68.65-207.97-81.61-154.56-120.26-154.56-317.96 312.79 150.09 779.15 169.64 1126.4 52.49 43.74-14.76 97.42-42.38 140.82-52.49 0 186.62 48.07 244.68-156.84 315.68-113.86 39.45-253.81 70.93-401.59 70.93zm-32.22-451.04c-198.9 0-326.74-5.63-511.62-68.29-216.22-73.28-164.94-116.61-164.94-318.32 45.16 10.52 95.42 38.11 140.76 52.55 45.98 14.64 108.93 33.46 152 41.31 148.13 26.98 137.24 18.47 259.53 30.54 50.06 4.94 28.98-6.27 81.32-6.27s31.27 11.21 81.32 6.27c146.74-14.48 257.06-16.37 409.65-73.73 47.91-18.01 95.39-39.66 142.64-50.67 0 211.72 47.5 237.58-165.43 317.83-106.69 40.21-282.89 68.78-425.22 68.78zm-676.56-622.87c43.74-163.84 540.13-182.56 698.04-182.56 297.1 0 901.54 168.71 303.1 313.84-280.3 67.97-874.57 57.75-1001.14-131.27z"/>
  <path fill="#fff"
    d="m3994.96 4929.26 244.81 77.37c261.26 65.48 649.79 59.23 902.79-35.9 32.49-12.22 79.69-38.14 119.62-41.47 0 186.21 56.37 244.77-183.68 321.06-272.63 86.65-619.37 85.72-891.72 2.6-244.82-74.72-191.82-133.69-191.82-323.66zm0-461.78c329.55 174.38 938.64 173.86 1267.22 0 0 226.35 71.56 296.19-395.69 377.52-196.31 34.17-503 19.96-687.55-46.02-239.24-85.54-183.97-110.23-183.97-331.5zm0-451.04c360.22 172.85 905.4 173.61 1267.22 0 0 49.5 9.49 182.65-5.19 220.33-38.85 99.76-387.93 166.27-521.03 166.27-222.06 0-385.29 9.35-593.91-71.91-200.32-78.03-147.09-121.28-147.09-314.69zm708.78-64.44c-197.5 0-370.22 1.22-552.55-70.32-45.24-17.75-128.57-52.33-147.61-88.65-26.18-49.94-8.62-163.32-8.62-227.64 31.4 7.32 143.17 61.02 283.69 92.18 282.87 62.72 645.1 45.44 914.62-64.43 32.06-13.07 35.17-19.89 68.91-27.75 0 226.23 26.17 252.16-156.84 315.68-113.7 39.46-253.97 70.93-401.59 70.93zm-32.22-451.04c-212.43 0-580.06-27.72-676.56-171.83 40.64-152.19 542.33-182.56 665.83-182.56 146.14 0 524.04 36.38 601.39 182.56-120.97 139.17-413.48 171.83-590.65 171.83zm-859.13-204.04v1868.61c0 113.96 173.91 216.16 274.98 251.25 227.29 78.9 367.22 81.59 593.14 81.67h33.98c266.09 0 730.26-113.55 730.26-354.39v-1825.65c0-241.35-453.68-354.39-719.52-354.39-266.03 0-601.67 5.88-807.3 169.97-38.18 30.47-105.53 100.29-105.53 162.95z"/>
  <path fill="#fff"
    d="m1393.51 126.29 1417.47 1422.82 730.31-724.82 1583.94 1589.36c-366.73 16.26-324.83-67.32-324.83 185.23h644.35v-633.61h-182.56v311.43c-49.67-13.26-80.93-64.82-115.45-99.33l-1396.09-1396.09c-54.29-54.29-163.53-175.98-217.47-212.1l-716.86 722.19-1166.85-1168.87c-37.48-37.48-78.45-91.65-124.51-122.49l-131.45 126.29z"/>
  <path fill="#fff"
    d="m2816.28 2010.84-483.29-477.74-123.1 129.12 606.38 611.86 725.02-719.53 934.29 928.83c28.43-19.91 41.11-35.83 64.45-58.96 26.09-25.86 46.71-36.55 56.32-72.55-32.68-48.8-445.44-450.82-523.53-528.9-48.88-48.88-487.29-509.55-539.64-523.54z"/>
  <path fill="#fff"
    d="m1758.64 1210.94 268.43 273.69 129.15-123.13-268.67-274.32z"/>
</svg>
