<svg
  clip-rule="evenodd"
  fill-rule="evenodd"
  height="546.18"
  image-rendering="optimizeQuality"
  shape-rendering="geometricPrecision"
  text-rendering="geometricPrecision"
  viewBox="0 0 6994.24 7988.28"
  width="478.216"
  xmlns="http://www.w3.org/2000/svg">
  <path fill="#fff"
    d="m1622.62 4914.66c200.81 106.26 546.3 97.21 748.91 0 0 380.86 37.42 306.56 156.02 483.67-48.44 32.44-83.25 65.31-129.64 104.39-49.17 41.41-89.34 72.63-137.78 111.85-42.42 34.35-84.63 69.97-126.65 107.38-30.71 27.35-39.07 30.33-69.16 55.65-31.56 26.56-33.85 35.23-67.24 57.58l-267.43-216.24c-46.09-37.32-88.93-74.91-134.75-114.88-52.14-45.48-100.66-94.19-143.9-105.74 35.92-53.64 40.13-31.68 78.29-77.73 88.74-107.07 93.33-259.39 93.33-405.94zm-1484.56 3073.62h-38.44c-53.4-8.3-99.62-49.44-99.62-93.61v-1716.23c0-212.47 111.34-375 231.33-470.76 111.19-88.74 837.77-401.59 949.07-455.12 232.02-111.61 192.59-55.23 192.59-493.91-105.12-28.07-235.88-249.17-286.31-353.38-79.2-163.65-88.14-301.31-88.14-535.95-163.51-38.09-124.82-118.39-124.82-405.65 0-279.11 163.38-541.68 383.28-693.27 286.3-197.37 665.79-149.25 1005.31-149.25 462.06 0 858.12 397.64 858.12 920.53 0 111.97 19.34 338.34-34.47 402.39-36.72 43.72-42.11 26.92-90.35 50.07-1.56 70.29-23.4 189.96-40.24 256.19-26.21 103.11-45.32 132.77-84.42 212.02-33.78 68.45-68.92 120.5-120.92 175.53-16.43 17.39-22.28 23.67-37.69 40.33l-22.68 24.13c-2.31 2.23-5.76 5.31-8.11 7.49-24.44 22.73-60.4 37.91-60.4 80.03 0 363.86-38.2 366.57 156.21 452.27l644.63 291.5c231.32 116.68 572.15 213.03 572.15 676.02v1622.62c0 93.05-31.82 156.02-124.82 156.02-151.22 0-124.86-177.26-124.82-327.65l.01-1341.78c.13-211.97 11.73-234.3-86.41-366.05-85.67-115.01-404.44-225.68-579.11-310.21l-301.81-135.04c-73.05 48.92-131.58 100.4-199.36 159.49-86.78 75.66-490.93 448.99-596.35 448.99-71.82 0-625.4-515.33-764.5-608.48-65.08 15.16-99.79 45.47-162.61 71.43-63.74 26.33-96.18 44.94-149.64 68.79-459.42 204.97-673.5 218.61-670.89 655.29l.21 1341.99c0 83.65 27.58 240.27-25.27 302.38-20.56 24.15-45.42 36.78-70.71 40.87zm1094.51-4118.96c125.33-60.13 215.03-75.42 327.57-202.89 30.1-34.09 64.68-58.96 78.08-109.15 71.07 18.98 479.25 368.96 1107.75 421.26 0 427.38-342.79 764.5-702.1 764.5-262.64 0-473.47-69.9-624.25-265.07-144.21-186.66-187.06-345.48-187.06-608.65zm-124.82-234.03c0-300.69 83.86-560.27 327.13-687 232.86-121.31 538.26-77.49 874.24-77.49 263.64 0 561.67 281.91 561.67 624.08v249.64c-301.11 0-747.08-164.13-986.1-324.47-355.19-238.25-234.26-265.41-479.94 59.78-32.12 42.52-67.83 70.37-116.09 102.34-46.63 30.88-111.57 51.59-180.9 53.13z"/>
  <path fill="#fff"
    d="m1778.64 2246.71c0 76.87 51.95 109.21 124.82 109.21 151.3 0 123.71-268.49 256.21-617.5 149.64-394.15 427.44-741.16 751.18-996.26 1033.95-814.76 2568.31-602.78 3352.44 436.77 426.47 565.39 605.55 1336.53 405.41 2041.7l-108.96 327.91c-79.27 198.58-202.76 391.66-325.26 548.46-127.66 163.39-279.87 302.77-446.07 427.64-350.17 263.1-847.57 468.05-1294.99 468.05-508.79 0-860.19-56.21-1290.2-301.22-41.48-23.63-114.23-71.87-158.73-68.67-81.56 5.87-207.75 135.98-9.12 252.12 725.24 424.03 1592.61 488.27 2367.54 153.55 151.12-65.28 291.52-144.82 422.98-232.31 71.05-47.29 123.41-85.53 190.17-137.47 228.81-178.01 525.24-534.15 666.97-799.63l228.85-598.07c235.33-880.47-46.31-1848.38-682.73-2484.77-55.33-55.33-100.27-106.3-159.79-152.26-326.56-252.18-596.97-431.05-1023.6-536.61-218.74-54.12-435.42-83.4-648.56-87.34h-98.75c-485.99 9.05-952.21 152.08-1380.9 436.8-227.56 151.14-366.33 279.55-535.08 479.05-155.07 183.34-175.26 215.97-310.62 438.29l-181.9 410.98c-36.14 101.77-111.29 359.07-111.29 481.59z"/>
  <path fill="#fff"
    d="m4493.41 3728.91v-936.13c262.9 126.15 499.27 186.53 499.27 546.07 0 212.25-283.82 390.06-499.27 390.06zm-748.91-1794.24c0-287.69 266.19-382.56 499.27-436.86v936.13c-207.45-48.34-499.27-223.45-499.27-499.27zm-249.63 0c0 107.16 40.46 225.75 77.68 296.77 85.5 163.14 231.22 271.74 395.55 353.35 82.6 41.02 185.29 93.33 275.67 114.38v1029.74c-137.95 0-326.9-94.25-401.42-175.85-147.93-161.99-56.23-354.62-222.66-354.62-44.66 0-101.44 49.79-115.38 88.48-39.25 108.87 61.97 319.27 173.81 430.38 77.49 76.99 126.19 122.36 232.47 173.18 81.15 38.8 224.54 85.65 333.18 88.07 0 84.72-9.38 265.23 124.82 265.23 145.44 0 124.82-176.13 124.82-265.23 461.66 0 946.58-495.3 676.08-972.52-96.63-170.48-214.83-263.72-395.07-353.84-59.57-29.79-207.28-102.9-281.01-109.04v-1045.34c742.84 173.06 337.84 530.47 655.29 530.47 179.51 0 155.13-613.16-594.91-762.47-100.27-19.96-48.25-44.47-63.54-154.89-20.64-149.09-211.18-156.59-240.72 2.6-46.94 253.04 108.61 67.74-242.09 194.77-54.64 19.79-107.81 46.88-158.84 75.19-201.1 111.56-353.73 310.03-353.73 551.19z"/>
  <path fill="#fff"
    d="m3120.42 6786.92v1045.34c0 95.34 44.12 144.32 95.27 156.02h50.29c54.78-11.99 104.07-62.34 104.07-140.42v-1060.95c0-209.2-249.63-217.89-249.63 0z"/>
  <path fill="#fff"
    d="m624.08 6724.51v1138.95c0 82.27 47.38 119.16 99.51 124.82h29.4c54.28-5.71 105.12-42.13 105.12-93.61v-1154.55c0-166.41-234.03-123.57-234.03-15.61z"/>
</svg>
