<svg clip-rule="evenodd" fill-rule="evenodd" height="86.6171mm" image-rendering="optimizeQuality" shape-rendering="geometricPrecision" text-rendering="geometricPrecision" viewBox="0 0 3254.81 2860.67" width="98.551mm" xmlns="http://www.w3.org/2000/svg"><path d="m95.36 190.71c0-43.46 27.99-89 69.92-89h2924.25c41.93 0 69.93 45.54 69.93 89v336.92h-3064.1v-336.92zm-95.36-31.79v2110.54c0 61.03 95.36 61.03 95.36 0v-1646.47h3064.1v254.28c0 63.94 95.35 63.94 95.35 0v-705.63c0-95.64-82.16-171.64-178-171.64h-2898.82c-88.03 0-178 74.37-178 158.92z"/><path d="m2485.61 1716.4c0-225.06 265.16-314.5 405.45-176.6 100.15 98.45 94.38 263.3-3.27 349.92-157.83 140.01-402.18 26.3-402.18-173.33zm-89-69.93h-508.56c-67.8 0-50.35 95.36-6.36 95.36h508.56c0 148.49 148.64 293.7 286.07 305.14v508.56h-1544.76v-813.7h546.71c46.55 0 53.08-95.36 0-95.36h-597.56c-37.89 0-50.85 25.66-50.85 63.57v877.27c0 47.66 22.27 69.93 69.93 69.93h1608.33c96.17 0 69.93-109.83 69.93-267 0-114.42 0-228.85 0-343.28 229.68-19.11 403.58-351.98 189.3-570.73-233.65-238.52-566.63-13.85-570.73 170.23z"/><path d="m3089.53 2758.96h-2924.25c-93.33 0-69.56-165.76-69.47-254.74.03-27.72 3.69-30.25-10.83-46.39-31.7-35.25-84.98-9.49-84.98 21.41v222.49c0 84.55 89.97 158.93 178 158.93h2898.82c95.84 0 178-76 178-171.64v-1601.97c0-36.26-95.91-73.54-95.81 24.97.2 207.21 10.58 1550.73-6.23 1595.75-8.7 23.3-30.78 51.18-63.25 51.18z"/><path d="m718.35 832.77h1818.11v101.71h-1818.11zm-95.36-50.86v216.14c0 20.6 27.62 38.14 50.85 38.14h1907.12c23.23 0 50.85-17.54 50.85-38.14v-216.14c0-30.75-20.1-50.86-50.85-50.86h-1907.12c-30.75 0-50.85 20.11-50.85 50.86z"/><path d="m203.42 1487.55c0 37.89 25.66 50.86 63.57 50.86h1652.83c63.37 0 79.67-101.72-12.72-101.72h-1646.47c-30.82 0-57.22 21.04-57.22 50.86z"/><path d="m654.78 1271.41c0 42.68 13.9 63.57 69.93 63.57h1176.06c100.35 0 82.54-101.71 19.07-101.71h-1214.2c-23.23 0-50.86 17.54-50.86 38.14z"/><path d="m1474.83 2040.61c.99 1.14 2.37 1.54 2.72 3.63l37.27 89.87c12.38 31.64 23.07 69.66 36.29 97.21h-146.21c9.88-42.42 57.94-139.26 69.92-190.71zm-235.21 362.36c0 37.08 29.44 44.5 57.21 44.5 50.64 0 46.05-114.43 82.64-114.43h197.07c47.4 0 7.98 114.43 101.72 114.43 16.31 0 38.14-17.66 38.14-50.86 0-16.25-42.48-122.32-49.94-140.77-39.94-98.72-93.87-263.2-130.47-346.3-25.4-57.67-93.93-52.75-115.99-.04-25.62 61.23-180.38 467.3-180.38 493.47z"/><path d="m1875.33 2250.4c0-148.19 203.42-131.51 203.42-6.36 0 137.58-203.42 139.68-203.42 6.36zm203.42-178c-83.03-43.93-188.8-32.27-249.62 36.45-133.96 151.34.52 338.62 128.83 338.62 53.09 0 71.77.51 120.79-25.43 17.7 11.85 21.97 25.43 50.86 25.43 38.61 0 50.85-32.09 50.85-69.93v-413.21c0-27.3-6.8-46.97-24.18-58.8-21.25-14.46-43.47-12.14-61.68 4.55-24.5 22.44-15.85 112.09-15.85 162.32z"/><path d="m2472.89 2326.68c-61.25 64.57-104.48-19.07-146.21-19.07-42.51 0-50.86 23.97-50.86 57.22 0 35.78 77.83 82.64 165.29 82.64 133.31 0 223.07-209.54-50.86-273.35v-19.07c81.36-18.95 64.94 12.25 111.66 21.82 26.8 5.49 54.22-13.93 57.32-42.6 5.18-47.86-79.99-87.29-130.84-87.29-85.63 0-156.79 66.16-132.34 150.97 25.89 89.8 137.58 70.11 176.84 128.74z"/><path d="m203.42 1894.4c0 39.02 30.26 57.21 69.93 57.21h572.13c123.25 0 78.39-101.71 38.14-101.71h-629.35c-27.2 0-50.86 19.59-50.86 44.5z"/><path d="m203.42 1690.97c0 30.75 20.11 50.86 50.86 50.86h622.99c63.94 0 63.94-95.36 0-95.36h-635.71c-17.96 0-38.14 26.51-38.14 44.5z"/><path d="m2619.11 1652.83c0 28.03 7.75 36.86 38.14 57.21-20.7 30.92-38.14 24.16-38.14 63.57 0 29.2 17.92 45.99 45.46 47.23 28.98 1.31 42.19-20.85 62.61-34.52 37.76 25.29 11.97 31.79 69.93 31.79 22.15 0 73.4-52.56 0-101.71 10.56-15.77 38.14-39.28 38.14-63.57 0-21.74-23.47-45.71-46.21-48.2-30.4-3.33-41.12 21.59-61.86 35.48-17.83-11.94-33.86-34.19-58.13-36.3-28.16-2.45-49.94 17.85-49.94 49.01z"/><path d="m203.42 2097.83c0 37.47 21.41 57.21 57.22 57.21h292.42c68.33 0 70.21-101.71-6.36-101.71h-286.07c-26.22 0-57.22 21.37-57.22 44.5z"/><path d="m2447.47 317.85c0 95.39 158.92 101.13 158.92-6.36 0-96.14-158.92-107.85-158.92 6.36z"/><path d="m2867.03 317.85c0-102.68-124.07-104.52-150.31-35.43-44.94 118.33 150.31 151.34 150.31 35.43z"/><path d="m2186.83 305.14c0 117.87 152.57 117.87 152.57 0 0-93.18-152.57-93.18-152.57 0z"/></svg>