<svg
  clip-rule="evenodd"
  fill-rule="evenodd"
  height="114.327mm"
  image-rendering="optimizeQuality"
  shape-rendering="geometricPrecision"
  text-rendering="geometricPrecision"
  viewBox="0 0 5583.46 4712.74"
  width="135.45mm"
  xmlns="http://www.w3.org/2000/svg">
  <path fill="#fff"
    d="m4547.47 2851.61c246.31 0 460.27 83.41 624.64 247.77 31.37 31.37 68.19 77.42 93.15 114.05 199.25 292.39 204.93 658.77 8.66 953.51-312.14 468.73-979.63 485.94-1312.84 121.66-66.33-72.51-125.4-157.41-166.07-248.32-253.26-566.1 182.77-1188.67 752.46-1188.67zm-992.38 796.08h-2104.7c-107.94 0-107.94 163.58 0 163.58h2115.61c0 96.32 25.71 152.12 43.62 229.01h-3435.14c-24.41-104.79-10.9-457.79-10.9-588.88h3424.23c-17.03 35.49-32.72 141.46-32.72 196.29zm-3555.1-2715.39v3107.98c0 59.12 52.71 121.18 95.76 144.16 50.02 26.7 134.15 30.79 209.52 30.4l3391.59-.07c58.33 110.25 145.14 193.73 237.39 275.15 256.93 226.79 687.4 293.33 1038.89 139.61 106.31-46.49 213.45-113.66 297.03-193.7 142.76-136.71 313.29-405.86 313.29-679.08 0-335.23-53.8-478.85-255.37-737-39.55-50.65-67.69-65.2-112.57-105.53-37.64-33.82-81.86-63.47-127.22-90.88-99.06-59.85-197.97-95.33-322.72-124.39 0-107.16 31.85-294.44-76.34-294.44-115.14 0-87.24 134.44-87.24 272.63-322.64 0-519.32 107.98-712.2 269.27-170.32 142.43-224.37 330.52-269.27 330.52h-3456.95v-2322.81c0-50.47 87.04-32.91 141.75-32.73 180.9.59 458.04 37.34 458.04-87.23 0-43.08-49.52-87.24-98.14-87.24h-468.93c-104.12 0-196.29 80.18-196.29 185.39z"/>
  <path fill="#fff"
    d="m2944.41 1346.69c0-34.83 431.2-570.78 479.83-643.41l570.46 738.16c33.02 40.44 55.97 70.82 83.85 112.44h-1134.14v-207.2zm1308.62 141.77 381.68-501.64c10.97 41.11 137.11 190.05 165.15 227.44l128.05 166.4c45.9 58.89 33.96 63.61 33.96 173.24h-676.12c-13.38-50.11-32.72-27.53-32.72-65.43zm-1483.11-1297.72v556.16h-1690.3c-126.87 0-126.87 174.48 0 174.48h1690.3v621.6c0 100.56 73.29 185.39 174.48 185.39h1657.59c0 100.9-17.14 383.41 19.17 427.94 49.3 60.46 144.41 24.08 144.41-57.17v-370.78c103.26 0 359.87 28.67 359.87-152.67v-1417.68c0-47.14-34.76-88.68-63.14-111.34-36.25-28.94-71.14-41.33-133.15-41.33h-1221.38c-126.86 0-126.86 174.48 0 174.48h1254.1v959.66c-31.91-23.38-113.82-140.71-144.86-182.3-101.16-135.57-108.47-166.66-204.11-166.66-41.47 0-58.72 17.06-78.39 41.57-21.23 26.45-36.02 45.45-57.25 73.61-45.63 60.51-312.53 419.79-344.19 440.99-98.4-146.95-373.97-487.75-500.07-655.89-235.7-314.28-228.49-225.28-461.09 65.5l-197.81 260.2c-10.85 13.95-19.99 24.58-29.69 35.74v-872.42h359.87c126.86 0 126.86-174.48 0-174.48-247.4 0-534.36-54.64-534.36 185.39z"/>
  <path fill="#fff"
    d="m1908.41 2677.13v-1014.19l749.01 439.65c33.29 19.86 78.15 52.81 112.5 61.99-23.03 31.43-159.92 105.61-205.14 132.92-66.59 40.2-605.5 367.78-656.37 379.63zm-174.48-1068.71v1123.23c0 256.09 183.92 145.6 269.18 94.7l876.49-519.38c269.29-159.55 36.39-247.57-125.31-344.87-103.81-62.48-201.56-118.87-301.23-178.6l-445.9-262.94c-64.85-38.81-183.07-125.29-247.61-28.29-16.49 24.79-25.62 77.01-25.62 116.15z"/>
  <path fill="#fff"
    d="m4482.04 3211.48v43.62c-84.72 0-131.66 18.53-178.98 60.93-21.22 19.02-7.58 4.88-26.87 27.66-92.18 108.84-98.37 368.69 148.46 426.82 132.39 31.18 330.02-52.55 330.02 106.19 0 197.87-490.73-23.27-490.73 163.58 0 109.3 116.1 87.24 218.1 87.24 0 61.45 5.46 152.67 87.24 152.67 92.58 0 87.24-100.84 87.24-152.67 112.25 0 202.28-41.49 243.77-137.91 72.86-169.34-11.79-380.2-254.25-385.97-124.97-2.98-262.15 36.34-262.15-97.72 0-185.1 479.83 34.8 479.83-163.58 0-110.49-98.4-87.24-207.2-87.24 0-212.98-174.48-148.91-174.48-43.62z"/>
  <path fill="#fff"
    d="m4013.12 572.42c0-178.25 272.63-206.72 272.63 10.91 0 161.65-272.63 157.27-272.63-10.91zm130.86 305.35c252.92 0 431.55-306.65 228.23-522.67l-40.85-35.49c-299.84-225.9-660.69 196.66-403.13 457.65 51.62 52.31 133.32 100.5 215.75 100.5z"/>
  <path fill="#fff"
    d="m370.78 3822.17c42.92 0 87.24-35.57 87.24-87.24s-44.32-87.24-87.24-87.24c-106.99 0-106.99 174.48 0 174.48z"/>
  <path fill="#fff"
    d="m1046.9 3822.17c42.92 0 87.24-35.57 87.24-87.24s-44.32-87.24-87.24-87.24c-106.99 0-106.99 174.48 0 174.48z"/>
  <path fill="#fff"
    d="m708.84 3822.17c42.92 0 87.24-35.57 87.24-87.24s-44.32-87.24-87.24-87.24c-106.99 0-106.99 174.48 0 174.48z"/>
  <path fill="#fff"
    d="m3893.16 3680.41c0 161.19 163.58 95.23 163.58 32.71 0-151.28-163.58-102.4-163.58-32.71z"/>
  <path fill="#fff"
    d="m5092.73 3680.41c0 161.19 163.58 95.23 163.58 32.71 0-151.28-163.58-102.4-163.58-32.71z"/>
</svg>
