<svg clip-rule="evenodd" fill-rule="evenodd" height="179.986mm" image-rendering="optimizeQuality" shape-rendering="geometricPrecision" text-rendering="geometricPrecision" viewBox="0 0 3603.34 3604.45" width="179.931mm" xmlns="http://www.w3.org/2000/svg"><path d="m2905.24 3497.54c-88.21 0-171.99-23.39-233.81-48.26-35.92-14.44-61.1-28.49-92.9-48.13-135.64-83.81-272.68-274.76-272.68-453.63 0-152.63 10.89-270.43 107.68-400.03 21.36-28.6 40.3-49.63 64.85-76.18 85.88-92.89 257.56-172.53 391.59-172.53 180.94 0 298.02 34.15 428.5 149.72 168.31 149.08 238.92 368.27 185.08 590.78-10.02 41.39-20.66 73.66-37.65 110.43-75.91 164.25-232.45 291.37-409.57 330.84-32.57 7.26-97.36 16.98-131.1 16.98zm-2215.1-3497.54h106.71c219.92 0 521.03 236.07 571.17 451.29 82.44-39.55 296.06-70.51 423.09-70.51 128.08 0 238.11 12.42 354.14 40.75 33.79 8.25 59.82 21.88 97.16 22.72 11.2-48.08 60.31-128.29 88.52-165.33 103.24-135.55 301.17-278.91 482.65-278.91h155.69c84.6 2.93 157.94 16.59 260.47 70.39 158.18 83.01 256.93 202.05 328.95 362.1 9.22 20.5 13.89 33.52 20.55 57.01 11.69 41.25 19.85 87.03 24.11 134.69v153.19c-7.07 78.15-25.28 154.08-56.31 216.98-60.2 122.03-121.3 200.73-227.66 280.05-39.18 29.22-115.4 74.43-167.33 86.53 9.81 20.45 21.81 73 28.22 98.7 43.6 174.84 57.84 393.3 21.87 571.92-9.26 45.96-32.54 167.19-50.09 203.76 130.59 30.42 285.42 176.61 355.66 293.08 78.57 130.27 93.35 213.35 95.63 324.51v136.92c0 160.38-135.16 358.75-263.09 463.21-15.25 12.45-27.84 22.25-44.84 32.72-31.93 19.67-64.36 41.38-98.96 56.18-66.07 28.24-165.74 61.37-255.95 61.37-238.88 0-338.97-45.02-511.79-179.26-64.87-50.39-180.83-213.21-186.31-279.09-35.79 17.17-159.85 41.99-204.42 49.43-69.65 11.64-152.07 21.08-232.77 21.08-93.82 0-350.16-28.75-437.19-70.51-13.52 58.02-62.45 135.53-95.59 179.41-232.03 307.21-671.18 370.98-983.34 145.01-35.26-25.52-77.51-52-77.51-91.73 0-26.95 28.29-95.32 104.24-26.67 240.76 217.61 649.71 197.02 874.97-101.2 172.91-228.91 151.2-564.53-60.76-776.48-140.92-140.92-270.83-174.52-467.16-174.52-202.55 0-427.33 165.04-506.82 360.52-51.82 127.44-65.32 246.55-29.26 387.1 12.53 48.84 42.47 108.75 42.47 126.76 0 36.82-24.22 56.41-42.31 56.41-66.08 0-71.21-44.4-97.9-127.75-31.03-96.89-29.03-145.55-29.03-245.98 0-265.02 238.04-569.21 458.35-620.53-21.93-45.71-38.28-137.62-50.07-196.74-38.05-190.9-21.22-529.07 50.07-677.65-58.02-13.52-135.53-62.45-179.41-95.59-53.76-40.61-93.4-80.19-133.98-133.98-109.25-144.84-144.95-264.99-144.95-461.47 0-159.39 83.54-348.71 188.52-453.16 31.95-31.79 49.06-49.54 85.46-76.72 165.55-123.63 263.05-138.57 416.12-140.01zm2243.31 1297.47c-161.96 0-243.51-19.75-373.76-105.74-140.97-93.06-253.82-280.95-253.82-451.33 0-128.19.82-194.63 60.95-312.78 60.78-119.41 168.79-224.18 294.55-276.63 36.74-15.32 63.37-25.86 105.73-35.3 277.46-61.82 556.35 73.85 676.54 326.07 88.74 186.22 71.84 409.38-36.2 582.22-96.13 153.78-289.57 273.48-473.98 273.48zm-740.41-620.53c0 290.89 149.72 545.86 411.3 667.58 193.18 89.89 280.44 65.11 441.93 51.67 85 177.15 83.79 629.24 0 803.87-47.31-1.05-75.86-14.1-155.13-14.1-196.53 0-381.25 91.92-506.15 227.2-8.29 8.98-12.75 12.47-21.01 21.3-120.53 128.79-170.93 306.81-170.93 491.91 0 49.55 10.74 72.38 14.1 112.82-178.3 85.55-631.91 82.51-803.87 0 13.53-162.57 37.73-241.78-49.43-437.12-16.87-37.81-41.44-77.49-64.7-111.59-127.2-186.49-349.56-304.52-583.96-304.52-59.89 0-99.2 13.01-148.08 14.1-11.03-132.5-56.41-100.69-56.41-458.35 0-78.7 16.14-187.72 35.12-261.04 7.16-27.66 18.69-53.25 21.29-84.48 123.83 2.76 162.35 40.25 362.24-18.54 64.1-18.85 159.57-50.49 159.57-108.39 0-104.64-142.8-12.33-182.41.93-144.84 48.46-317.82 34.73-454.58-33.82-105.09-52.68-130.54-81.83-200.35-159.28-135.22-150.02-175.52-421.55-84.14-616.49 143.51-306.14 472.7-439.28 786.61-311.64 195.39 79.45 360.52 304.15 360.52 506.82 0 151.19-12.14 249.41-97.21 375.24-13.19 19.5-24.22 30.44-35.74 49.08-40.31 65.15 39.99 130.1 91.05 62.64 96.89-127.99 154.73-269.75 154.73-444.65 0-59.89-13.01-99.2-14.1-148.08 111.93-9.31 94.85-56.41 465.4-56.41 168.35 0 263.23 50.15 338.47 56.41-3.7 44.42-14.1 72.89-14.1 126.93z"/><path d="m1424.43 1593.63h197.44v275.01h-197.44zm225.65-105.77h-239.75c-63.63 0-98.72 66.59-98.72 141.03 0 227.89-35.07 352.57 155.13 352.57 9.28 39.82 14.35 175.26 13.96 225.79-.21 27.45 1.24 136.74 20.08 156.2 6.2 6.4 32.64 19.94 43.52 19.94 70.88 0 53.36-102.71 49.39-176.32-3.65-67.63-14.14-155.06-14.14-225.61h77.57c48.49 0 17.82-25.91 94.17-2.6 26.27 8.02 69.28 23.75 96.22 23.75 60.86 0 69.32-72.95 28.25-98.75-16.34-10.26-120.81-40.01-148.12-42.28v-260.91c85.73-1.91 323.66-106.67 401.93-148.08v557.07c-26.81-6.25-67.54-35.26-84.62-35.26-56.69 0-87.76 74.01-16.67 108.34 27.71 13.38 37 22.12 63.81 34.91 43.16 20.59 29.54 4.88 40.56 51.11 17.09 71.75 109.75 55.47 109.75-11.03v-853.23c0-57.77-85.32-91.17-108.26-9.53-6.45 22.96 2.43 29.23-44.5 54.22-104.65 55.73-236.92 112.46-353.39 140.7-30.94 7.5-46.97-2.05-86.18-2.05z"/><path d="m550.04 951.95c19.59-17.03 128.75-65.42 6.79-133.72-55.48-31.07-98.53-61.55-120.76-126.04-12.62-36.6-12.96-62.42-12.96-113.97 24.33 6.5 4.11-.22 23.25 12l76.31 43.56c64.9 24.34 88.71 29.05 161.34 29.05 107.2 0-.63-176.29 148.08-176.29 44.16 0 50.51 33.2 84.62 42.31 0 164.05-27.86 316.01-201.36 390.97-54.57 23.57-89.91 32.12-165.32 32.12zm84.62-401.93c-137.96-3.07-189-141.03-232.7-141.03-98.66 0-115.25 254.74-45.53 369.9 17.71 29.26 46.88 79.39 80.79 88.44l-105.29 21.63c-26.69 3.42-56.89 28.08-56.89 55.93 0 59.87 249.58 194.46 517.23 58.88 34.62-17.54 55.19-35.36 83.22-57.81 27.72-22.19 47.67-49.99 68.14-79.94 59.38-86.93 77.17-163.6 85.78-273.85 4.59-58.81 124.41-179.83 22.56-213.15-57.58-18.84-57.61 59.73-132.74 20.79-137.08-71.05-281.99 35.12-284.55 150.2z"/><path d="m2637.28 3130.86v-472.45c0-16.51 11.7-28.2 28.2-28.2h472.45c16.51 0 28.2 11.7 28.2 28.2v472.45c0 16.51-11.7 28.2-28.2 28.2h-472.45c-16.51 0-28.2-11.7-28.2-28.2zm-112.82-465.4v451.29c0 83.77 59.62 155.13 141.03 155.13h472.45c81.4 0 141.03-71.37 141.03-155.13v-451.29c0-86.88-71.65-148.08-162.18-148.08h-430.14c-45.2 0-90.23 17.93-114.87 40.26-23.87 21.64-47.31 65.11-47.31 107.82z"/><path d="m620.56 3032.14v-289.11c22.21 5.93 45.39 24.33 63.82 34.9 21.65 12.42 41.84 24.09 63.11 35.61l126.93 70.51c-10.2 13.92-219.74 140.13-253.85 148.08zm-105.77-359.63v430.14c0 40.19 37.11 70.51 77.57 70.51 16.04 0 292.2-160.45 339.82-189.03 29.85-17.91 90.31-43.81 90.31-85.97 0-74.68-99.89-113.24-190.39-162.18-27.51-14.88-212.02-126.93-225.65-126.93-36.01 0-91.67 2-91.67 63.46z"/><path d="m2799.47 493.6v141.03c-43.77 0-126.93-11.28-126.93 49.36 0 71.64 78.27 63.46 126.93 63.46v303.21c0 82.03 112.82 82.03 112.82 0v-303.21c35.67 0 81.65 4.6 107.21-12.66 49.22-33.24 25.21-100.16-29.65-100.16h-77.57c0-130.46-25.32-231.47 91.34-233.02 55.45-.74 120.2-.62 120.2-56.09 0-69.41-72.62-56.41-126.93-56.41-110.78 0-197.44 92.82-197.44 204.49z"/><path d="m2848.83 2905.21c0-88.39 105.77-71.82 105.77-14.1 0 49.54-50.8 72.99-86.33 44.02-6.41-5.23-19.45-24.06-19.45-29.91zm-105.77-28.21v35.26c0 79.18 79.11 144.75 155.71 146.97 79.69 2.31 161.61-66.71 161.61-146.97v-35.26c0-79.64-72.53-141.03-169.24-141.03-72.05 0-148.08 68.31-148.08 141.03z"/></svg>