<svg
  clip-rule="evenodd"
  fill-rule="evenodd"
  height="138.879mm"
  image-rendering="optimizeQuality"
  shape-rendering="geometricPrecision"
  text-rendering="geometricPrecision"
  viewBox="0 0 5306.43 5099.66"
  width="144.51mm"
  xmlns="http://www.w3.org/2000/svg">
  <path fill="#fff"
    d="m3834.73 4746.77c0-215.8 224.28-272.6 339.99-163.8 130.17 122.39 56.83 351.55-133.87 357.07-105.2 3.05-206.12-82.7-206.12-193.27zm1471.71-2224.04v72.27c-7.59 72.06-38.59 143.86-100.83 206.13-109.68 109.74-173.05 111.19-303.37 111.19-138.06 0-300.23-151.38-310.92-279.83h-404.2l-23.66 245.81c-66.29 390.2-128.38 550.64-317.82 884.42-9.71 17.1-13.62 28.3-25.74 46.81l-81.36 115.57c-20.87 27.84-34.66 53.46-56.76 77.97l-62.28 72.45c-31.6 35.24-30.6 25.48-56.78 72.68l282.37 277.29c240.46-161.02 559.67 26.38 559.67 321.29 0 324.61-435.59 475.42-638.49 234.29-178.98-212.69-62.13-370.36-45.54-441.57-32.45-48.45-135.66-140.84-183.96-189.15-140.96-140.96-229.48-183.98-119.35-290.36l184.94-219.26c432.03-602.47 551.04-1380.88 276.96-2081.94-126.81-324.37-216.2-413.8-402.94-654.21-32.75-42.17-108.02-95.44-108.02-151.08 0-81.4 278.75-283.88 352.38-393.83-9.29-39.89-22.66-46.81-35.06-89.31-9.06-31.06-16.76-72.32-16.76-107.61 0-99.12 53.05-196.73 102.08-250.3 88.51-96.7 187.42-112.44 302.12-112.44 153.88 0 331.65 164.03 331.65 362.74 0 279.53-317.92 472.81-562.21 308.38l-277.29 282.37c27.24 51.48 81.94 101.64 121.42 148.05 98.6 115.9 236.7 361.83 300.11 497.92 103.43 221.96 200.32 611.37 200.32 867.19h404.2c10.69-128.45 172.86-279.83 310.92-279.83h82.91c156.68 0 303.22 159.19 321.29 335.9zm-362.74 234.13c-271.09 0-271.09-414.56 0-414.56 267.32 0 267.32 414.56 0 414.56zm-1108.96-2383.75c0-293.55 404.2-266.36 404.2-20.73 0 301.94-404.2 267.29-404.2 20.73z"/>
  <path fill="#fff"
    d="m1927.73 3337.25c35.16-8.19 53.34-21.79 93.28-31.09 34.3 147.24 189.66 331.65 41.46 331.65-38.06 0-51.24-71.06-78.48-139.17-20.54-51.36-49.19-106.31-56.26-161.39zm-466.38-404.2c0-177.06 143.22-243.99 281.31-299.08 47.27-18.86 93.72-41.68 143.62-53.3 5.2 62.56 60.17 229.39 82.95 279.79 37.77 83.53 75.75 165.87 124.33 238.42-52.76 25.31-269.63 114.01-321.29 114.01-89.93 0-167.12-5.21-235.7-85.58-34.38-40.29-75.22-124.91-75.22-194.25zm580.39-424.93c98.74-8.21 136.22-97.4 190.16-203.68 23.8-46.89 40.34-86.14 65.62-131.3l75.87-131.41c0 209.59 166 662.74 285.78 864.64l110.07 180.13c19.02 27.46 31.45 34.26 39.44 64.2-138.56-32.28-377.4-145.1-466.39-145.1-31.13 0-66.86 22.52-103.64 31.09l-120.91-241.84c-27.73-61.68-76.01-205.65-76.01-286.74zm601.12-31.09c50.8-11.83 88.52-39.36 139.42-45.17 94.13-10.75 197.35 147.03-77.23 211l-62.18-165.82zm-1336.97 414.56c0 106.38-4.04 150.35 48 252.56 46.04 90.44 133.07 161.25 223.21 201.71 55.41 24.88 105.69 32.84 184.81 32.84 90.48 188.57 105.48 424.93 321.29 424.93 111.42 0 207.29-93.62 207.29-217.65 0-47.66-100.16-291.56-124.37-342.02 13.94-6.69 175-72.55 176.19-72.55 77.4 0 825.3 290.2 912.04 290.2 189.42 0 279.83-199.06 279.83-393.84 0-49.11-42.12-82.91-82.91-82.91-77.74 0-75.68 82.9-85.63 152.74-63.24 444.15-482.91-150.99-588.04-349.66 386.92-90.14 316.69-518.21 0-518.21-77.33 0-114.51 45.83-186.56 51.82-5.79-69.57-138.67-533.59-7.96-681.63 60.71-68.77 144.29-10.11 217 47.66 75.42 59.92 227.12 257.82 274.71 347.14 109.39 205.28 200.05 404.94 254.28 637.04 15.65 67.01 13.67 157.64 101.47 157.64 167.4 0-.65-396.38-37.04-491.53-49.69-129.95-105.16-255.69-172.22-366.71l-103.54-165.93c-110.65-163.63-277.65-354.25-495.6-354.25-149.94 0-202.96 145.91-255.61 252.23l-300.43 570.15c-22.63 45.11-32.52 70.28-76.98 88.85-267.68 111.78-536.42 158.48-645.58 390.83-13.94 29.66-37.64 100.91-37.64 138.55z"/>
  <path fill="#fff"
    d="m712.61 3515.95c41.38-169.35 120.53-380.74 157.97-541.45 37.36 27.37 107.57 326.44 128.26 389.95 9.26 28.43 37.56 113.83 37.56 138.63 0 45.15-121.97 153.77-155.46 176.19l-168.34-163.32zm-712.61-85.42v652.94c0 33.58 45.04 62.19 82.91 62.19h1606.44c22.51 0 44.87-20.48 55.24-38.04 31.04-52.62 17.31-358.88 17.31-449.07 0-163.62-165.82-134.58-165.82-31.09v352.38h-1440.62c0-169.76-16.43-532.89 32.06-672.71 20.38-58.77 64.15-131.56 104.92-174.91 99.33-105.59 252.57-157.71 401.95-157.71 0 83.75-155.46 512.73-155.46 570.03 0 54.43 179.95 192.7 233.91 263.57 114.39 150.24 177.29 35.17 281.71-69.24 193.29-193.27 188.26-147.54 84.21-472.86l-81.62-291.49c139.98 0 108.07-155.46 10.37-155.46-342.33 0-638.81-49.41-873.38 183.77-89.46 88.94-194.13 254.57-194.13 427.72z"/>
  <path fill="#fff"
    d="m880.95 2570.3c-178.52 0-298.41-71.73-393.85-155.45-179.86-157.78-176.18-344.39-176.18-549.31 82.05 0 213.03 64 451.83-4.19 70.12-20.02 127.73-40.24 184.92-74.19l161.29-108.18c68.16 45.64 114 143.8 342.02 196.92 0 245.67-28.69 351.6-138.95 493.26-81.1 104.2-250.16 201.14-431.07 201.14zm-424.93-1440.62c0 26.9 7.85 45.82 23.17 59.75 61.18 55.65 125.88-10.91 195.75-37.75 137.28-52.74 337.72-43.81 468.66 26.29 177.59 95.08 307.39 291.56 307.39 532.11-110.63-53.08-113.27-35.13-210.04-131.98-59.87-59.93-96.74-158.08-196.95-67.75-34.43 31.03-45.77 49.89-85.81 80.04-275.31 207.21-647.25 138.7-647.25 78.24 0-219.69 195.16-393.83-10.37-393.83-90.02 0-155.46 299.08-155.46 424.93 0 320.59-31.94 568.28 213.43 812.62 60.18 59.93 132.17 115.88 211.54 151.21 97.78 43.52 158.61 57.17 295.57 66.09 366.95 23.89 740.8-309.03 740.8-698.26 0-243.6 28.64-441.89-69.35-666.5-67.6-154.95-213.49-272.5-358.83-345.93-172.47-87.14-380.37-80.45-560.51-17.71-55.81 19.44-161.73 59.12-161.73 128.47z"/>
</svg>
