<svg clip-rule="evenodd" fill-rule="evenodd" height="135.45mm" image-rendering="optimizeQuality" shape-rendering="geometricPrecision" text-rendering="geometricPrecision" viewBox="0 0 1326.83 1326.83" width="135.45mm" xmlns="http://www.w3.org/2000/svg"><path d="m396.5 1039.18c0-10.61 2.94-44.06 15.55-44.06h191.77c12.61 0 15.55 33.44 15.55 44.06 0 36.43-31.21 96.52-45.82 122.63l-68.21 108.01c-1.69-6.33-10.93-19.89-15.05-26.42-31.96-50.76-93.8-153.28-93.8-204.22zm-15.55-173.63h253.96c13.42 0 50.54 71.47 54.42 88.11h-362.81c3.88-16.64 41-88.11 54.42-88.11zm580.49 88.11c-5.94 0-3.01-.88-10.37-2.59-6.19-26.55-2.59-188.11-2.59-228.05 0-12.79 28.51-17.9 28.51 7.77v204.73c0 10.47-5.64 18.14-15.55 18.14zm-922.56-18.14v-204.73c0-25.68 28.51-20.56 28.51-7.77 0 39.94 3.59 201.5-2.59 228.05-4.73 1.13-25.91 9.4-25.91-15.55zm795.58-269.51c6.95 4.65 25.69 29.84 31.84 38.13l31.49 41.07c14.32 17.54 9.23 16.94 9.23 60.74v72.56c-20.35-4.74-92.45-40.84-106.25-44.06 9.45-19.7 19.25-51.78 24.04-77.02l9.64-91.42zm-725.61 212.5c0-23.32 0-46.65 0-69.97 0-12.15-.03-24.27-.13-36.41-.23-26.06 13.3-30.84 39.75-66.5 6.36-8.57 25.87-34.87 32.95-39.61 0 12.08 1.68 10.87 2.44 20.88 3.51 46.1 6.87 85.13 23.82 129.07 2.69 6.98 5.52 10.29 7.43 18.49-7.11 1.66-18.81 7.35-25.84 10.44-16.74 7.34-66.1 30.28-80.41 33.62zm111.43-222.87c0-75.08 17.54-152.47 36.61-209.58 4.58-13.71 61.34-166.18 80.01-166.18h342.07c17.44 0 75.03 151.14 79.36 164.24 38.13 115.23 53.79 231.74 14.92 349.86-3.17 9.63-9.1 32.7-19.13 32.7h-492.38c-14.16 0-28.98-65.95-30.91-75.34-5.56-27.05-10.55-63.92-10.55-95.7zm287.65-606.4c14.88 9.97 27.55 28.78 40.86 42.07 5.15 5.14 4.99 5.49 9.49 11.24l29.4 35.39c16.26 19.84 59.13 78.87 70.56 100.47h-300.61c23.21-43.86 57.82-82.82 88.11-121.8l20.04-24.02c13.01-13.4 27.87-33.79 42.16-43.36zm-406.86 650.46c-6.01-8.98-7.59-12.57-17.51-18.77-33.48-20.95-83.56-1.69-83.56 42.09v220.27c0 49.15 64.51 67.95 97.8 27.84 10.69-12.88 11.04-26.27 11.04-48.57 21.85-5.09 96.28-39.93 121.78-51.85 8.84-4.13 16.44-6.31 30-4.09 14.76 2.41 45.24-1.06 65.91-1.06-11.81 17.63-49.24 83.6-49.24 108.84 0 30.29 57.85 20.73 85.52 20.73-13.16 56.49-6.05 76.64 16.27 128.86l37.28 74.15c20.76 40.93 46.77 81.18 73.29 118.48 9.16 12.88 27.4 12.88 36.56 0 30.37-42.71 56.45-89.89 82.67-135.01 13.55-23.32 28.89-57.18 38.63-83.17 14.24-38.02 15.3-61.43 5.54-103.3 28.36 0 85.52 9.27 85.52-20.73 0-25.25-37.43-91.21-49.24-108.84 72.71 0 65.03-8.41 120.91 16.43 23.93 10.64 73.84 35.24 96.77 40.58 0 24.77-.33 33.65 10.97 48.64 28.95 38.39 97.87 23.32 97.87-27.9v-181.4h98.48c20.9 0 21.29-36.59-.5-40.96-17.84-3.58-77.57-.5-97.97-.5-3.14-37.69-46.47-59.45-78.68-42.4-11.09 5.87-16.33 15.33-24.98 21.67-15.08-28.5-67.25-80.14-79.21-104.78-5.4-11.13-10.32-61.75-13.43-77.27l-18.79-74.5 69.36-67.99c19.77 13.5 106.72 117.23 127.59 117.23 18.12 0 63.01-51.35 78.39-66.73 24.07-24.07 193.34-198.16 211.85-210.56v505.34c-47.4 0-82.93-10.02-82.93 25.91 0 8.4 11.26 15.55 20.73 15.55h80.34c12.54 0 20.73-8.2 20.73-20.73v-580.49c0-12.14-14.22-15.55-23.32-15.55-8.58 0-32.63 28.74-39.52 35.63-13.16 13.16-24.42 24.42-37.58 37.58l-151.6 151.6c-18.99 18.99-57.6 62.74-77.1 75.8-8.57-12.79-37.04-38.34-49.89-51.18-17.91-17.91-33.97-33.88-51.83-51.83-8.79-8.83-17.09-21.5-30.88-16.82-15.83 5.37-62.05 63.82-79.9 75.77-5.01-21.5-16.43-45.01-25.91-64.79 8.36-2.23 40.11-37.49 48.24-45.05l63.19-61.2c19.86 13.3 105.91 116.62 126.98 116.62 9.24 0 17.89-6.88 24.67-14.2l77.81-77.68c.4-.36 1-.83 1.4-1.19l29.6-30.01c3.2-3.37 1.88-2.01 5.12-5.24l7.97-7.58c.38-.37.95-.89 1.33-1.26 4.45-4.47 3.74-4.59 7.25-8.3l43.7-44.41c10.15-10.67 21.36-17.53 30.85-28.75l31.9-32.89c3.23-3.36 5.48-5.06 9.41-8.73 6.32-5.9 10.53-14.72 19.23-17.05 0 22.56-4.38 51.83 18.14 51.83 12.54 0 20.73-8.2 20.73-20.73v-85.52c0-6.24-9.31-15.55-15.55-15.55h-88.11c-18.49 0-23.29 19.26-15.75 31.11 7.45 11.71 32.88 7.76 52.04 7.76-12.26 18.31-191.75 193.04-226.11 227.4-9.15 9.15-23.39 28.48-35.63 31.75-24.35-16.31-69.25-67.96-93.94-92.65-9.24-9.24-20.1-26.49-35.26-25.14-16.14 1.44-109.2 108.23-127.35 120.38-15.2-28.73-29.81-57.25-47.7-84.47-5.18-7.88-7.65-12.88-12.93-20.76-5.12-7.65-8.39-12.52-13.48-20.2l-41.7-56.78c-26.95-33-48.75-58.8-79.2-89.25-37.77-37.77-38.68-37.77-76.45 0-11.64 11.64-24.34 22.93-34.97 35l-31.05 36.33c-55.1 63.03-99.05 133.78-136.81 210.45l-20.7 46.68c-6.66 16.78-12.71 32.43-19.63 50.34-19.58 50.64-34.42 110.68-39.93 167.39-2.21 22.72-11.02 29.21-23.72 46.25-8.54 11.47-50.97 70.14-61.84 78.1z"/><path d="m430.18 380.95c0 8.18 12.11 20.73 18.14 20.73 11.88 0 94.17-39.49 170.39 36.93 32.6 32.68 45.33 57.92 48.66 109.14 5.35 82.31-67.69 164.9-151.67 164.9-42.66 0-68.83-5.63-101.84-30.33-48.08-35.98-75.25-99.96-62.54-162.55 10.21-50.28 37.39-67.89 37.39-79.23 0-15.57-14.87-26.51-28.14-20.62-21.3 9.45-52.19 79.61-52.19 119.1 0 65.36 18.76 116.1 57.63 154.87 60.8 60.64 140.3 75.38 220.79 43.22 45.2-18.06 82.7-55.09 102.52-99.61 44.67-100.35 1.28-221.98-94.14-266.08-38.11-17.61-61.11-18.98-102.81-18.98-22.27 0-62.2 7.82-62.2 28.51z"/><path d="m510.52 645.28c-91.67 0-123.07-103.84-68.1-158.81 60.53-60.53 156.34-14.24 158.33 63.14 1.33 51.8-39.57 95.67-90.23 95.67zm-134.76-98.48c0 62.7 26.95 101.82 77.7 127.03 81.28 40.37 186.63-19.89 186.63-121.85 0-122.21-145.07-174.48-226.12-93.96-19.57 19.45-38.21 50.89-38.21 88.77z"/><path d="m751.53 1135.06v176.22c0 8.84 8.69 14.66 17.85 15.55h4.82c8.53-.85 16.21-6.36 16.21-18.14v-178.81c0-17.66-38.87-24.6-38.87 5.18z"/><path d="m225.46 1129.88v178.81c0 10.52 6.34 16.51 13.91 18.14h8.76c8.53-1.78 16.21-8.76 16.21-20.73v-171.04c0-29.13-38.87-24.33-38.87-5.18z"/><path d="m145.12 1023.63v132.16c0 17.66 38.87 24.6 38.87-5.18v-126.98c0-20.66-38.87-20.66-38.87 0z"/><path d="m831.86 1023.63v126.98c0 27.77 38.87 27.43 38.87 0v-126.98c0-20.66-38.87-20.66-38.87 0z"/></svg>