<svg clip-rule="evenodd" fill-rule="evenodd" height="493.848" image-rendering="optimizeQuality" shape-rendering="geometricPrecision" text-rendering="geometricPrecision" viewBox="0 0 1920.14 1852.3" width="511.937" xmlns="http://www.w3.org/2000/svg"><path d="m1151.34 708.89c14.87-63.84 80.08-112.51 142.51-112.51 16.84 0 75.01 11.77 75.01 22.5 0 83.09-67.65 146.26-153.76 146.26-18.85 0-16.79-3.37-33.75-3.75l31.58-20.92c23.22-13.62 99.67-49.83 99.67-69.09 0-66.96-69.75-15.45-96.76.75-21.1 12.65-43.57 25.68-64.5 36.76zm-543.79-48.75c0 30.39 21.96 37.23 61.29 58.72 13.58 7.42 23.37 12.99 36.03 20.23l33.94 22.31c-14.79.33-16.5 3.75-45 3.75-70.88 0-142.51-65.4-142.51-142.51 0-19.54 56.6-26.25 71.25-26.25 72.43 0 132.49 53.38 146.26 112.51-29.66-15.69-110.67-71.25-138.76-71.25-9.03 0-22.5 13.47-22.5 22.5zm67.51-375.03c0 80.47 35.58 153.99 77.76 196.01 63.56 63.3 99.8 70.97 177.26 89.01v251.27c-16.28-10.9-44.98-47.21-97.51-75.01 0-113.16-97.46-206.26-195.01-206.26-43.04 0-106.67 6.5-132.02 40.49-37.15 49.83 6.19 139.33 48.57 181.72 112.73 112.73 243.42 36.56 248.46 36.56 18.07 0 127.51 91.5 127.51 123.76v71.25c-45.09 0-71.45 3.69-114.01 13.5-29.46 6.79-73.51 11.38-73.51 42.75 0 48.74 73.62 17.1 85.9 14.65 168.68-33.72 322.78-8.38 463.15 85.1 32.52 21.66 129.75 93.61 129.75 129.02 0 31.18-74.79 71.33-101.06 86.45-58.47 33.67-126.18 60.92-193.71 76.31-203.15 46.3-428.33 3.23-593.02-118.78-55.96-41.46-45.2-65.12 49.32-139.91 36.31-28.73 99.67-60.13 99.67-80.34 0-21.06-12.94-30-30-30-27.45 0-100.27 60.57-124.88 81.38-26.94 22.79-56.05 48.11-74.82 78.94-9.38 15.4-10.31 29.48-10.31 49.69 0 65.74 82.07 106.38 138.57 138.95 21.8 12.57 38.27 19.29 62.7 31.06 233.47 112.52 542.65 74.7 749.07-63.5 53.36-35.72 84.75-52.3 84.75-117.76 0-67.04-137.6-163.48-190.07-192.46-87.92-48.56-191.23-85.06-297.47-85.06 0-94.92-9.92-77.66 53.43-141.58 77.49-78.2 78.73-48.19 120.57-36.17 101.65 29.21 210.04-29.77 244.52-112.53 9.56-22.95 20.26-54.42 20.26-84.75 0-65.03-87.52-78.76-146.26-78.76-99.78 0-195.01 94.45-195.01 206.26-52.49 27.77-81.54 64.31-97.51 75.01v-251.27c18.26-4.26 34.42-6.01 52.08-11.68 50-16.05 88.78-39.44 125.2-77.31 9.08-9.44 20.94-24.62 28.32-35.44 69.02-101.29 59.72-269.35 8.17-269.35-51.21 0-18.75 58.94-18.75 93.76 0 72.9-13.46 123.94-62.74 173.52-89.57 90.1-235.07 90-324.54 0-78.89-79.36-86.3-209.71-11.43-302.22 75.2-92.93 209.67-107.7 304.95-40.05 20.17 14.32 22.44 22.49 41.26 22.49 15.76 0 57.42-23.45-3.72-67.54-198.19-142.92-453.82 5.57-453.82 228.8z"/><path d="m885.07 1721.47c0-21.64 7.93-36.83 18.03-49.48 59.01-73.87 183.74 19.89 110.55 99.3-42.02 45.6-128.58 14.45-128.58-49.83zm630.05-285.02c0 29.25 10 37.5 48.75 37.5-23.65 32.28-165.38 111.31-210.07 131.21-68.79 30.64-119.04 45.38-192.67 62.35-19.15 4.41-54.39 12.28-73.55 12.7-7.86-14.86-5.22-15.65-17.89-34.62-74.19-111.13-240.88-50.09-240.88 64.62 0 160.63 185.57 183.64 245.01 76.25 3.51-6.34 7.78-14.53 9.97-20.03 2.51-6.33 5.16-20.77 8.93-24.83 7.39-7.98 23.21-5.71 49.54-10.46 151.47-27.33 268.9-79.67 395.37-163.42 25.22-16.7 46.53-35.97 71.24-52.52 0 11.24-5.49 72.33 38.09 57.29 30.5-10.53 17.94-42.8 18.16-79.79.24-40.81 3.37-66.94-34.11-70.89l-97.14-7.87c-3.69 0-18.75 14.4-18.75 22.5z"/><path d="m56.25 1260.18c0-100.22 150.01-97.68 150.01-3.75 0 38.69-29.74 75.01-67.51 75.01-33.57 0-62.38-9.19-75.53-44.48-.8-2.13-6.97-24.21-6.97-26.78zm-56.25-15v22.5c0 64.29 59.35 123.76 135.01 123.76 17.79 0 27.09-4.2 41.25-7.5 19.79 13.25 29.47 31.32 45.87 47.89 81.83 82.71 170.14 152.16 275.41 204.63 26.19 13.06 107.44 52.6 136.26 55v7.5c-50.21 13.41-38.54 67.51-7.5 67.51 7.94 0 105.01-57.51 105.01-75.01 0-30.24-11.1-40.93-26.25-71.26-7.96-15.93-19.27-48.75-41.25-48.75-15.45 0-30 14.56-30 30 0 4.3 9.06 24.36 11.25 33.75-63.65-14.83-179.45-82.28-231.77-117-50.28-33.37-151.68-118.99-184.51-168.02 31.7-47.35 33.75-43.28 33.75-101.26 0-95.22-126.1-169.17-220.29-89.03-16.76 14.27-42.23 55.84-42.23 85.28z"/><path d="m930.07 150.1c-52.98 12.34-103.02 102-3.71 146.22 40.95 18.24 62.72 14.81 78.72 45.04-13.22 24.98-18.3 26.25-45 26.25-13.17 0-23.09-3.6-32.68-8.57-14.57-7.56-12.47-11.19-23.05-18.4-18.9-12.88-45.52-2.1-45.52 23.22 0 27.3 44.46 54.03 71.25 56.25 0 37.79 2.09 48.75 37.5 48.75 19.35 0 22.5-23.8 22.5-45 76.83-17.9 103.47-112.79 21.33-156.34-46.59-24.7-81.34-20.05-81.34-46.17 0-13.38 16.92-18.75 30-18.75 36.6 0 36.64 22.5 71.26 22.5 17.55 0 22.5-19.23 22.5-33.75 0-18.36-42.79-40.79-63.76-41.25 0-22.38.51-48.75-30-48.75-27.49 0-30 20.9-30 48.75z"/><path d="m1800.14 1331.44h-18.75c-83.48 0-98.01-146.26 11.25-146.26 53.81 0 95.22 68.03 53.27 120.77-8.13 10.21-29.09 25.49-45.77 25.49zm-142.51-82.51c0 44.95 2.59 69.89 40.21 106.05 85.13 81.81 222.31 14.27 222.31-87.29 0-41.64-8.88-77.06-40.23-106.03-86.05-79.5-222.29-14.94-222.29 87.28z"/></svg>