<svg clip-rule="evenodd" fill-rule="evenodd" height="178.695mm" image-rendering="optimizeQuality" shape-rendering="geometricPrecision" text-rendering="geometricPrecision" viewBox="0 0 2880.52 2850.14" width="180.6mm" xmlns="http://www.w3.org/2000/svg"><path d="m1862.21 936.35c15.52 11.37 9.6 7.84 16.45 28.56 4.16 12.57 7.39 23.28 10.97 34.04 13.43 40.39 68.23 195.6 68.23 218.7 0 7.72-11.74 13.44-16.88 16.88-26.67-7.12-21.18-15.63-37.26-64.01l-51.05-151.9c-14.68-43.13 6.07-40.47 9.55-82.27zm1018.31 1354.37v52.19c-4.26 89.29-31.44 175.66-94.76 254-155.43 192.29-493.39 252.28-760.4 252.28-258.61 0-580.31 13.85-813.67-63.99-101.79-33.95-266.22-115.42-317.16-211.68-189.05 0-352.79-7.38-519.31-71.42-26.12-10.04-45.61-13.11-51.45-44.18-4.96-26.42 12.51-47.55 41.91-47.55 17.32 0 221.56 73.14 472.58 73.14-3.11-37.32-20.24-72.87-22.52-112.5-10.85-188.32 55.12-363.38 136.92-526.99 44.95-89.9 94.75-173.35 146.77-258.3 80.16-130.89 330.92-471.84 380.2-564.97-70.45-105.22-210.99-279.61-236.29-388.19h-101.27c6.22 74.73 90.02 227.01 90.02 298.18 0 121-146.87 161.52-204.61 58.34-7.25-12.95-35.98-104.33-37.31-120.22-14.22 10.42-12.58 16.57-19.1 37.16-17.63 55.61-37.89 149.86-77.72 186.7-61.29 56.7-178.85 21-178.85-71.96 0-96.89 110.67-305.2 112.52-388.19-16.45 23.67-28.24 64.96-43.2 91.82l-425.57 637.74c-50.4 84.84-97.43 160.92-142.58 251.24-77.07 154.13-125.65 270.4-125.65 465.08 0 113.62 64.54 189.7 144.01 249.81 41.75 31.58 30.86 87.75-20.24 87.75-17.95 0-70.46-45.06-83.09-57.56-100.92-99.81-130.69-190.25-130.69-341.89 0-295.04 269.4-683.43 428.76-921.48l219.36-320.74c36.01-53.98 66.47-111.44 94.52-169.9-88.11-59-70.37-184.17 28.13-236.29-18.93-81.24-78.76-164.21-78.76-253.17 0-132.81 182.17-124.32 269.44-95.03 64.85 21.77 44.99 47.37 110.35 13.5 66.64-34.54 192.35-51.23 258.62-5.51 75.81 52.29 34.52 168.04 7.04 231.77-12.93 29.99-36.63 79.17-43.45 108.45 132.4 70.06 83.2 217.46 33.76 230.67 1.7 76.31 184.31 290.38 196.91 337.56 12.66-9.28 28.13-34.74 28.13-56.26 0-8.63-50.63-37.01-50.63-95.64 0-72.04 23.64-108.51 84.39-140.65-19.81-85.03-144.26-260.1-39.72-337.9 58.66-43.65 166.47-31.76 230.39-10.31 32.6 10.94 40.94 18.76 68.12 33.14 20.9-5.58 45.58-25.57 72.32-34.57 84.09-28.32 270.87-35.26 270.87 90.83 0 98.52-58.46 171.63-78.76 258.8 26.29 13.91 41.81 21.35 59.62 47.27 29.22 42.51 31.14 102.26 6.25 148-6.8 12.5-32.12 38.25-32.12 41.02 0 64.13 169.71 284.91 223.92 366.81 25.62 38.71 99.35 108.06 61.68 149.46-35.03 38.51-72.82-8.23-90.96-35.79l-87.73-126.06c-47.73-67.21-185.52-256.83-191.3-326.29h-106.89c12.9 26.89 95.64 277.5 95.64 303.8 0 95.29-99.61 139.34-173.63 89.24-53.54-36.23-45.65-131.93-79.54-156.76-1.97 23.62-16.63 58.29-24.63 82.27-9.16 27.48-17.64 51.8-24.72 76.55-35.55 124.24-180.94 119.35-212.66 18.73-16.12-51.14 8.63-94.16 23.66-140.21 16.02-49.04 27.55-88.49 43.56-136.48 10.86-32.56 40.46-107.97 42.89-137.15l-12.19 21.56c-49.16 113.74-124.22 210.85-192.56 313.78-181.1 272.76-394.07 537.63-496.46 853.79-69.91 215.87-62.47 408.84 148.04 534.25 171.85 102.37 401.29 127.64 615.05 127.58 19.73-.01 42.57-1.07 61.91-.03 25.02 1.35 26.99 5.51 56.01 5.88 46.77.59 79.87-5.6 118.15-6.08 179.98-2.22 302.17-3.73 449.19-40.27 108.85-27.05 252.35-84.75 322.65-172.44 40.16-50.09 70.06-102.78 77.13-170.49 7.33-70.22-1.16-146.91-17.15-211.88-15.24-61.91-39.24-126.27-64.54-183.01-51.62-115.81-108.49-214.72-172.46-322.63-15.81-26.66-30.81-50.82-47.74-76.04-12.18-18.14-40.52-53.15-40.52-77.62 0-43.5 57.86-58.66 91.28-6.89 109.57 169.76 223.55 350.09 289.24 543.41 27.92 82.18 48.9 166.71 52.69 249.63zm-1243.35-983.06c-42.04 0-6.71-65.05.71-89.3l100.55-310.15h39.38c-1.98 23.84-83.63 265.16-97.77 307.3-6.85 20.41-10.26 30.33-15.82 51.69-3.94 15.11-7.23 40.45-27.06 40.45zm421.95-489.46h-421.95c-61.89 0-61.89-95.64 0-95.64h421.95c60.8 0 60.8 95.64 0 95.64zm-1001.43-157.53c6.81 81.8 123.75 298.18 67.51 298.18-25.84 0-46.24-96.46-62.6-145.56-20.8-62.42-36.55-77.72-24.41-115.34 6.38-19.76 5.93-27.33 19.5-37.28zm-236.29 371.32c-37.05 0-4.76-67 9.22-114.55 23.42-79.61 74.73-210.57 92.04-284.9h45.01l-116.87 355.71c-5.17 19.86-7.06 43.73-29.4 43.73zm421.95-489.46h-421.95c-60.8 0-60.8-95.64 0-95.64h421.95c63.52 0 63.52 95.64 0 95.64zm669.49-151.9c46.41-10.81 17.23-13.9 94.71-23.7 125.01-15.8 101.46 47.51 53.49 155.02-15.73 35.26-32.3 71.96-41.31 110.6h-343.19c-15.87-68.14-82.72-172.54-84.39-247.54 30.17-20.21 40.93-26.11 106.67-16.73 69.65 9.94 130.93 46.75 161.63 108.5 31.12 62.62 8.77 88.27 74.89 88.27 15.9 0 33.76-23.46 33.76-39.38 0-14.91-17.13-61.14-22.46-73.18l-33.8-61.85zm-810.14-275.67c36.67-8.54 123.64-47.16 185.66-5.63-1.4 62.77-50.15 151.33-73.16 213.77-4.22 11.46-6.19 23.28-11.23 33.78h-343.19c-22.59-96.97-135.35-264.42-45.01-264.42 89.55 0 163.82 3.49 220.67 94.38 26.91 43.02 26.15 73.59 39.35 90.08 25.98 32.45 77.53 11.2 77.53-26.93 0-55.93-45.74-96.9-50.63-135.02z"/><path d="m1890.34 2337.22v-213.79c41.21 21.8 73.14 50.22 73.14 112.52 0 48.36-28.91 97.59-73.14 101.27zm-168.78-427.58v-16.88c0-50.36 38.31-80.56 84.39-84.39v185.66c-35.41-8.25-84.39-42.41-84.39-84.39zm84.39-180.03c-171.05 14.23-217.7 197.32-116.93 296.96 37.58 37.15 72.05 39.36 116.93 63.11v258.8c-19.51-9.36-42.08-4.15-82.01-30.51-25.36-16.74-42.43-41.85-69.89-48.25-16.3 8.63-33.76 21.31-33.76 45.01 0 64.72 112.53 112.52 185.66 112.52 0 31.48-10.75 95.64 39.38 95.64 50 0 45.01-69.68 45.01-101.27 148.35-3.3 237.42-258.76 54.04-369.1-67.89-40.85-54.04 36.1-54.04-244.14 59.61 0 135.02 79.91 135.02-22.5 0-36.4-90.34-56.26-135.02-56.26 0-44.23 4.29-90.02-50.63-90.02-16.13 0-29.48 18.31-32.44 29.45-3.08 11.62-1.32 46.45-1.32 60.57z"/></svg>