<svg clip-rule="evenodd" fill-rule="evenodd" height="134.391mm" image-rendering="optimizeQuality" shape-rendering="geometricPrecision" text-rendering="geometricPrecision" viewBox="0 0 3099.96 3075.74" width="135.45mm" xmlns="http://www.w3.org/2000/svg"><path d="m90.82 2930.43v-714.44c0-29.28 17.19-54.49 48.44-54.49h248.24c36.09 0 48.44 24.44 48.44 60.55v708.39c0 37.17-28.82 54.49-66.6 54.49h-211.91c-37.78 0-66.6-17.33-66.6-54.49zm3009.14-492.37v37.54c-3.65 43.16-20.11 87.47-53.53 128.85-58.51 72.46-166.95 88-253.05 116.28-28.34 9.31-115.96 40.17-141.47 40.17-26.14 0-96.31-62.56 24.97-102.18 79.77-26.06 185.01-51.1 259.78-85.34 115.14-52.73 79.3-254.47-66.78-254.47-28.54 0-146.02 43.61-176.35 53.72l-687.1 227.15c-86.07 28.77-97.23 18-190.22 9.92-67.97-5.9-138.85-12.12-208.31-21.77-38.01-5.28-66.9-5.07-105.06-9.97-71.94-9.24-70.44-95.57-13.41-95.57 68.52 0 154.74 12.6 220.52 21.66 66.16 9.12 149.11 20.72 215.41 20.72 90.45 0 123.31-149.42 24.37-187.85-34.04-13.22-584.65-118.58-675.71-135.61-38.87-7.27-76.14-15.6-117.6-15.6-106.42 0-250.95 197.97-447.53 187.57-22.39-1.18-75.01-7.64-97.04-12.34-25.83-5.51-56.99-17.19-85.11-17.81v441.99c217.46 0 364.66-51.38 574.48 18.87 331.21 110.88 400.62 213.84 752.8 115.66 106.29-29.63 550.1-195.07 610.19-195.07 14.1 0 42.38 29.32 42.38 48.44 0 49.78-137.35 77.81-201.13 95.55-111.72 31.08-222.92 72.03-330.91 111.07-33.61 12.15-73.51 25.56-109.73 35.58-235.69 65.23-301.59 54.66-518.39-20.52-113.15-39.24-251.25-104.73-363.85-126.58-76.42-14.83-226.53-4.32-304.17 2.08l-151.68 11.79v66.6c0 63.34-63.81 127.15-127.15 127.15h-272.46c-63.35 0-127.15-63.8-127.15-127.15v-750.77c0-90.27 81.99-133.2 163.48-133.2 84.33 0 267.43-20.14 325.37 43.96 36.02 39.85 37.91 78.1 37.91 131.62 44.05 21.13 110.77 25.46 157.42 36.33 0-98.57 3.21-133.8 62.89-179.29 75.28-57.37 131.54 11.08 131.08-105.05-.31-78.78-.23-157.57-.23-236.36 0-34.01-10.78-148.78 9.88-171.76 27.32-30.38 80.94-13.81 80.94 32.5v423.82c0 59.56-48.13 101.53-95.79 116.12-69.2 21.2-97.96-12.58-97.96 113.95 125.88-29.33 187.12-116.59 304.33-161.87 77.81-30.07 107.6-13.48 190.42.13 191.91 31.54 393.72 73.25 584.46 111.82 74.26 15.01 122.81 15.15 176.03 54.04 53.24 38.9 87.85 122.14 70.71 195.69 36.56-17.54 423.86-147.84 466.2-151.36 0-44.7 6.92-107-11.83-133.48-33.8-47.74-139.93-.55-173.62-117-19.03-65.8-8.3-614.75-8.3-712.2 0-95.05 7.54-200.22-15.86-274.76-24.5-78.06-61.71-121.37-112.68-171.88-26.57-26.33-322.93-219.36-355.83-219.36h-441.99c-19.99 0-273.46 165.98-304 186.42-300.8 201.33-92.04 576.46-222.75 576.46-17.13 0-42.38-19.22-42.38-36.33 0-173.53-20.78-305.47 62.58-458.12 47.83-87.6 120.87-145.79 204.11-195.49 28.67-17.12 52.43-32.74 82.59-50.61 29.23-17.33 53.76-33.3 81.78-51.42 20.03-12.95 71.47-28.86 71.47-55.68 0-138.98 16.51-112.21-34.87-158.88-80.96-73.53-170.99-211.66-170.99-325.49 0-60.73 60.36-121.09 121.09-121.09h750.77c66.56 0 127.15 66.63 127.15 133.2 0 80.13-83.14 208.18-134.05 271.61-13.81 17.21-12.44 19.46-31.89 34.71-16.21 12.71-22.44 22.01-39.93 26.68v157.42c29.7 6.92 264.96 156.33 301.09 183.27 91.68 68.37 158.8 161.28 189.52 288.8 23.93 99.36 11.92 790.5 11.92 950.76 40.97 27.44 37.85 13.31 82.03 26.96 20.42 6.31 55.54 27.71 67.76 41.22 13.85 15.31 32.05 48.91 38.27 70.72 7.18 25.2 5.69 63.37 5.69 97.24 107.62-25.07 118.86-54.49 236.13-54.49 96.88 0 190.38 96.5 199.8 209.96zm-1628.69-1941.58h399.6v102.93h-399.6zm-145.31-405.66h702.34c124.3 0-29.87 214.96-63.02 257.87-8.93 11.56-51.22 50.91-64.13 50.91h-454.1c-18.69 0-61.9-45.3-74.14-59.07-46.07-51.85-74.96-113.93-98.08-180.89-15.25-44.16-2.83-68.83 51.12-68.83z"/><path d="m1713.46 1810.33v-217.97c101.35 23.61 121.6 153.62 0 217.97zm-145.31-435.93c0-45.09 24.9-69.11 54.49-84.76v157.42c-32.45-17.17-54.49-22.14-54.49-72.66zm54.49-181.64c-124.09 10.32-201.97 195.63-107.77 295.46 17.01 18.03 78.27 59.3 107.77 61.76v266.4c-63.12-1.41-87.73-42.38-121.09-42.38-77.27 0-73.26 123.08 121.09 139.26 0 60.61-4.69 90.82 54.49 90.82 45.97 0 36.33-74.47 36.33-96.87 86.67-7.21 175.58-108.98 175.58-205.86 0-163.59-101.69-176.46-175.58-211.91v-205.86c34.29 7.99 57.27 36.33 84.76 36.33 51.7 0 61.05-57.15 25.56-86.1-30.6-24.96-66.82-36.97-110.33-47.1 0-66.59 2-84.76-54.49-84.76-46.15 0-36.33 76.72-36.33 90.82z"/></svg>