<svg
  clip-rule="evenodd"
  fill-rule="evenodd"
  height="461.941"
  image-rendering="optimizeQuality"
  shape-rendering="geometricPrecision"
  text-rendering="geometricPrecision"
  viewBox="0 0 6612.1 5966.39"
  width="511.937"
  xmlns="http://www.w3.org/2000/svg">
  <path fill="#fff"
    d="m193.72 5656.45c0-104.2-28.65-335.77 77.49-335.77h6069.71c106.13 0 77.49 231.57 77.49 335.77 0 62.46-40.85 103.31-103.31 103.31h-6018.05c-62.47 0-103.31-40.85-103.31-103.31zm6418.39-271.2v286.67c-14.52 166.96-83.66 294.48-361.6 294.48h-5888.91c-277.47 0-346.92-127.35-361.6-293.58v-287.56c0-264.56 273.73-271.2 439.09-271.2 0-113.29 12.29-183.65 12.66-284.37.34-93.46 10.34-180.55 103.57-180.55 103.46 0 114.49 80.92 101.47 191.78-5.97 50.8-10.3 75.32-10.73 144.33-.42 67.8-12 72.53-13.25 128.8h619.88v-374.52c0-203.88 206.63-167.69 206.63-38.74v413.26h878.17c48.09 0 41.71-60.05 61.04-171.41l66.98-385.03c59.77-299.52 12.88-162.8-102.19-334.65-83.4 19.43-55 12.92-154.97 12.92-224.39 0-302.01-307.83-374.65-490.62l-77.35-206.76c-78.65 0-337.01 63.97-433.68 82.89-278.76 54.53-489.08 170.35-588.44 444.69-45.12 124.58-40.27 288.42-56.22 331.21-31.02 83.24-187.26 86.8-187.26-32.28 0-350.95 109.62-584.18 363.17-773.29 69.09-51.53 139.98-87.06 229.09-119.59 96.71-35.3 702.22-151.45 859.58-186.47 55.55-12.37 101.53-20.85 150.66-30.14 49.79-9.42 115.09-3.79 115.09-52.79 0-351.88 26.05-271.59-77.7-348.48-177.27-131.38-356.27-429.39-361.38-658.84-125.6-10.45-245.37-123.35-245.37-258.29v-1097.72c0-122.66 52.69-283.09 99.07-365.85 65.2-116.32 111.67-162.24 200.93-251.08 171.49-170.69 444.11-222.5 694.41-222.5h1226.85c492.19 0 266.41 453.31 317.69 650.7 20.37 78.38 43.91 131.83 43.91 227.47v1084.8c0 87.86-110.56 221.23-245.37 232.46 0 283.86-289.79 670.42-439.09 710.28v322.86c250.33 58.32 501.17 102.93 758.79 158.11 304.43 65.21 447.65 78.66 663.81 253.1 361.01 291.33 277.02 713.79 328.28 1053.55l31.28 420.72h387.43v-1472.23c0-39.97-171.66-196.13-206.63-219.54-45.11 10.51-43.49 25.83-90.4 25.83-155.87 0-157.96 8.63-276.87-84.73l-271.2-271.2c-84.45-107.55-84.73-111.02-84.73-251.04 0-197.44 232.53-349.56 426.33-271.37 70.48 28.44 94.49 48.71 145.19 100.19 165.73 168.28 424.57 337.59 293.74 610.26 58.67 39.29 271.2 239.65 271.2 309.94v1523.88h503.65c164.09 0 309.94 111.52 309.94 271.2zm-3925.94-942.74h258.29c10.66 128.13 114.57 597.18 116.23 671.54h-490.74l116.23-671.54zm1213.94-904 547.17 111.45c173.76 46.94 297.86 151.74 388.14 283.41 156.24 227.88 104.59 606.41 140.11 867.21 10.7 78.6 22.3 221.62 22.3 313.48h-619.88v-413.26c0-128.75-206.63-161.86-206.63 25.83v387.43h-904l-93.73-526.16c-51.1-261.07-50.52-197.88 70.91-324.06 48.24-50.12 21.85-33.38 99.49-28.64 330.39 20.18 362.89-264.94 496.99-587.94 9.89-23.81 40.04-108.75 59.14-108.75zm-1356 568.23c42.29-11.3 102.53-55.15 139.46-80.09l131.74-87.8c47.83 32.03 90.42 60.54 141.45 91.01 49.2 29.37 89.63 61.73 142.66 89.79-104.27 155.71-147.93 116.23-426.17 116.23-52.37 0-110.55-93.77-129.14-129.14zm-594.06-619.88c92.32-2.06 180.04-44.08 271.2-51.66 14.9 179.04 176.86 342.08 335.77 426.17-15.22 20.77-253.48 180.8-297.03 180.8-59.19 0-103.91-35.65-124.39-82.25l-185.55-473.07zm1433.48 555.31c-81.26 0-221.63-144.3-309.94-167.88 13.59-11.81 1.57-2.49 22.36-16.38 70.81-47.27 140.01-87.16 192.02-156.67 43.6-58.27 119.39-176.67 121.39-266.04 90.53 7.53 192.92 49.62 284.11 51.66-49.5 93.55-83.64 194.14-125.29 300.88-20.24 51.87-64.82 183.01-103.29 219.56-17.25 16.39-55.51 34.87-81.36 34.87zm-529.48-322.85c-497.08 0-439.09-414.92-439.09-697.37 175.77 84.33 448.63 99.24 646.02 51.96l167.58-51.96c0 231.35 29.91 485.3-175.1 625.58-44.7 30.59-131.44 71.79-199.41 71.79zm2001.71-839.43c0-74.46 52.21-129.14 116.23-129.14 94.31 0 162.85 104.74 216.31 158.2 63.87 63.88 171.11 136.67 171.11 229.23 0 71.41-58.21 116.23-129.14 116.23-68.02 0-166.55-121.35-209.86-164.66-39.47-39.47-164.66-151.08-164.66-209.86zm-3125.25-942.74c0-395.56-21.67-305.48 81.69-357.39 281.95-141.62 182.14-423.15 285.91-463.13 79.11-30.48 1321.15 37.79 1466.23-31.82 0 235.48 73.8 423.41 283.3 504.46 88.02 34.06 65.38-18.39 65.38 334.96 0 84.75-115.25 54.68-178.57 79.72-138.2 54.64 24.82 209.05-221.55 553.3-229.79 321.09-710.91 442.9-1098.32 245.53-99.61-50.74-218.26-145.5-285.92-230.66-73.85-92.96-131.03-218.09-154.89-361.68-13.7-82.43 3.66-156.83-59.72-198.56-68.23-44.92-183.54 9.26-183.54-74.75zm2040.45-736.12v-180.8c0-40.16 7.4-16.84 67.94-74.12 30.08-28.45 40.8-45.62 74.12-67.93v516.57c-72.18-19.27-142.06-135.8-142.06-193.72zm-2040.45 193.72c0-150.67.04-301.34 0-452-.07-273.35 62.01-471.07 301.8-628.02 85.67-56.08 222.26-108.09 356.83-108.09h1433.48c63.69 0 38.75 101.83 38.75 271.2 0 210-170.14 375.1-345.3 416.64-228.68 54.23-1299.15-44.14-1488.73 35.15-275.62 115.29-97.37 331.56-296.82 465.12z"/>
  <path fill="#fff"
    d="m4558.74 749.03c0 206.11-10.97 388.69 113.99 544.63 60.46 75.45 192.85 181.55 312.18 191.48 0 283.13-54.4 529.49 180.8 529.49 89 0 128.72-78.14 167.75-129.28l206.91-258.01c103.44-135.54 77.46-129.35 335.63-129.28 239.58.06 366.8 11.72 513.25-93.72 162.39-116.92 210.56-248.17 222.86-405.77v-365.76c0-263.72-242.23-490.74-555.31-490.74-124.52 0-458.58-21.58-515.95 26.46l-39.37 63.94c0 132.03 103.42 116.55 232.44 116.24 297.41-.71 684.47-68.71 684.47 361.58 0 221.83 31.73 445.21-175.92 547.28-246.15 121-603.56-87.78-811.32 183.08-39.95 52.08-202.63 265.1-239.62 289.87 0-339.98 45.17-420.62-154.2-439.86-319.84-30.87-271.97-409.91-271.97-619.11 0-169.37 126.57-304.62 272.38-321.67 101.25-11.84 206.99 24.7 256.66-41.01 51.78-68.52 2.32-166.8-89.96-166.8-214.88 0-356.81 21.68-494.45 164.18-100.7 104.26-151.26 242.47-151.26 442.8z"/>
</svg>
