<svg clip-rule="evenodd" fill-rule="evenodd" height="511.937" image-rendering="optimizeQuality" shape-rendering="geometricPrecision" text-rendering="geometricPrecision" viewBox="0 0 15541.03 15541.03" width="511.937" xmlns="http://www.w3.org/2000/svg"><path d="m6434.96 14600.08h2671.12c0 304.14-122.73 485.66-424.95 485.66h-1760.51c-332.14 0-485.66-156.04-485.66-485.66zm-819.54-1639.09c0-180.93 122.5-242.83 303.54-242.83h3733.48c146.83 0 242.83 96 242.83 242.83 0 212.48-147.06 215.38-363.43 213.28-192.48-1.86-385.03-.81-577.54-.81-335.38 0-940.96-89.49-940.96 242.83 0 146.83 96 242.83 242.83 242.83h849.9v485.66h-2671.12v-485.66c454.9 0 1062.38 97.81 1062.38-212.47 0-366.27-556.63-273.19-910.62-273.19-426.09 0-971.3 96.07-971.3-212.47zm3490.66-1183.8v455.31h-1092.73v-2064.04c428.25-35.64 789.19-558.87 789.19-971.31 0-490.12-383.73-907.21-789.19-1001.67v-1123.08c1926.49 0 1402.58 55.39 1606.85-457.2 168.23-422.14 822.26-461.9 1008.11-2.66 214.29 529.54-272.17 459.86 1604.19 459.86 0 536.57-194.72 1196.03-374.37 1568.25-177.75 368.3-375.79 743.17-649.82 1049.98-1031.02 1154.35-1497.49 1072.71-1805.95 1381.18-161.74 161.74-296.27 454.82-296.27 705.39zm-5797.53-4704.8h1123.08c17.72 212.87 199.77 446.35 333.01 547.24 740.02 560.34 1503.66 37.84 1639.98-547.24h1123.08c0 1938.32-70.37 1387.82 475.18 1619.21 402.78 170.83 439.44 807.18-10.83 1000.24-593.6 254.49-464.35-400.04-464.35 2540.66h-1092.73c0-449.71 45.42-786.45-281.58-1145.05-270.38-296.49-2078.21-795.86-2717.53-3140.72-67.51-247.6-127.31-572.85-127.31-874.34zm1123.08-3794.2c0 185.8 165.51 393.33 523.88 68.57 93.6-84.82 194.42-153.3 295.55-220.46 613.12-407.1 1457.84-758.72 2276.64-758.72v1123.09c-200.03 16.64-445.22 206.43-542.82 337.43-548.82 736.55-58.57 1495.44 542.82 1635.55v1123.09h-1305.2c-314.72 0-226.55 294.51-311.51 477.68-190.57 410.91-791.56 421.23-993.06 7.32-263.71-541.71 401.15-485-1609.38-485 0-1449.61 910.61-2372.24 910.61-2580.06 0-168.95-152.39-255.76-287.38-226.07-132.82 29.21-205.84 191.89-277.18 298.93-1047.25 1571.39-1148.02 3776.52-91.28 5348.48 425.39 632.78 649.93 889.09 1228.37 1351.69 1011.78 809.13 1157.62 260.29 1157.62 1452.78-519.36 120.99-758.83 167.1-758.83 819.54 0 382.42 360.32 607.07 758.83 607.07 0 564.79-81.43 1211 220.85 1570.01 137.36 163.14 339.47 311.91 629.06 311.91h1972.99c249.76 0 477.6-168.09 598.7-311.91 302.27-359.01 220.85-1005.22 220.85-1570.01 403.39 0 758.85-213.48 758.85-607.07 0-304.43 24.65-441.21-232.9-647.36-190.02-152.08-278.58-114.56-525.94-172.19 0-397.56-50.61-665.44 181.17-850.86l674.9-387.47c114.08-76.55 194.58-134.2 301.77-214.24l565.32-497.06c390.44-394.64 821.8-1084.53 1030.62-1610.15 542.7-1366.04 505.27-2936.52-232.84-4212.35-29.25-50.55-40.81-80.26-74.34-138.13-193.7-334.35-473.62-194.52-473.62 48.67 0 172.25 667.78 1032.39 667.78 2215.82h-1123.09c-31.41-377.53-504.67-770.71-973.94-783.79-483.88-13.49-905.74 383.3-999.03 783.79h-1123.09c0-1985.17 61.17-1367.78-477.49-1616.91-441.98-204.41-388.45-827.85-3.89-989.21 559.61-234.81 481.38 302.16 481.38-1613.03 961.23 0 2179.58 546.7 2815.56 1191.12 153.55 155.59 173.62 235.51 401.92 235.51 85.77 0 182.12-126.6 182.12-212.48 0-158.27-171.5-282.49-264.98-372.45-439.4-422.82-1073.49-804.88-1651.61-1019.49-1195.22-443.71-2552.21-409.12-3709.19 106.72-577.37 257.4-796.77 419.92-1248.38 785.3-73.16 59.18-107.15 76.56-107.15 196.38z"/><path d="m0 7770.52c0 346.38 548.19 242.83 1092.73 242.83 442.71 0 366.03-485.66 60.71-485.66h-910.61c-146.83 0-242.83 96-242.83 242.83z"/><path d="m14144.77 7709.81c0 410.7 334.84 303.54 1092.73 303.54 186.78 0 280.5-87.09 303.54-187.48v-103.38c-22.67-103.46-111.59-194.8-242.83-194.8h-910.61c-110.93 0-242.83 83.77-242.83 182.12z"/><path d="m7527.69 242.83v910.61c0 325.82 485.66 325.82 485.66 0v-849.9c0-186.78-87.09-280.5-187.48-303.54h-103.38c-103.46 22.67-194.8 111.59-194.8 242.83z"/><path d="m13476.99 4704.81c112.16 0 470.8-230 586.1-294.16 171.32-95.32 476.28-243.39 476.28-403.98 0-146.83-96.01-242.83-242.83-242.83-95.74 0-289.14 127.62-370.08 176.29-148.64 89.37-621.83 311.73-669.5 455.77-43.27 130.72 71.34 308.91 220.03 308.91z"/><path d="m1001.67 3976.32c0 203.52 230.15 293.74 456.81 423.42 79.99 45.78 515.12 305.06 575.21 305.06 142.28 0 282.71-124 263.32-262.17-23.83-169.82-178.45-205.77-299.7-278.18-123.06-73.48-645.62-400.61-752.81-400.61-129.9 0-242.83 93.57-242.83 212.48z"/><path d="m1001.67 11504.01c0 581.13 700.81 39.93 953.77-108.61 132.3-77.69 271.98-112.64 321.11-257.53 44.87-132.36-28.63-301.64-212.52-301.64-94.46 0-1062.37 503.46-1062.37 667.78z"/><path d="m14296.54 11777.19c209.77 0 391.69-259.64 74.21-468.81-155.32-102.33-780.62-472.14-893.76-472.14-179.83 0-247.7 163.51-219.02 280.34 38.95 158.66 184.07 196.5 308.56 267.54 103.56 59.09 635.32 393.08 730.01 393.08z"/><path d="m10836.23 2064.04c0 184.51 289.91 365.77 484.73 29.43 83.02-143.34 456.23-769.55 456.23-848.97 0-129.9-93.57-242.83-212.47-242.83-223.4 0-330.54 303.34-423.22 457.04-64 106.13-305.27 483.02-305.27 605.33z"/><path d="m3763.84 1214.14c0 143.36 341.44 666.22 445.5 859.7 205.3 381.71 495.47 153.49 495.47-9.8 0-65.32-471.03-1062.37-698.14-1062.37-129.89 0-242.83 93.56-242.83 212.47z"/></svg>