<svg
  clip-rule="evenodd"
  fill-rule="evenodd"
  height="135.45mm"
  image-rendering="optimizeQuality"
  shape-rendering="geometricPrecision"
  text-rendering="geometricPrecision"
  viewBox="0 0 2226.19 2226.19"
  width="135.45mm"
  xmlns="http://www.w3.org/2000/svg">
  <path fill="#fff"
    d="m586.98 526.11c0 201.39 115.82 383.07 291.96 468.94 50.78 24.76 125.6 52.82 199.36 52.82v173.92c0 17.89-164.16 105.59-178.27 113.05-6.38-9.53-9.08-12.19-19.19-19.95-62.34-47.87-109.35-84.65-188.93-111.08-94.66-31.43-188.46-37.95-295.44-11.64-119.26 29.33-233.81 104.84-301.76 206.96-9.61 14.45-27.71 39.71-33.53 53.85-8.55 20.77 3.25 47.09 30.11 47.09 41.88 0 50.69-91.95 170.39-173.11 184.34-124.98 431.68-109.05 589.55 52.32 11.06 11.31 15.25 18.66 25.94 30.59 9.33 10.42 16.29 19.87 24.64 31.89 85.95 123.83 105.11 309.1 40.28 448.2-60.4 129.59-173.54 222.83-312.42 257.17-204.73 50.62-442.82-60.83-521.62-255.1-33.03-81.44-49.65-169.21-35.88-259.05 4.62-30.19 2.55-47.25-20.24-54.69-37.82-12.35-49.06 28.59-51.94 71.85v76.02c0 194.45 132.58 365.85 298.56 449.3 59.63 29.98 122.58 46.35 185.66 50.72h69.72c178.66-12.23 348.71-117.37 435.98-279.7 33.52-62.34 54.24-136.57 58.03-211.55 1-19.75 5.23-18.96 4.18-38.84-3.12-59.08-19.8-139.18-40.25-190.48-9.29-23.31-17.9-41.9-29.42-61.89-10.96-19.02-24.3-37.24-34.6-56.71 13.17-8.82 25.6-15.82 40.51-24.72 150.89-90.01 100.5-84.63 208.68-24.46l81.27 49.17c-19.8 37.43-47.15 74.02-63.46 114.81-112.16 280.5 28.6 590.44 310.59 694.63 53.38 19.72 113.94 29.62 174.86 29.73h2.25c78.49-.17 157.42-16.61 222.18-49.27 111.19-56.08 193.46-135.37 250.73-249.29 30.82-61.31 48.45-137.81 50.72-214.59v-33.8c-1.69-56.57-11.94-112.09-31.64-160.57-12.26-30.17-39.61-114.25-77.06-114.25-18.61 0-34.78 13.4-34.78 30.44 0 10.25 43.61 93.96 51.68 117.89 26.2 77.66 32.8 168.42 14.5 248.31-7.74 33.8-15.89 55.86-28.25 84.8-42.79 100.15-126.83 191.01-228.61 232.29-183.38 74.38-370.38 49.25-510.45-90.87-39.93-39.94-70.98-82.24-96.08-134.37-94.76-196.82-21.13-440.5 151.17-564.93 161.14-116.37 386.13-109.8 542.89 10.01 24.74 18.91 68.36 33.81 68.36-16.18 0-28.33-41.75-49.56-63.35-62.74-16.26-9.92-24-15.83-40.97-24.26-65.4-32.48-185.13-70.54-259.02-59.06-78.16 12.14-111.44 3.57-206.31 50.34-45.32 22.34-123.98 66.74-152.12 108.77l-137.26-80.15c-57.35-34.45-41.01-7.29-41.01-206.82 57.96 0 104.86-13.06 154.09-32.88 15.37-6.19 32.71-12.81 45.67-19.55 340.14-176.8 306.87-561.54 270.46-600.47-15.15-16.19-57.15-12.86-57.15 13.73 0 31.62 8.7 80.08 8.7 143.49 0 216.94-210.15 430.45-447.85 430.45-196.57 0-341.22-100.19-418.87-255.08-60.45-120.59-62.29-280.61-2.96-401.54 13.27-27.05 24.44-42.79 40.9-67.8 10.33-15.7 14.59-18.67 24.99-31.53l54.79-53.91c32.12-28.68 64-46.36 103.97-65.61 158.31-76.24 355.5-39.84 485.49 69.73 80.59 67.93 92.31 131.79 129.09 131.79 30.68 0 37.85-30.01 26.13-51.89-77.33-144.33-255.81-256.82-430.49-256.82-96.92 0-174.56 13.16-252.21 52.15-54.78 27.51-106.62 63.27-148.99 107.54-43.07 45.01-77.12 96.69-101.97 154.56-26.08 60.74-44.68 126.66-44.68 211.85z"/>
  <path fill="#fff"
    d="m252.19 1860.96c47.56-71.02 171.5-126.09 269.58-126.09 61.88 0 119.75 16.3 162.38 37.63 40.59 20.31 88.23 53.64 111.55 88.46-14.58 62.57-147.79 156.53-247.84 156.53-104.07 0-174.88-19.07-245.25-89.54l-31.29-33.93c-3.86-5.1-7.95-11.21-10.61-15.48l-8.52-17.57zm130.44-334.8c0-128.45 153.78-185.04 235.98-105.54 105.82 102.35 17.7 254.93-99.05 246.45-82.22-5.97-136.93-65.66-136.93-140.91zm8.7 165.23c-57.33 4.77-213.05 113.82-213.05 169.57 0 43.03 87.02 128.85 126.1 156.52 163.85 115.99 393.73 81.39 514.43-68.19 14.27-17.69 55.15-70.5 55.15-92.68 0-38.26-133.05-146.59-213.05-165.23 6.15-23.04 73.92-60.58 73.92-165.23 0-108.66-92.88-208.71-200.01-208.71-59.97 0-93.77 9.22-141.75 45.22-80.76 60.6-106 182.91-39.2 283.56 13.89 20.93 26.27 28.44 37.46 45.15z"/>
  <path fill="#fff"
    d="m1387.02 686.99c-22.54 25.93-8.93 20.02-46.74 57.61-43.58 43.34-72.13 62.63-134.15 83.26-55.48 18.45-88.9 16.07-140.19 10.63-75.47-8.01-157.75-60.21-203.27-118.48-4.13-5.29-7.8-10.36-11.06-15.03-2.5-3.58-2.35-3.58-5.24-7.81-5.71-8.37-.9-2.93-7.2-10.19 79.63-118.91 281.16-166.51 434.9-91.41 40.64 19.85 88.89 55.47 112.95 91.41zm-282.62-478.28c154.65 0 187.43 162.98 109.98 240.42-53.89 53.88-143.76 55.53-200.37 2.14-23.47-22.13-38.71-53.84-42.71-96.5-6.93-73.97 61.36-146.07 133.1-146.07zm-200.01 126.09c0 66.64 8.65 95.89 45.9 145.42 10.82 14.38 19.48 20.1 28.02 32.85-73.01 17.01-213.05 121.92-213.05 169.57 0 40.22 83.4 125.69 123.57 154.7 132.4 95.6 313.77 95.43 446.01 1.81 27.27-19.31 49.69-41.43 72.91-66.22 11.89-12.7 53.19-71.52 53.19-90.3 0-30.65-66.02-87.72-87.53-103.78-18.97-14.16-36.17-25.16-57.72-37.94-15.14-8.98-50.22-23.76-67.8-27.85 31.56-47.13 73.92-58.44 73.92-178.27 0-150.48-215.99-274.57-351.14-138.09-34.84 35.19-66.27 81.94-66.27 138.09z"/>
  <path fill="#fff"
    d="m1430.5 1860.96c49.95-74.59 172.31-126.09 273.92-126.09 97.47 0 221.4 54.15 269.58 126.09-17.12 64.13-146.51 156.53-256.53 156.53-82.6 0-118.05-6.26-189.52-49.62-17.68-10.73-41.4-30.38-55.16-44.84-24.08-25.29-30.41-35.48-42.29-62.07zm130.44-321.75v-21.74c0-72.54 70.09-136.04 143.11-134.02 175.96 4.89 192.21 269.86 2.58 283.62-37.47 2.72-77.26-14.19-99.1-35.32-20.25-19.59-46.59-55.21-46.59-92.55zm-69.57-13.04c0 33.28 10.87 71.57 23.09 94.3 6.3 11.72 16.26 27.19 24 36.87 10.72 13.42 22.3 17.12 26.82 34.05-43.66 10.17-90.7 39.85-123.03 63.93-17.99 13.39-90.02 81.96-90.02 96.94 0 47.68 85.47 132.73 127.27 164.05 125.29 93.88 311.95 91.67 439.75 2.96 41.31-28.67 128.66-113.32 128.66-162.66 0-29.83-65.16-84.82-86.33-100.64l-57.92-37.73c-14.08-8.38-50.11-25.3-68.8-26.85 10.84-16.18 22.77-23.11 35.73-42.53 11.46-17.18 21.92-34.4 28.99-53.63 50.41-137.17-63.93-277.77-182.12-277.77-48.3 0-64.31-.74-108.76 21.68-66.18 33.38-117.34 101-117.34 187.02z"/>
</svg>
