<svg
  clip-rule="evenodd"
  fill-rule="evenodd"
  height="131.283mm"
  image-rendering="optimizeQuality"
  shape-rendering="geometricPrecision"
  text-rendering="geometricPrecision"
  viewBox="0 0 1964.55 1784.72"
  width="144.51mm"
  xmlns="http://www.w3.org/2000/svg">
  <path fill="#fff"
    d="m993.78 1113.25h88.25v49.88h-88.25zm-149.64 0h88.25v49.88h-88.25zm353-356.84 68.06 77.74c10.56 10.85 13.73 16.2 23.13 26.75 4.44 4.99 6.79 6.48 11.26 11.76 6.01 7.1 5.35 7.9 11.76 15.1l23 26.88c48.75 54.85 39.29 39.76 39.29 137.21h-176.5v-295.45zm-644.62 226.38c0-25.04 16.73-44.29 35.46-64.3l141.04-162.08v295.45h-176.5zm176.5-575.55c0 29.03 59.08 48.42 61.51-15.23 3.56-93.49 37.34-195.34 98.62-258.22 30.45-31.25 30.18-38.73 73.93-68.04 129.6 86.79 176.5 224.97 176.5 376.03v610.08h-349.17v-494.97c0-15.42-2.11-31.13-10.28-39.66-12.91-13.47-51.31-18.44-51.37 31.72l.55 104.15c-1.22 22.58-8.19 19.16-20.03 33.68-52.4 64.26-150.81 168.93-193.08 225.15-31.49 41.89-25.07 91.52-25.07 147.59 0 33.57 20.15 53.72 53.72 53.72h237.89c0 29.26-4.37 70.76 9.27 90.49 11.48 16.6 13.5 4.71 14.07 31.98.63 30.22-.32 61.97-.32 92.41-92.15-48.76-219.57-21.43-288.99 64.01-17.56 21.62-20.59 30.88-33.31 54.94-70.8 0-83.13 1.82-130.46 26.86 0-53.75-18.08-92.82-38.36-130.47-12.91-23.98-25.8-39.32-45.09-58.51-28.55-28.39-37.75-37.11-76.42-57.88-18.86-10.13-162.44-61.45-162.44-2.55 0 63.65 82.21-10.59 198.6 104.53 41.18 40.73 55.54 80.87 63.5 139.86 5.39 39.94-7.34 57.84 30.99 72.89 41.06 16.11 48.86-23.47 105.89-33.58 45.85-8.13 81.78 21.59 108-37.63 37.29-84.2 134.99-128.06 219.78-97.99 13.97 4.96 37.7 16.91 52.15 16.91 72.67 0 57.56-100.12 57.56-164.99h184.18v134.3c0 17.55 15.52 34.24 28.16 40.93 40.97 21.68 64.46-10.77 96.67-23.53 65.46-25.92 84.77-5.89 132.24-5.89 18.2 0 47.78-65.23-46.04-65.23-76.88 0-84.52 1.88-153.48 38.37v-122.78c44.04-10.26 34.53-54.46 34.53-107.44h241.73c64.01 0 49.88-67.48 49.88-138.13 0-53.12-71.71-117.32-106.3-158.45l-82.86-97.48c-67.16-79.39-48.73-22.64-48.73-223.7 0-60.57 2.88-124.34-6.67-173.67-22.3-115.14-75.47-210.18-165.1-283.83-62.28-51.17-62.13-47.83-116.08-6.86-41.4 31.44-83.23 80.82-111.02 126.87-38.86 64.41-69.24 146.28-69.24 249.23z"/>
  <path fill="#fff"
    d="m69.07 1723.33c-46.12 0-69.07-10.56-69.07 34.53 0 17.89 23.3 26.86 42.21 26.86h1880.13c25.69 0 39.02-11.9 42.21-25.23v-12.95c-2.65-11.19-12.13-20.98-27.09-22.98-12.33-1.64-36.12-.23-49.65-.23 7.12-30.55 37.18-70.52 2.71-133.17-10.19-18.51-21.67-30.88-37.7-42.88-17.57-13.15-31.38-18.98-57.06-23.72-23.86-4.4-49.92-2.18-49.92 27.1 0 36.67 35.81 26.2 61.55 38.21 51.31 23.93 67.37 135.28-53.83 134.51-53.7-.34-107.49-.05-161.21-.05 11.98-17.88 16.19-29.33 20.62-56.54 8.31-51.02-51.6-59.53-58.57-15.95-6.06 37.87-19.9 72.49-77.16 72.49h-441.26c-86.89 0-29.97-95.93-92.09-95.93-36.7 0-29.68 61.59-11.51 95.93-101.04 0-202.08 0-303.12 0-46.24 0-111.42 7.93-143.39-10.09-57.57-32.45-10.06-89.67-71.48-89.67-31.32 0-24.06 49.66-16.53 70.24 4.26 11.63 10.07 19.72 12.69 29.52-61.39 0-122.78-.01-184.18 0-41.8 0-118.95 5.62-118.95-72.9 0-87.29 99.76-49.07 99.76-99.76 0-36.43-39.94-30.95-65.84-23.64-23.63 6.67-49.25 23.49-62.56 41.04-39.81 52.5-40.13 97.81-9.73 155.26z"/>
  <path fill="#fff"
    d="m1580.85 1431.72c-28.36-42.35-81.17-53.72-134.3-53.72-15.03 0-18.33 3.06-27.04 2.84-9.69-.24-16.17-5.03-23.44-5.43-46.14-2.49-36.03 67.81 12.1 67.81 19.98 0 70.31-22.83 117.93 16.36 22.18 18.25 22.88 33.52 62.41 33.52 22.89 0 33.97-18.38 47.11-29.63 48.95-41.88 57.52 3.53 88.75-72.4 29.88-72.63 103.86-123.38 185.74-132.73 46.06-5.26 54.42-7.14 54.42-37.67 0-50.32-133.7-8.37-164.25 8.41-34.59 19-53.76 34.61-80.43 61.54-59.12 59.7-31.79 80.52-74.77 97.9-40.45 16.36-40.32 27.16-64.25 43.19z"/>
  <path fill="#fff"
    d="m920.88 422.59c0-32.4 6.07-49.88 46.04-49.88 45.79 0 54.07 74.47 1.97 82.35-27.7 4.19-48.01-19.95-48.01-32.47zm-61.39-7.67c0 52.01 47.42 99.76 92.09 99.76 32.73 0 62.02-4.82 85.03-30.08 41.61-45.7 37.16-113.28-10.88-151.5-65.51-52.13-166.24-6.28-166.24 81.82z"/>
  <path fill="#fff"
    d="m1124.24 1546.83c0 21.54 13.24 30.7 30.7 30.7 26.59 0 28.11-22.63 42.99-37.59 32.14-32.31 92.69-31.95 126.82 2.08 22.7 22.64 30.4 58.25 20.24 91.25-2.4 7.8-9.7 21.53-9.7 28.67 0 33.47 72.9 61.19 72.9-61.39 0-144.42-187.54-191.59-263.22-90.56-5.39 7.19-20.72 28.57-20.72 36.84z"/>
  <path fill="#fff"
    d="m932.39 656.65c0 44.71-6.73 305.14 6.41 327.41 15.13 25.64 54.98 15.22 54.98-16.61v-318.47c0-39.82-61.39-46.68-61.39 7.67z"/>
  <path fill="#fff"
    d="m602.41 1581.36c0 80.98 60.79 76.44 67.49 40.85 2.02-10.72-28.57-79.22 39.95-79.22 39.32 0 20 38.37 69.07 38.37 7.85 0 50.9-20.31-8.51-75.91-61.41-57.47-167.99-2.2-167.99 75.91z"/>
  <path fill="#fff"
    d="m917.04 1362.65v145.81c0 40.1 61.39 50.36 61.39-7.67v-138.13c0-45.95-61.39-45.95-61.39 0z"/>
</svg>
