<svg clip-rule="evenodd" fill-rule="evenodd" height="127.597mm" image-rendering="optimizeQuality" shape-rendering="geometricPrecision" text-rendering="geometricPrecision" viewBox="0 0 8606.08 7598.83" width="144.51mm" xmlns="http://www.w3.org/2000/svg"><path d="m4286.23 1312.36 2963.64 5087.75c68.19 113.5 136.84 228.91 196.4 341.47h-6286.47l1753.29-3037.2c67.32-120.47 133.29-224.59 196.52-341.35s129.2-220.88 196.52-341.36c66.82-119.58 126.71-221.41 197.23-340.65l782.86-1368.66zm-3428.99 5496.46c0 73.15 96.54 184.9 184.9 184.9h6521.79c87.1 0 184.9-104.01 184.9-184.9 0-87.63-138.55-303.29-185.74-385.76-69.46-121.4-146.48-249.34-216.8-371.5l-1273.03-2206.38c-148.22-246.69-279.21-494.2-424.56-735.25l-1059.04-1832.06c-79.95-138.88-134.08-294.4-286.62-294.4-149.6 0-203.2 145.2-280.57 283.65l-640.68 1107.43c-147.61 245.54-277.76 492.19-424.41 735.39-145.35 241.04-276.34 488.56-424.56 735.25l-952.8 1652.56c-101.88 188.39-722.78 1177.98-722.78 1311.08z"/><path d="m0 7027.33c0 168.98 19.83 301.5 158.8 429.51 82.13 75.66 195.95 141.99 345.46 141.99h7597.55c277.24 0 504.26-253.77 504.26-470.64 0-252.32-27.39-239.62-150.44-454.67l-1234.61-2143.95c-152.83-260.81-279.01-36.8-279.01 10.08 0 51.75 608.46 1071.76 711.15 1255.48l361.27 630.44c65.32 108.94 339.51 552.21 339.51 652.21 0 182.25-158.98 268.94-352.99 268.94h-7395.84c-190.55 0-352.99-83.25-352.99-268.94 0-114.68 430.05-809.05 515.88-963.29 32.69-58.76 61.74-98.94 94.43-157.7 34.28-61.61 56.08-100.13 90.47-161.66 61.45-109.93 118.55-197.6 179.04-308.42 74.35-136.2 532.11-882.73 532.11-963.87 0-82.81-55.97-117.66-134.47-117.66-108.83 0-141.96 127.68-230.02 274.24l-380.86 661.28c-64.51 118.09-124.96 212.58-190.76 330.32l-571.48 991.73c-54.34 97.66-156.48 226.32-156.48 364.6z"/><path d="m1882.58 3699.2c0 71.93 51.82 134.47 117.66 134.47 126.21 0 242.82-263.77 325.14-414.45l1378.32-2386.84c46.46-85.11 87.64-149.37 134.47-235.33l142.29-244.32c72.79-121.1 168.75-374.7 428.21-270.91 84.95 33.98 131.74 116.86 174.43 195.81 46.13 85.31 85.47 152.7 134.87 234.92 387.86 645.53 781.14 1386.19 1168.16 2025.5 89.44 147.73 582.66 1027.82 627.87 1070.28 81.25 76.33 209.51 28.35 209.51-92.31 0-87.07-491.18-899.86-543.18-986.41-98.07-163.23-179.77-317.75-277.39-479.01l-283.05-490.16c-46.49-85.35-85.44-152.49-134.93-234.86l-424.65-735.15c-92.89-161.36-185.38-313.21-275.5-480.89-223.69-416.25-741.4-405.45-957.75-11.04l-1395.09 2420.5c-39.03 64.95-549.39 924.97-549.39 980.21z"/><path d="m4303.04 2505.78c193.4 0 151.28 143.55 151.28 352.99 0 428.61-35.77 812.28-33.39 1227.26.71 125.3-17.97 176.81-17.26 302.11.61 106.57.95 213.61.8 320.17-.16 112.08-18.29 173.77-17.41 301.95.75 109.85 30.72 235.35-84.02 235.35-142.65 0-100.96-124.97-100.85-268.94.09-126.88 4.32-261.25.55-387.15-3.95-131.88-17.63-146.29-17.35-369.26.18-148.43-17.81-233.96-17.04-369.56l-33.15-1127.93c-12.77-147.42 30.69-216.99 167.84-216.99zm-420.22 100.85 43.34 1637.54c30.89 204.09-14.24 992.37 63.97 1112.65 120.51 185.34 594.65 246.76 657.1-153.64 29.03-186.09 9.68-402.68 8.69-596.42-.63-123.13 17.34-175.21 17.5-285.06.13-91.01-7.9-213.56 1.88-300.68l31.71-573.4c6.13-205.04-6.81-407.82 13.8-591.31 23.65-210.45-9.65-390.28-110.12-490.08-249.13-247.47-727.86-94.47-727.86 240.41z"/><path d="m4319.84 6304.55c-265.43 0-278.35-376.29-29.42-395.95 270.81-21.38 251.91 395.95 29.42 395.95zm-470.64-201.7c0 444.76 549.66 591.79 783.49 312.84 295.54-352.57 16.78-766.68-329.65-766.68-251.47 0-453.84 202.37-453.84 453.84z"/></svg>