<svg width="136" height="136" viewBox="0 0 136 136" fill="none" xmlns="http://www.w3.org/2000/svg">
<g clip-path="url(#clip0_2_37)">
<path fill-rule="evenodd" clip-rule="evenodd" d="M41.5346 96.0318H69.842C71.4308 96.0318 72.2253 94.236 73.6538 92.1713L76.9847 87.566V131.217H41.5346V96.0318ZM83.0693 82.8045H94.9746C95.3378 84.164 100.656 90.557 101.059 92.0637H89.4187C88.4142 90.1654 84.3984 84.789 83.0693 82.8045ZM107.672 62.963H113.492V68.7827H107.672V62.963ZM21.958 62.963H27.7777V68.7827H21.958V62.963ZM125.662 43.6511H131.482V49.4708H125.662V43.6511ZM3.96911 43.6511H9.78885V49.4708H3.96911V43.6511ZM82.2759 26.1909H88.0956V32.0106H82.2759V26.1909ZM47.3554 26.1909H53.1751V32.0106H47.3554V26.1909ZM104.763 13.7569H110.583V19.5767H104.763V13.7569ZM24.8688 13.7569H30.6886V19.5767H24.8688V13.7569ZM64.8156 4.23291H70.6354V9.78885H64.8156V4.23291ZM60.5827 2.90987C60.5827 14.7168 59.8827 14.0207 65.6091 14.0207V26.9833H57.4081C57.4081 21.1331 58.1852 22.2218 44.9741 22.2218C44.337 22.2218 43.3873 23.1724 43.3873 23.8086V34.126C43.3873 35.7027 44.4547 36.2425 46.0324 36.2425H55.0268C57.9275 36.2425 57.4081 33.2241 57.4081 31.2162H65.6091V44.4435H30.159V23.8086C36.0903 23.8086 34.9205 23.3753 34.9205 11.9043C34.9205 10.2799 33.6614 9.52303 32.0106 9.52303H23.28C22.0006 9.52303 20.8987 10.2738 20.8987 11.6395V21.6921C20.8987 24.1647 24.0288 23.8086 26.1898 23.8086V44.4435H14.0207C14.0207 38.5933 14.7979 39.682 1.58683 39.682C0.949665 39.682 0 40.6327 0 41.2688V51.5863C0 52.8657 0.837044 53.7027 2.11645 53.7027H11.6405C14.4885 53.7027 14.0218 50.4794 14.0218 48.6764H51.5883V63.7554H32.0116C32.0116 57.7063 32.2024 58.7291 20.3711 58.7291C19.0917 58.7291 17.9899 59.4799 17.9899 60.8455V71.163C17.9899 72.6899 20.1844 73.0146 21.4294 73.0146C32.3008 73.0146 32.0116 73.7532 32.0116 67.9883H52.6465C54.2212 67.9883 55.5564 67.479 55.5564 65.8718V48.6764H65.6091V78.5706C62.7601 78.5706 54.7041 77.631 56.6562 81.6773C57.4537 83.33 59.8157 82.8035 62.1696 82.8035H75.1331C74.6238 83.5634 74.2068 84.2138 73.6203 84.994L68.7837 92.0627H34.3919C34.8068 90.5104 40.103 84.2006 40.4764 82.8035C42.4163 82.8035 44.3613 82.7903 46.3002 82.8075C47.2631 82.8156 48.3781 82.8643 48.9625 82.56C50.5169 81.7513 50.5828 78.5706 47.0896 78.5706C37.7309 78.5706 39.2335 77.8867 36.5479 81.521C36.0061 82.2535 35.6581 82.7761 35.1356 83.5472L29.4721 91.6406C28.5731 92.917 28.3063 92.6167 28.3063 94.444C28.3063 95.0811 29.257 96.0308 29.8931 96.0308H37.5655V133.333C37.5655 134.612 38.4026 135.449 39.682 135.449H95.767C97.0464 135.449 97.8835 134.612 97.8835 133.333V123.808C97.8835 121.269 93.9154 121.269 93.9154 123.808V131.216H81.2166V87.565C81.8893 88.0581 85.3085 93.2325 86.0887 94.3334C87.7456 96.674 87.4899 96.0308 93.9154 96.0308V113.226C93.9154 115.029 97.8835 115.737 97.8835 112.698V96.0308H105.556C106.235 96.0308 107.143 95.2962 107.143 93.9143C107.143 92.5568 101.457 85.2355 100.314 83.5472C98.0458 80.197 97.5689 78.5706 94.9736 78.5706H69.8409V48.6764H79.8936V65.8718C79.8936 67.479 81.2288 67.9883 82.8035 67.9883H103.438C103.438 73.7532 103.148 73.0146 114.021 73.0146C115.265 73.0146 117.46 72.6899 117.46 71.163V60.8455C117.46 59.4809 116.358 58.7291 115.079 58.7291H105.82C102.972 58.7291 103.438 61.9524 103.438 63.7554H83.8617V48.6764H121.428C121.428 54.7498 120.952 53.7027 133.333 53.7027C134.612 53.7027 135.449 52.8657 135.449 51.5863V41.2688C135.449 40.6317 134.498 39.682 133.862 39.682H123.545C120.94 39.682 121.428 42.4062 121.428 44.4435H109.259V23.8086C115.793 23.8086 114.55 24.2286 114.55 11.6395C114.55 10.2748 113.448 9.52303 112.169 9.52303H103.438C101.788 9.52303 100.529 10.2799 100.529 11.9043V21.4283C100.529 24.0156 103.315 23.8096 105.29 23.8096V44.4445H69.8399V31.2172H78.0409C78.0409 37.249 77.6087 36.2435 89.4166 36.2435C90.9943 36.2435 92.0617 35.7037 92.0617 34.1271V23.8096C92.0617 23.1724 91.111 22.2228 90.4749 22.2228H80.1574C77.5529 22.2228 78.0409 24.947 78.0409 26.9843H69.8399V14.0218C75.5663 14.0218 74.8663 14.7168 74.8663 2.91089C74.8663 1.63756 74.1408 0.00101471 73.0146 0.00101471H62.4324C61.3061 0.00101471 60.5807 1.63756 60.5807 2.91089L60.5827 2.90987Z" fill="url(#paint0_linear_2_37)"/>
</g>
<defs>
<linearGradient id="paint0_linear_2_37" x1="67.7245" y1="0.00101471" x2="67.7245" y2="135.449" gradientUnits="userSpaceOnUse">
<stop stop-color="#00F968"/>
<stop offset="1" stop-color="#00C9A8"/>
</linearGradient>
<clipPath id="clip0_2_37">
<rect width="135.45" height="135.45" fill="white"/>
</clipPath>
</defs>
</svg>
