<svg width="121" height="136" viewBox="0 0 121 136" fill="none" xmlns="http://www.w3.org/2000/svg">
<g clip-path="url(#clip0_2_26)">
<path fill-rule="evenodd" clip-rule="evenodd" d="M53.5097 125.133C53.5097 121.162 56.34 118.254 59.3296 118.254H60.9167C65.9112 118.254 68.9608 125.637 64.7673 129.512C59.9575 133.956 53.5097 129.962 53.5097 125.133V125.133ZM59.1933 0.000411987H60.9294C63.6315 0.210489 66.2586 1.39246 68.0605 3.43899C72.3278 8.28462 70.4833 12.3973 70.4406 14.2857L93.608 27.6256C94.955 28.422 96.1866 29.1654 97.4378 29.881C98.2885 30.3681 100.592 31.7971 101.392 32.0107C102.166 31.4924 102.839 30.7341 103.73 30.1142C107.242 27.6729 113.074 28.0769 116.011 30.6198C119.561 33.6913 120.176 35.8313 120.176 40.4761C120.176 44.3925 116.398 48.6437 111.71 49.7357V85.7143C113.884 86.221 116.205 87.47 117.456 88.9636C120.025 92.0305 120.176 93.6719 120.176 97.0908C120.176 101.587 116.449 105.142 113.074 106.391C106.991 108.643 103.824 105.069 101.392 103.44C100.448 103.692 94.9204 107.049 93.608 107.826L70.3932 121.174C70.9092 124.49 71.1758 124.172 70.5976 127.143C70.3944 128.183 70.2801 128.376 69.9177 129.109C67.9912 133.004 64.6704 135.08 61.2341 135.451H58.9937C56.7117 135.207 54.5012 134.219 52.7398 132.517L52.4766 132.251C51.312 131.037 50.8976 130.392 50.1519 128.756C48.5152 125.164 49.7699 122.783 49.8057 121.165C45.8142 119.053 20.0601 103.763 18.8539 103.44C17.5114 104.338 16.8293 105.616 13.7774 106.565C3.91066 109.631 -4.69905 97.4452 2.91221 88.8216C4.15767 87.4099 6.42813 86.2072 8.53698 85.7155V49.7368C6.36233 49.2301 4.04225 47.9812 2.79102 46.4875C-1.02732 41.9305 -0.945362 35.5508 3.27119 31.5086C7.05489 27.8807 12.8389 27.4605 16.67 30.2285C17.5241 30.846 18.1197 31.5201 18.8539 32.0118L49.853 14.2788L49.277 10.5828C49.2689 10.5378 49.5829 8.64244 49.6487 8.30886C50.1277 5.85026 51.7841 3.60174 53.7313 2.07464C55.3173 0.831487 57.2322 0.15393 59.1933 0.00156626V0.000411987ZM109.33 102.911C106.177 102.911 102.981 99.9788 102.981 96.8265C102.981 94.0562 103.003 93.4895 105.025 91.4637C108.901 87.5819 116.207 90.2529 116.207 96.2978C116.207 99.9753 113.057 102.912 109.329 102.912L109.33 102.911ZM4.03994 96.2967C4.03994 90.2091 11.2334 87.6339 15.2248 91.4614C19.7911 95.8407 16.221 102.911 10.9182 102.911C7.18994 102.911 4.03994 99.9742 4.03994 96.2967ZM110.124 45.7673C99.9957 45.7673 101.406 32.5393 109.33 32.5393C111.346 32.5393 113.042 33.3716 114.138 34.3458C118.118 37.8848 115.784 45.7673 110.124 45.7673V45.7673ZM4.03994 39.1533C4.03994 30.4847 17.2679 30.6636 17.2679 38.6246V39.9474C17.2679 43.0374 14.3268 45.7673 10.1253 45.7673C6.87945 45.7673 4.04109 42.5122 4.04109 39.1533H4.03994ZM20.9708 35.7147C23.3544 34.1184 26.18 32.7263 28.6582 31.2327L52.1881 17.7254C53.1888 19.219 55.7248 20.9747 58.0079 21.164C58.0079 22.5433 57.7736 28.661 58.2595 29.6421C59.0294 31.1969 62.2937 32.2254 62.2476 27.2551C62.2291 25.2247 62.2406 23.1943 62.2406 21.1628C64.5238 20.9724 67.0609 19.2179 68.0605 17.7243L79.6851 24.3532C84.8551 27.4709 95.1443 32.9468 99.2766 35.7136C98.172 40.453 99.0192 39.7685 99.2766 42.8562C98.3012 43.1171 94.4425 45.533 93.1659 46.2694C90.877 47.5887 91.7946 50.2643 93.7211 50.2643C94.8927 50.2643 99.6944 47.1951 101.394 46.2959C102.408 46.9758 102.798 47.688 104.046 48.4048C105.267 49.1054 105.925 49.3732 107.478 49.7345V85.7132C106.191 85.8205 104.983 86.5396 104.031 87.0279C102.644 87.7401 102.521 88.3968 101.394 89.1517C98.3543 87.5438 91.8696 82.24 91.8696 87.3003C91.8696 88.929 93.1024 89.0906 95.1974 90.3222C96.2005 90.912 98.3093 92.3329 99.2777 92.5915C99.0203 95.6803 98.1731 94.9947 99.2777 99.7341C96.0088 101.923 87.7731 106.343 83.7205 108.78L68.0616 117.725C67.0609 116.231 64.5249 114.475 62.2418 114.285C62.2418 112.905 62.4761 106.788 61.9901 105.807C61.2202 104.252 57.956 103.223 58.0021 108.194C58.0206 110.224 58.0091 112.254 58.0091 114.286C55.7259 114.476 53.1888 116.231 52.1892 117.726L20.9719 99.7364C21.0908 98.3051 21.5006 98.2947 21.5006 96.2967C21.5006 94.608 21.0862 93.9766 20.9719 92.5926C21.9392 92.3341 24.0492 90.9132 25.0523 90.3233C25.8199 89.872 26.434 89.5569 27.0838 89.1806C29.0911 88.0159 29.0392 85.1857 25.9988 85.1857C25.5556 85.1857 19.7519 88.6796 18.8562 89.154C17.7284 88.3992 17.6072 87.7424 16.2187 87.0302C15.2664 86.5419 14.059 85.8228 12.772 85.7155V49.7368C16.7923 48.7996 17.0428 47.5125 18.8562 46.2982C22.7403 48.354 26.1177 51.384 27.8583 49.7449C28.4932 49.147 28.9907 47.3706 27.0838 46.2717C26.4409 45.9012 25.8326 45.5214 25.0939 45.0874C24.1889 44.5553 21.7557 43.0686 20.9731 42.8597C21.0839 41.5253 22.0904 38.216 20.9731 35.717L20.9708 35.7147ZM53.5109 11.1114C53.5109 8.95871 54.043 7.30695 55.4466 5.90451C57.8463 3.50709 61.9878 3.36396 64.6657 5.77639C68.9827 9.66282 65.9943 17.1968 60.9178 17.1968H59.3307C56.4104 17.1968 53.5109 14.0121 53.5109 11.1126V11.1114Z" fill="url(#paint0_linear_2_26)"/>
<path fill-rule="evenodd" clip-rule="evenodd" d="M51.9226 56.614C51.9226 54.0226 52.1985 51.9484 54.2254 49.9227C59.2349 44.9131 68.3248 48.5687 68.3248 55.0269C68.3248 57.6863 68.0132 59.7721 65.8258 61.7863C62.5592 64.7943 57.6882 64.7943 54.4228 61.7863C53.3551 60.8028 51.9238 58.5312 51.9238 56.614H51.9226ZM72.8219 39.6831H74.9388C81.0022 39.6831 84.9313 48.6391 79.9079 53.6475C77.7287 55.8198 75.5332 56.0853 72.5575 56.0853C72.5575 53.4882 71.7114 50.8345 70.6611 49.252C69.2609 47.1443 68.2556 46.3456 66.2079 44.9743C67.4533 42.3795 69.4583 39.6831 72.8219 39.6831V39.6831ZM47.6899 56.0853C42.3652 56.0853 38.6058 53.9892 38.0425 48.2686C37.6373 44.1605 41.3553 39.6831 45.3086 39.6831C48.2001 39.6831 50.9092 39.8851 52.9372 42.9012L54.0396 44.9743C51.993 46.3456 50.9865 47.1432 49.5864 49.252C48.536 50.8345 47.6899 53.4894 47.6899 56.0853V56.0853ZM33.9333 47.3556C33.9333 52.2705 35.2318 53.419 37.3719 56.6151C35.0483 58.1711 32.9141 60.0779 31.3327 62.4811C30.2927 64.0625 26.0646 73.8115 30.7579 73.8115C33.4774 73.8115 32.6013 70.4814 33.3031 68.1555C34.3107 64.8151 37.4504 60.4716 40.994 59.4292C41.8643 59.173 43.164 59.8713 44.2894 60.0156C49.9592 60.744 47.384 58.5924 49.6487 62.3265C50.3078 63.4138 50.8168 63.692 51.3928 64.5508C46.1513 67.3245 42.1125 74.3944 42.416 79.6094C42.5834 82.4858 46.3856 82.5978 46.6268 79.6267C47.0677 74.1912 49.0773 70.3429 54.0303 67.7042C55.3427 67.0059 55.3496 67.2425 56.7094 67.6938C62.2326 69.5245 63.702 66.3653 66.2171 67.7042C70.6865 70.0843 73.3355 74.2028 73.6125 79.3693C73.7914 82.7213 77.4736 82.3912 77.8083 79.8356C77.8903 79.2135 77.6052 77.6171 77.4759 76.8276C76.6517 71.7499 73.2512 66.8766 68.8546 64.5496C69.4006 63.7335 69.8912 63.4727 70.5006 62.4915C72.3844 59.4616 70.9115 60.0791 73.6749 60.2303C74.3016 60.2649 74.6352 60.1507 75.4686 60.0583C76.5721 59.936 78.4385 59.3104 78.8749 59.345C79.4278 59.3889 81.0737 60.3238 81.6693 60.729C82.6101 61.3696 83.0926 61.9929 83.8705 62.7605C85.3319 64.2045 86.1999 65.7627 86.882 67.9501C87.3911 69.5845 87.166 69.7542 87.398 71.6668C87.7674 74.7037 91.6065 74.4348 91.6065 71.6911C91.6065 68.2179 90.3218 64.6142 88.9147 62.4777C87.3322 60.0733 85.2049 58.1711 82.8756 56.6117C85.198 53.1431 86.3153 52.2439 86.3153 47.0878C86.3153 44.0266 84.6497 41.0521 82.6805 39.0829C77.3108 33.7132 68.5557 34.3273 64.0506 40.4311C63.2241 41.5507 62.8824 42.4372 62.2418 43.648C60.5219 43.2475 59.7278 43.2475 58.0091 43.648C55.3162 38.5589 52.7468 35.4469 45.5753 35.4469C42.5626 35.4469 39.4876 37.1645 37.5704 39.0817C35.6936 40.9586 33.9356 43.7011 33.9356 47.3509L33.9333 47.3556Z" fill="url(#paint1_linear_2_26)"/>
<path fill-rule="evenodd" clip-rule="evenodd" d="M43.4572 99.9996H76.7902C79.4231 99.9996 79.5155 96.0312 76.7902 96.0312H43.4572C40.7308 96.0312 40.8243 99.9996 43.4572 99.9996Z" fill="url(#paint2_linear_2_26)"/>
<path fill-rule="evenodd" clip-rule="evenodd" d="M68.8546 90.2114C68.8546 93.0624 72.726 92.3283 76.5271 92.3283C79.5155 92.3283 79.5155 88.0956 76.5271 88.0956C72.501 88.0956 68.8546 87.3188 68.8546 90.2125V90.2114Z" fill="url(#paint3_linear_2_26)"/>
<path fill-rule="evenodd" clip-rule="evenodd" d="M43.4572 92.3283C45.4137 92.3283 46.2436 89.8351 44.982 88.6866C42.0328 86.004 39.685 92.3283 43.4572 92.3283Z" fill="url(#paint4_linear_2_26)"/>
<path fill-rule="evenodd" clip-rule="evenodd" d="M50.3355 92.3283C51.3766 92.3283 52.4524 91.4649 52.4524 90.2114C52.4524 88.9578 51.3778 88.0944 50.3355 88.0944C47.7395 88.0944 47.7395 92.3271 50.3355 92.3271V92.3283Z" fill="url(#paint5_linear_2_26)"/>
<path fill-rule="evenodd" clip-rule="evenodd" d="M57.2138 92.3283C58.2549 92.3283 59.3307 91.4649 59.3307 90.2114C59.3307 88.9578 58.2561 88.0944 57.2138 88.0944C54.6178 88.0944 54.6178 92.3271 57.2138 92.3271V92.3283Z" fill="url(#paint6_linear_2_26)"/>
</g>
<defs>
<linearGradient id="paint0_linear_2_26" x1="60.0879" y1="0.000411987" x2="60.0879" y2="135.451" gradientUnits="userSpaceOnUse">
<stop stop-color="#00F968"/>
<stop offset="0.9999" stop-color="#00C9A8"/>
<stop offset="1" stop-color="#00BABB"/>
</linearGradient>
<linearGradient id="paint1_linear_2_26" x1="60.0975" y1="35.423" x2="60.0975" y2="81.8181" gradientUnits="userSpaceOnUse">
<stop stop-color="#00F968"/>
<stop offset="0.9999" stop-color="#00C9A8"/>
<stop offset="1" stop-color="#00BABB"/>
</linearGradient>
<linearGradient id="paint2_linear_2_26" x1="60.1235" y1="96.0312" x2="60.1235" y2="99.9996" gradientUnits="userSpaceOnUse">
<stop stop-color="#00F968"/>
<stop offset="0.9999" stop-color="#00C9A8"/>
<stop offset="1" stop-color="#00BABB"/>
</linearGradient>
<linearGradient id="paint3_linear_2_26" x1="73.8115" y1="88.0008" x2="73.8115" y2="92.4131" gradientUnits="userSpaceOnUse">
<stop stop-color="#00F968"/>
<stop offset="0.9999" stop-color="#00C9A8"/>
<stop offset="1" stop-color="#00BABB"/>
</linearGradient>
<linearGradient id="paint4_linear_2_26" x1="43.5432" y1="88.0236" x2="43.5432" y2="92.3283" gradientUnits="userSpaceOnUse">
<stop stop-color="#00F968"/>
<stop offset="0.9999" stop-color="#00C9A8"/>
<stop offset="1" stop-color="#00BABB"/>
</linearGradient>
<linearGradient id="paint5_linear_2_26" x1="50.4205" y1="88.0944" x2="50.4205" y2="92.3283" gradientUnits="userSpaceOnUse">
<stop stop-color="#00F968"/>
<stop offset="0.9999" stop-color="#00C9A8"/>
<stop offset="1" stop-color="#00BABB"/>
</linearGradient>
<linearGradient id="paint6_linear_2_26" x1="57.2988" y1="88.0944" x2="57.2988" y2="92.3283" gradientUnits="userSpaceOnUse">
<stop stop-color="#00F968"/>
<stop offset="0.9999" stop-color="#00C9A8"/>
<stop offset="1" stop-color="#00BABB"/>
</linearGradient>
<clipPath id="clip0_2_26">
<rect width="120.177" height="135.45" fill="white"/>
</clipPath>
</defs>
</svg>
