<svg width="136" height="136" viewBox="0 0 136 136" fill="none" xmlns="http://www.w3.org/2000/svg">
<g clip-path="url(#clip0_2_41)">
<path fill-rule="evenodd" clip-rule="evenodd" d="M80.8876 104.169L100.594 124.011L94.245 130.489L74.4029 110.783L80.8876 104.169ZM104.761 100.265C100.703 100.265 102.45 95.6331 102.872 93.0857C103.474 89.4569 104.76 85.9791 102.841 83.6672C100.622 80.992 97.1225 80.7549 94.9034 82.7368C93.8353 83.6921 93.8154 83.9607 93.0691 85.1349L83.0668 100.794C79.3253 98.8141 78.2522 100.98 74.5356 104.697C67.1304 112.102 66.5251 108.724 81.1496 123.348C82.6754 124.874 92.7208 135.452 93.915 135.452C95.7957 135.452 95.5966 134.961 97.421 133.136C100.192 130.365 104.763 126.809 104.763 124.076C104.763 122.492 104.254 122.496 103.969 121.431C105.095 121.169 107.266 119.585 108.307 118.892C111.002 117.096 111.905 116.989 111.905 114.817C111.905 113.58 110.548 113.23 109.523 113.23C108.949 113.23 107.845 114.238 107.405 114.551C106.73 115.032 106.08 115.435 105.342 115.928C103.924 116.873 102.552 117.729 101.056 118.52L86.1765 103.771C86.4286 102.867 90.9612 95.9565 92.0094 94.3942C93.0525 92.8402 97.2468 85.4517 98.4111 85.4517C99.0463 85.4517 99.1889 85.8796 99.7346 86.2461C99.7346 88.2131 99.179 90.0855 98.8655 91.9911C98.2121 95.9582 96.7576 99.2569 99.791 102.327C103.086 105.662 106.237 104.725 109.739 102.6C112.266 101.068 115.812 98.504 117.611 96.1871C124.035 87.9179 123.963 85.8995 126.453 75.9287C127.411 72.0893 127.483 70.8272 131.214 71.6962C131.644 76.8624 129.176 84.7734 127.287 89.4619L122.064 99.3183L117.265 105.629C116.581 106.339 116.077 106.718 115.452 107.521C115.258 107.77 111.999 110.845 115.299 111.981C117.057 112.586 117.91 110.772 119.509 109.196C127.619 101.207 135.448 84.0138 135.448 72.489C135.448 67.079 128.023 65.3492 124.55 69.5269C121.597 73.0811 122.106 84.8978 115.275 92.5268C114.631 93.2449 114.243 93.832 113.561 94.517C112.236 95.8504 106.846 100.265 104.76 100.265H104.761Z" fill="url(#paint0_linear_2_41)"/>
<path fill-rule="evenodd" clip-rule="evenodd" d="M30.6886 104.498C34.596 104.498 37.553 101.167 37.5481 97.8887C37.5464 96.6912 36.8698 93.7027 36.6226 92.215C36.2959 90.2414 35.7154 88.2429 35.7154 86.2445C36.9742 85.402 36.9875 83.9906 40.3658 89.5299C41.4488 91.3078 48.907 102.413 49.2072 103.703L34.4583 118.583C31.4001 116.915 28.2407 114.737 25.5075 112.588C18.5651 107.131 13.17 100.01 9.25766 92.0657C7.3587 88.2098 6.06342 83.9126 4.9738 79.1544C4.48952 77.0432 2.55241 69.1488 7.14475 71.6797C8.15809 72.2386 8.40022 73.4857 8.68217 74.6517C10.9676 84.0835 12.9494 92.9265 20.7891 99.0529C23.3382 101.045 27.3252 104.496 30.6902 104.496L30.6886 104.498ZM41.5533 135.45H40.8236C40.0623 135.241 39.2795 134.385 37.898 133.002C35.8796 130.984 30.6886 126.521 30.6886 124.602C30.6886 122.122 31.1082 122.829 31.483 121.428C30.3138 121.156 26.3931 118.442 25.2454 117.613C20.0511 113.865 16.482 110.112 12.5149 105.211L10.4236 102.275C4.99536 94.1007 0.00166321 82.4963 0.00166321 71.9566C0.00166321 67.7408 7.36699 64.8882 11.014 69.6745C12.1467 71.1605 12.4618 72.8605 12.9644 74.8673C14.462 80.8594 15.2995 85.7884 18.7823 90.7423C19.3147 91.4985 19.7973 92.0724 20.4309 92.7971C22.3282 94.9714 27.7879 100.264 30.6902 100.264C32.2575 100.264 33.3355 99.3034 33.3355 97.882L31.6605 87.9046C31.1065 84.7535 33.3405 81.4796 36.5099 81.4796C40.0441 81.4796 40.6428 82.4631 42.4854 85.2925L52.3832 100.793C53.8228 100.03 55.4 99.6301 56.9357 100.738L63.8251 107.606C64.4835 108.264 66.1403 109.546 66.1403 110.583C66.1403 112.045 57.022 121.165 55.5575 121.165C54.6354 121.165 53.4413 119.971 53.4413 119.049C53.4413 117.938 56.2773 115.552 57.0784 114.75C58.1995 113.629 59.9409 111.633 61.1135 110.848C60.2046 109.49 57.959 107.42 56.7533 106.214L54.6984 104.169L34.858 124.141L41.2714 130.425C43.5252 128.916 48.0396 123.161 49.4278 122.69C50.6833 122.263 52.1709 123.365 52.0017 124.794C51.821 126.33 48.2569 129.392 47.1557 130.491C44.0311 133.616 42.6446 135.165 41.5516 135.452L41.5533 135.45Z" fill="url(#paint1_linear_2_41)"/>
<path fill-rule="evenodd" clip-rule="evenodd" d="M39.6825 23.2801C39.6825 30.1944 38.8748 31.6787 42.7408 33.9774C43.2002 34.251 44.1422 34.722 44.4158 34.9476C44.9764 35.4119 46.0362 37.5099 46.4475 38.2065L48.373 41.5715C49.9021 44.6696 46.7742 46.542 51.3019 49.2255C52.7514 50.0845 57.1994 52.9089 58.7285 52.9089C61.0803 52.9089 62.8515 50.7927 63.7554 50.7927H71.6913C72.6946 50.7927 74.1309 52.9089 76.9818 52.9089C78.0847 52.9089 82.823 50.0083 83.979 49.3233C88.6957 46.5221 85.6126 44.993 86.9841 41.7457C87.1964 41.2432 90.6643 35.2942 90.8899 35.0686C91.4256 34.5329 93.4605 33.649 94.1869 33.0751C96.3811 31.3404 95.7658 26.8044 95.7658 23.2785C95.7658 21.1938 94.6778 19.9748 93.2797 19.1505C92.4704 18.6729 91.7506 18.512 91.0756 17.9149C90.2447 17.1786 90.2447 16.4007 88.8864 16.4007C86.6723 16.4007 85.7452 18.9532 88.427 21.0926C89.0705 21.6067 90.6875 22.5521 91.5317 22.7494V29.8925C90.4603 30.6106 88.563 31.3536 87.7819 32.2277C87.1317 32.9557 86.1002 35.0388 85.5296 36.0587C82.6091 41.283 82.5377 39.6228 82.5377 45.5005C81.4813 45.7824 78.5308 47.9484 77.2439 48.441C76.4942 48.7279 76.5639 48.7594 75.7678 48.3299C74.2088 47.4874 73.703 46.5586 71.1605 46.5586C63.9959 46.5586 63.9014 45.7957 59.8414 48.2237C58.3653 49.1077 57.9026 48.2287 55.6421 46.9964C54.7648 46.5188 53.783 45.7343 52.9056 45.5005C52.9056 39.7439 52.8592 41.21 50.0082 36.2279C46.4757 30.0534 48.6466 33.0635 43.91 29.8925V22.7494C45.051 22.4841 46.9732 21.2435 47.6847 20.4392L52.2057 12.7902C53.1511 10.8581 52.9056 10.0438 52.9056 7.40513L57.2906 4.91243C57.5543 4.75488 57.7583 4.63381 57.9491 4.51274L58.2692 4.30377C58.8082 3.93558 58.4251 4.22914 58.7269 3.9671C59.5031 4.4862 61.878 6.08332 62.9593 6.08332H72.484C73.567 6.08332 75.9403 4.4862 76.7165 3.9671C77.1095 4.30874 76.8309 4.07987 77.3318 4.40991L82.5361 7.40679C82.5361 8.66226 82.3818 10.0753 82.6323 11.2777C83.299 14.4736 86.6375 13.9611 86.9277 11.8266C86.9941 11.3424 86.7553 10.0272 86.7636 8.99728C86.8017 4.32035 85.5214 4.52103 81.1612 1.90062C79.3551 0.814318 78.3418 -0.00165558 76.4494 -0.00165558C73.9783 -0.00165558 73.0645 2.11457 71.1589 2.11457H64.2812C62.2595 2.11457 61.7088 -0.00165558 58.7252 -0.00165558C56.8876 -0.00165558 49.7512 4.04007 48.917 6.06342C48.3431 7.45323 48.9883 9.46994 48.4974 10.936C48.3066 11.5066 44.9996 17.2449 44.6397 17.6595C43.4357 19.0493 39.6776 19.2086 39.6776 23.2801H39.6825Z" fill="url(#paint2_linear_2_41)"/>
<path fill-rule="evenodd" clip-rule="evenodd" d="M15.608 57.9375C15.608 50.9768 15.9646 57.158 19.6663 50.3565C21.1324 47.6648 21.9567 47.7726 21.9567 43.6513C22.5305 43.3478 22.9119 43.1637 23.4957 42.8104C23.6384 42.7242 25.1177 41.8004 25.131 41.8004C26.6585 41.8004 26.8144 43.1239 29.0997 43.1239H34.1266C36.0704 43.1239 37.1649 41.8004 37.83 41.8004C38.2446 41.8004 40.739 43.371 41.2697 43.6529C41.2697 47.1341 41.4919 46.892 43.4688 50.1824C43.8934 50.8906 44.7144 52.5391 45.1622 52.9869C47.2767 55.0981 47.6184 52.161 47.6184 57.9391C47.6184 58.7999 46.0312 59.1963 45.3031 59.858C44.7144 60.3937 44.0012 61.7967 43.5584 62.6111C42.0923 65.3028 41.268 65.195 41.268 69.3163L38.1833 70.993C36.9875 71.2982 36.1433 69.8454 34.6557 69.8454C29.652 69.8454 28.5674 69.2218 25.6617 71.1688L21.9583 69.3163C21.9583 65.8252 21.9666 66.3742 19.7907 62.7537C19.2384 61.8332 18.7856 60.7171 18.0576 59.9907C17.3096 59.2427 15.6096 58.8048 15.6096 57.9408L15.608 57.9375ZM11.6392 53.705C11.6392 56.8478 11.1284 59.8729 12.7073 61.3672C13.5581 62.1716 14.258 62.2296 14.9628 62.8151C15.4919 63.2546 17.6048 67.011 17.6993 67.7507C17.9315 69.5817 17.0973 71.1506 20.0162 72.8406C22.3564 74.1956 23.567 75.3996 25.9237 75.3996C27.4761 75.3996 27.695 74.0762 29.3634 74.0762H33.8612C37.3026 74.0762 34.8995 77.7928 43.0741 72.9716C43.9664 72.4459 44.5286 72.1639 45.0328 71.2269C46.4143 68.6596 44.1654 69.9581 46.6498 65.4371C49.0264 61.1101 48.2022 63.2944 50.2719 61.6508C52.1891 60.1283 51.5871 57.3172 51.5871 53.7067C51.5871 51.277 49.053 50.806 48.1988 49.9519L45.5303 45.2119C44.7475 40.4487 46.5719 42.1255 40.9214 38.709C36.3324 35.9344 36.1649 38.8898 33.8612 38.8898H29.3634C27.3434 38.8898 28.5641 37.5663 24.8656 37.5663C24.1094 37.5663 19.0294 40.1884 18.1919 41.7391C16.817 44.2782 19.0543 43.0161 16.5749 47.5288C14.3227 51.6269 15.2547 49.6334 12.9461 51.3068C12.2976 51.7762 11.6392 52.6237 11.6392 53.7034V53.705Z" fill="url(#paint3_linear_2_41)"/>
<path fill-rule="evenodd" clip-rule="evenodd" d="M87.8316 57.9375C87.8316 52.2704 88.0937 55.0534 90.1353 53.098L93.5451 47.5139C94.2781 46.2418 94.1803 45.5022 94.1803 43.6513C94.711 43.371 97.2037 41.7988 97.62 41.7988C98.285 41.7988 99.3796 43.1222 101.323 43.1222H106.35C108.473 43.1222 109.06 41.7988 110.054 41.7988C110.355 41.7988 112.983 43.381 113.493 43.6513C113.493 47.6947 114.235 47.5636 115.691 50.184C116.109 50.9353 116.875 52.4711 117.387 52.9836C119.611 55.2059 119.842 52.3434 119.842 57.9375C119.842 58.7916 118.26 59.1996 117.53 59.858C116.812 60.5065 114.712 64.3309 114.102 65.4239C113.278 66.8999 113.493 67.2266 113.493 69.313L109.79 71.1655C106.883 69.2185 105.798 69.8421 100.796 69.8421C99.4029 69.8421 98.4824 71.1688 97.4442 71.0312C97.0395 70.9781 94.6977 69.5866 94.182 69.313C94.182 66.0342 93.8486 65.7738 92.0176 62.7471C91.5848 62.0323 90.7887 60.4998 90.2845 59.984C89.5399 59.2228 87.8333 58.8198 87.8333 57.9375H87.8316ZM83.8629 53.705C83.8629 57.3172 83.2592 60.1267 85.1764 61.6491C85.8265 62.1649 86.8996 62.4087 87.4535 63.0754C88.0539 63.7969 89.8782 67.1056 89.9462 67.9895C90.0756 69.6331 89.7007 69.9001 90.4139 71.2252C91.2614 72.7991 96.328 75.398 97.6183 75.398C99.8191 75.398 99.9319 74.0745 101.587 74.0745H106.085C108.125 74.0745 107.219 75.398 110.317 75.398C111.5 75.398 114.235 73.5338 115.261 72.9351C118.265 71.1871 117.431 70.2451 117.747 67.749C117.837 67.0492 119.902 63.3773 120.345 62.9394C120.91 62.3805 121.686 62.2943 122.565 61.4568C124.383 59.727 123.807 57.6821 123.807 53.705C123.807 51.2571 121.127 50.8143 120.341 50.0282C120.147 49.8341 117.842 45.9466 117.744 45.2185C117.233 41.4389 118.57 41.7009 113.135 38.7156C111.115 37.6061 111.78 37.5663 109.521 37.5663C107.853 37.5663 107.636 38.8898 106.082 38.8898H101.584C99.4742 38.8898 98.9584 36.004 94.6895 38.6095C90.0656 41.4306 90.3177 40.2149 89.9429 44.9748C89.8716 45.8803 87.9925 49.1309 87.3755 49.8159C86.412 50.8856 83.8579 51.214 83.8579 53.705H83.8629Z" fill="url(#paint4_linear_2_41)"/>
<path fill-rule="evenodd" clip-rule="evenodd" d="M59.7883 26.9835C59.7883 15.681 75.6617 15.681 75.6617 26.9835C75.6617 32.8181 67.5401 37.2296 62.2263 32.2177C61.1814 31.2326 59.79 28.9024 59.79 26.9835H59.7883ZM67.7242 14.2845C62.7736 14.2845 58.6108 17.419 56.6969 21.5105C55.1794 24.7545 55.3685 28.1577 56.7185 31.3752C60.6706 40.7887 74.7777 40.7887 78.7299 31.3752C80.0799 28.1577 80.2689 24.7545 78.7514 21.5105C78.0549 20.0212 77.3517 19.0029 76.2637 17.9149C74.4145 16.0657 71.3015 14.2845 67.7242 14.2845V14.2845Z" fill="url(#paint5_linear_2_41)"/>
<path fill-rule="evenodd" clip-rule="evenodd" d="M103.969 61.3755C97.3961 61.3755 97.1855 51.5871 103.969 51.5871C110.45 51.5871 109.908 61.3755 103.969 61.3755ZM103.174 65.3442H104.498C108.687 65.3442 112.699 61.3324 112.699 57.143C112.699 54.4082 112.346 51.8475 109.949 49.8391C106.12 46.6316 101.504 46.5702 97.688 49.8043C94.4722 52.5291 93.3909 58.6805 97.5089 62.8084C98.9584 64.2613 100.934 65.3442 103.174 65.3442V65.3442Z" fill="url(#paint6_linear_2_41)"/>
<path fill-rule="evenodd" clip-rule="evenodd" d="M26.7198 56.614C26.7198 49.9187 36.5082 49.9253 36.5082 56.614C36.5082 62.9245 26.7198 62.684 26.7198 56.614ZM22.7511 55.2905V57.143C22.7511 61.3324 26.7629 65.3442 30.9523 65.3442H32.2757C36.8963 65.3442 40.9032 60.8282 40.6627 56.138C40.3161 49.3531 32.5328 44.3047 25.6518 49.7247C24.5008 50.6318 22.7527 53.2688 22.7527 55.2905H22.7511Z" fill="url(#paint7_linear_2_41)"/>
</g>
<defs>
<linearGradient id="paint0_linear_2_41" x1="102.437" y1="67.2012" x2="102.437" y2="135.452" gradientUnits="userSpaceOnUse">
<stop stop-color="#00F968"/>
<stop offset="1" stop-color="#00C9A8"/>
</linearGradient>
<linearGradient id="paint1_linear_2_41" x1="33.071" y1="67.1811" x2="33.071" y2="135.452" gradientUnits="userSpaceOnUse">
<stop stop-color="#00F968"/>
<stop offset="1" stop-color="#00C9A8"/>
</linearGradient>
<linearGradient id="paint2_linear_2_41" x1="67.7288" y1="-0.00165558" x2="67.7288" y2="52.9089" gradientUnits="userSpaceOnUse">
<stop stop-color="#00F968"/>
<stop offset="1" stop-color="#00C9A8"/>
</linearGradient>
<linearGradient id="paint3_linear_2_41" x1="31.6186" y1="37.521" x2="31.6186" y2="75.4437" gradientUnits="userSpaceOnUse">
<stop stop-color="#00F968"/>
<stop offset="1" stop-color="#00C9A8"/>
</linearGradient>
<linearGradient id="paint4_linear_2_41" x1="103.833" y1="37.52" x2="103.833" y2="75.398" gradientUnits="userSpaceOnUse">
<stop stop-color="#00F968"/>
<stop offset="1" stop-color="#00C9A8"/>
</linearGradient>
<linearGradient id="paint5_linear_2_41" x1="67.7242" y1="14.2845" x2="67.7242" y2="38.4354" gradientUnits="userSpaceOnUse">
<stop stop-color="#00F968"/>
<stop offset="1" stop-color="#00C9A8"/>
</linearGradient>
<linearGradient id="paint6_linear_2_41" x1="103.764" y1="47.406" x2="103.764" y2="65.3442" gradientUnits="userSpaceOnUse">
<stop stop-color="#00F968"/>
<stop offset="1" stop-color="#00C9A8"/>
</linearGradient>
<linearGradient id="paint7_linear_2_41" x1="31.712" y1="47.4369" x2="31.712" y2="65.3442" gradientUnits="userSpaceOnUse">
<stop stop-color="#00F968"/>
<stop offset="1" stop-color="#00C9A8"/>
</linearGradient>
<clipPath id="clip0_2_41">
<rect width="135.45" height="135.45" fill="white"/>
</clipPath>
</defs>
</svg>
