<svg width="136" height="131" viewBox="0 0 136 131" fill="none" xmlns="http://www.w3.org/2000/svg">
<g clip-path="url(#clip0_2_39)">
<path fill-rule="evenodd" clip-rule="evenodd" d="M106.613 121.19C100.94 121.19 101.056 113.254 106.349 113.254C111.839 113.254 111.163 121.19 106.613 121.19ZM135.449 62.4957V66.8163C135.295 71.5741 134.631 76.7923 133.229 82.461C131.179 90.74 126.936 98.3128 121.92 105.016C120.336 107.133 115.751 112.446 113.755 113.782C113.995 114.814 114.478 116.083 114.478 117.221C114.478 122.354 108.893 127.043 103.35 124.715C100.064 123.335 101.889 122.209 98.1466 124.098C81.6273 132.442 60.7511 131.934 43.9097 124.367C43.1102 124.007 41.5029 123.218 40.7398 123.04C39.6036 123.8 38.1307 124.892 36.2423 124.892C32.8823 124.892 30.6087 123.931 28.8245 121.463C28.1595 120.542 27.7235 119.42 27.4909 118.013C26.5776 112.474 30.8195 116.891 23.3448 109.482C21.8985 108.048 20.4765 106.261 19.2349 104.597C10.7609 93.2425 5.81893 79.0416 5.81893 64.573C2.29172 63.7517 0.274956 60.7417 -0.00121307 57.5488V56.0311C0.225294 53.4342 1.62067 50.9244 4.31332 49.5739C7.30394 48.0731 7.56436 49.5872 8.22693 47.9314C8.38803 47.528 8.65329 46.467 8.82408 45.8831C9.06997 45.0474 9.13901 44.6258 9.44304 43.8567C11.0334 39.8135 11.6609 37.7398 13.7443 34.1375C14.0895 33.5403 14.2712 33.0691 14.66 32.4078C15.1796 31.5272 16.0554 29.6521 17.1952 29.6521C18.3749 29.6521 19.5765 30.7229 19.5765 31.7682L15.2547 40.4094C13.6958 43.7465 12.2762 48.984 11.9043 49.758C13.4305 50.5659 14.1512 51.547 15.0791 52.9327L20.898 51.8741C26.4153 50.9462 34.1335 50.2873 39.9464 50.2873C40.7483 48.7732 41.2776 48.0004 42.7396 46.9963C45.9797 44.7712 48.1842 45.7899 49.7346 45.7899C50.5341 44.2782 54.8171 39.2405 56.1507 37.919C58.0633 36.0234 61.2526 32.1595 63.4922 30.9749C62.9738 28.751 62.2301 28.0351 62.9629 24.8907C57.1924 21.837 49.1448 17.6872 42.593 16.161C41.8832 18.8174 36.3453 22.8594 30.6887 19.0705C30.3047 19.6434 24.8625 25.42 24.0752 25.42C22.0632 25.42 21.1984 24.2681 21.586 22.9563C22.056 21.3671 26.6394 17.9913 28.0433 15.8958C27.6326 14.1322 26.9241 12.3153 27.7998 9.83217C28.9905 6.45637 32.8641 3.82429 36.7753 4.50017C39.0646 4.89505 39.973 5.85437 41.5356 6.90091C44.8193 5.16395 50.7 3.01274 54.2333 2.1382C65.6023 -0.675572 75.7151 -0.739769 87.0914 2.08491C90.1001 2.83226 93.7679 4.06412 96.5586 5.31657C97.5397 5.75626 98.3319 6.37037 99.4717 6.63685C101.925 4.99437 104.049 3.2877 108.362 5.15305C110.73 6.17778 113.228 9.2011 113.228 12.457C113.228 13.6113 112.791 14.5246 112.699 15.6317C114.418 16.7824 115.508 18.3825 116.932 19.3358C118.027 19.0802 119.3 18.5424 120.636 18.5424C122.602 18.5424 125.308 20.0262 126.24 21.1406C131.165 27.0298 126.72 31.2316 126.72 32.0347C126.72 33.5851 134.852 44.0723 135.45 62.4932L135.449 62.4957ZM31.4808 116.957C31.4808 114.687 33.1282 113.021 35.2503 112.85C40.5702 112.423 40.8088 120.87 35.449 120.87C33.4334 120.87 31.4808 119.046 31.4808 116.957V116.957ZM106.348 75.9516C107.316 75.6936 106.903 75.6718 107.671 75.1583C112.289 78.2506 113.329 79.3129 117.195 82.3011C118.771 83.5196 120.135 84.9574 121.731 86.2305C122.634 86.9499 125.34 89.6281 125.925 90.5026C123.203 95.6456 123.094 96.4402 119.464 101.502C117.861 103.737 113.149 109.242 111.11 110.608C110.442 110.161 109.915 109.765 108.993 109.55C109.599 108.286 109.523 100.623 109.523 98.4388C109.523 96.9308 108.696 96.5868 107.407 96.5868C104.692 96.5868 105.744 99.6755 105.541 102.128C105.378 104.109 105.027 107.231 105.027 109.286C103.629 109.317 102.803 109.769 101.918 110.411C100.947 111.117 100.32 111.633 99.6752 112.665C97.6088 115.98 98.4119 117.371 98.4119 119.603C97.0734 119.915 91.1927 122.833 86.0351 124.158C81.6443 125.287 76.2384 126.005 70.8737 126.165L63.0368 125.614C57.0701 124.874 51.6933 123.305 46.2874 120.934C45.4371 120.561 43.929 119.793 43.1199 119.605C43.3815 118.479 43.6492 117.578 43.6492 116.166C44.932 116.059 48.5319 114.428 50.0399 113.826L60.0559 109.027L71.0893 102.335C75.1398 99.2746 80.4766 95.5911 84.3285 92.0288C84.8784 91.5201 85.2381 91.0961 85.7747 90.5656C86.4627 89.8848 86.8261 89.7456 87.5032 89.1193C90.0517 86.7622 92.3543 84.0247 94.6448 81.4472C95.8767 80.0615 97.8462 78.0532 98.6771 76.4846C100.114 77.2441 100.877 77.278 102.645 77.278C102.669 78.3439 103.006 79.2863 103.24 80.3861C104.259 85.1597 104.089 88.9183 106.613 88.9183C109.776 88.9183 108.343 84.9913 108.01 83.0242C107.719 81.3139 106.905 77.1145 106.349 75.9553L106.348 75.9516ZM98.1466 69.3381C98.1466 67.0246 99.869 65.3058 101.9 65.1689C104.047 65.0248 106.083 66.9689 106.083 69.0728C106.083 74.6846 98.1466 74.1759 98.1466 69.3369V69.3381ZM95.5012 74.0996L91.6106 78.6758C91.0328 79.3626 90.9541 79.5842 90.2794 80.2553C87.1095 83.4082 86.9775 83.9969 83.2674 87.2637C82.7211 87.7445 82.3396 88.1915 81.8139 88.7208C81.1452 89.3931 80.9175 89.4767 80.2356 90.0532C79.573 90.614 79.4313 90.8236 78.6815 91.4098L72.1819 96.5504C68.3906 99.4139 64.1608 101.902 60.0619 104.271C55.8431 106.709 51.084 108.96 46.5236 110.839C45.1379 111.409 43.6008 111.849 42.3253 112.46C41.0026 110.486 39.1845 109.381 36.5052 108.756C34.7052 101.032 37.0963 84.7115 38.6213 78.597C40.3982 71.4699 44.6098 62.0802 44.7067 61.6659C46.7368 61.6659 48.9861 62.2243 51.5455 60.5685C52.9736 59.6456 54.9746 57.5125 55.023 55.3165C58.9669 55.3165 72.624 58.6596 75.9586 59.7788C82.5879 62.0027 88.431 64.1817 94.1773 67.222C94.1773 68.8875 93.9495 69.1455 94.2427 70.8534C94.5297 72.5286 95.2698 73.2396 95.5 74.1008L95.5012 74.0996ZM107.935 63.518L113.137 53.6413C115.446 49.0312 119.288 39.5845 120.369 34.9466C121.356 34.9248 122.428 34.6159 123.278 34.4173C125.61 38.8227 127.457 42.6599 128.984 48.0234C131.785 57.8626 132.081 66.2978 130.387 76.4458L127.775 86.2692L119.249 78.6576C117.672 77.3712 116.32 76.2872 114.661 75.0444C113.805 74.4024 110.726 71.969 109.786 71.7183C111.377 68.4006 109.132 65.307 107.934 63.5168L107.935 63.518ZM32.273 109.55C31.3367 109.768 30.9115 110.209 30.1569 110.608C29.6857 109.905 26.4492 106.828 24.3719 104.225C20.8629 99.8269 18.9018 96.3857 16.3969 91.3008C12.7159 83.8261 10.0511 73.4358 10.0511 64.5778C11.5882 64.4494 13.548 62.9668 14.3305 61.9797C15.2971 60.7599 16.0893 58.9648 16.1353 56.9057C17.6482 56.8717 20.1494 56.3436 21.7047 56.1268C23.5386 55.87 25.6389 55.6217 27.325 55.3976C31.2386 54.8804 34.8445 54.5243 39.1506 54.5243C39.7465 57.0837 40.0179 57.4217 41.2667 59.2858L37.9781 67.1082C34.9778 74.5429 31.9351 87.1934 32.0065 95.2641C32.032 98.1384 31.6577 99.4103 31.969 102.182L32.2718 109.551L32.273 109.55ZM3.96569 56.9045C3.96569 51.6851 11.9019 51.4768 11.9019 56.9045C11.9019 62.3346 3.96569 61.8561 3.96569 56.9045ZM47.3521 57.6978C42.1618 57.6978 41.7718 49.7616 47.6161 49.7616C49.5081 49.7616 51.2766 51.8728 51.2318 53.6958C51.1809 55.761 49.5978 57.6978 47.3521 57.6978V57.6978ZM53.1722 48.1736C53.4084 47.2882 55.2932 45.2181 55.9666 44.3545L66.1352 33.8879C66.8438 34.0769 67.3368 34.4803 68.1726 34.7613C70.8434 35.6564 72.8081 35.1174 75.1301 33.8879C80.7661 37.6623 89.4352 48.9961 92.8703 54.7726C93.6576 56.0977 97.6488 62.4278 96.8239 63.2539C95.6235 63.8293 93.4723 62.1807 92.3228 61.6696C90.7361 60.9634 89.0803 60.2197 87.5298 59.585C79.0401 56.1062 69.9495 53.4923 60.7705 51.9528C59.0844 51.6694 56.3312 51.1194 54.7602 51.0843C54.6439 49.6877 53.7924 49.1003 53.1734 48.1736H53.1722ZM116.399 26.7451C116.399 21.5633 124.335 21.407 124.335 26.7451C124.335 32.2418 116.399 31.8252 116.399 26.7451ZM70.6314 23.041C75.5795 23.041 76.5945 30.9773 70.1021 30.9773C68.2513 30.9773 66.5931 28.688 66.7239 26.7923C66.8499 24.9839 68.5699 23.041 70.6302 23.041H70.6314ZM112.43 26.2158C112.43 29.6158 113.916 32.9601 116.398 33.6227C116.069 37.575 105.912 61.1693 103.808 61.1863C103.645 61.1875 103.145 61.1584 102.93 61.1512C102.216 61.1269 101.503 61.1366 100.79 61.1366C100.122 58.2708 94.7768 49.8125 92.364 46.5457C91.8541 45.8553 91.4665 45.2206 90.9214 44.5495C87.5674 40.4167 82.0343 33.653 78.0383 30.9785C78.1243 29.9525 78.3085 30.0603 78.5519 29.1107C79.1527 26.7633 78.6839 26.2897 78.5677 24.8943C82.6157 22.7528 83.615 22.0321 87.8302 20.1352C90.2079 19.0657 95.678 17.0029 98.1442 16.4287C98.8322 19.0075 104.19 22.9102 110.314 18.8101C110.476 19.0318 113.463 21.791 113.753 21.9848C113.089 23.2385 112.43 24.3032 112.43 26.2182V26.2158ZM101.054 12.4594C101.054 7.7706 108.99 6.54722 108.99 12.9887C108.99 17.5189 101.054 17.789 101.054 12.4594ZM31.4772 12.4594C31.4772 7.63978 39.4134 6.58961 39.4134 12.9887C39.4134 17.3699 31.4772 17.9683 31.4772 12.4594ZM97.0855 12.4594C91.7245 13.7082 85.9964 16.4166 81.2131 18.8089C79.5028 19.664 77.9887 20.4247 76.4516 21.4543C74.8612 19.079 69.9398 18.3183 66.9346 19.8736C66.0347 20.3399 65.5708 20.9456 64.8113 21.4543C64.6211 21.2896 64.7532 21.3683 64.3813 21.0909C64.0373 20.8341 64.0409 20.8474 63.7454 20.6682C63.3517 20.4283 63.0319 20.2418 62.585 19.9778C58.5563 17.5928 48.137 13.2407 43.648 12.1954L43.3428 10.6171C48.9619 7.65674 59.237 4.25913 67.722 4.25913C78.1474 4.25913 85.0007 4.82722 94.5188 8.9431C95.5375 9.38401 96.1734 9.98116 97.352 10.0793C97.117 11.0883 97.0879 11.1307 97.0879 12.4606L97.0855 12.4594Z" fill="url(#paint0_linear_2_39)"/>
</g>
<defs>
<linearGradient id="paint0_linear_2_39" x1="67.7244" y1="-0.00309372" x2="67.7244" y2="130.199" gradientUnits="userSpaceOnUse">
<stop stop-color="#00F968"/>
<stop offset="1" stop-color="#00C9A8"/>
</linearGradient>
<clipPath id="clip0_2_39">
<rect width="135.45" height="130.201" fill="white"/>
</clipPath>
</defs>
</svg>
