<svg width="136" height="136" viewBox="0 0 136 136" fill="none" xmlns="http://www.w3.org/2000/svg">
<g clip-path="url(#clip0_2_34)">
<path fill-rule="evenodd" clip-rule="evenodd" d="M35.7152 114.287L36.5533 113.269C39.9874 114.84 47.2549 116.614 50.9045 117.351C55.5129 118.283 62.9779 119.049 67.7265 119.049C74.5916 119.049 85.5947 117.648 92.0346 115.578C93.8752 114.987 97.2158 114.057 98.9434 113.228L99.7815 114.246C98.3931 116.213 95.7038 119.267 93.9159 120.636C90.7924 123.028 90.9673 123.44 86.7886 125.942C82.4109 128.565 76.0312 131.053 70.6359 131.219C69.2837 131.261 69.1285 131.503 67.725 131.503L62.1654 130.956C60.4152 130.656 58.8671 130.332 57.239 129.798C52.6728 128.3 48.669 126.266 45.0088 123.511C44.3757 123.033 43.9701 122.68 43.3837 122.226L35.7137 114.288L35.7152 114.287ZM135.452 66.0185V69.5762C135.144 76.4428 133.053 83.2535 129.155 89.4704C128.268 90.8844 127.436 92.0859 126.422 93.3506C124.688 95.5093 118.664 102.572 116.405 103.175C116.611 105.652 118.72 109.726 114.092 114.354C110.516 117.93 107.228 117.61 103.176 116.667C102.304 117.971 101.161 118.957 100.155 120.259C98.8771 121.914 95.0918 125.167 93.2406 126.572C91.9607 127.543 90.696 128.406 89.3091 129.254C83.0787 133.073 76.2739 135.144 69.4315 135.45H65.8783C59.0118 135.142 52.1995 133.052 45.9811 129.153C41.4903 126.337 35.1454 120.953 32.2766 116.667C29.5647 117.298 28.6979 117.695 25.8623 116.997C23.7413 116.474 22.5489 115.535 21.2283 114.223C16.7948 109.818 18.8601 105.436 19.0485 103.175C18.1169 102.926 18.5887 103.026 17.8983 102.474C13.2146 98.7278 9.63581 94.6697 6.40076 89.6317C2.45568 83.4887 0.336168 76.6508 0 69.7526V65.8497C0.336168 58.953 2.44664 52.1181 6.29674 45.9796C9.09764 41.5145 9.41873 41.834 12.0161 38.4709C13.0955 37.0734 17.5199 33.1193 18.7832 32.2751C17.7717 27.9336 17.5802 24.899 21.2268 21.2268C25.6317 16.7933 30.0139 18.8586 32.2751 19.047C32.5239 18.1154 32.4244 18.5872 32.9761 17.8968C36.4735 13.5236 37.9583 12.3568 42.0994 9.03131C45.7671 6.08569 50.1659 3.73101 54.726 2.08032C60.2569 0.0798963 64.0211 0 69.8415 0C76.4307 0 84.4218 3.05415 89.6317 6.40076C93.0054 8.567 97.962 12.3764 100.375 15.4969C101.072 16.3984 102.878 17.9375 103.173 19.047C105.65 18.8405 109.725 16.7315 114.353 21.3595C117.929 24.9352 117.609 28.223 116.665 32.2751C118.115 33.2459 122.333 37.0403 123.544 38.6246C125.847 41.6411 126.22 41.1949 129.253 46.1439C133.071 52.3728 135.142 59.1776 135.448 66.0185H135.452ZM101.06 107.408C101.06 99.266 112.964 99.5765 112.964 107.144C112.964 115.286 101.06 114.975 101.06 107.408ZM22.4886 107.408C22.4886 99.266 34.3931 99.5765 34.3931 107.144C34.3931 115.286 22.4886 114.975 22.4886 107.408ZM113.23 36.5081L114.247 35.67C122.995 41.7376 130.68 54.0371 131.225 65.0749C131.283 66.2763 131.543 66.5642 131.502 67.9888C131.464 69.2852 131.261 69.3124 131.22 70.6359C131.01 77.4317 127.285 85.5389 123.286 90.7442C121.975 92.4507 115.898 99.4288 113.759 100C113.035 98.9208 113.138 99.0534 114.062 96.5992C117.2 88.2659 119.05 76.7156 119.05 67.725C119.05 64.903 118.687 61.7041 118.521 58.9952C118.198 53.7054 115.569 41.3848 113.23 36.5081V36.5081ZM16.4044 67.4612C16.4044 70.4957 16.7571 73.574 16.9335 76.4563C17.2606 81.8275 19.3997 91.4648 21.3188 96.4093C22.3122 98.966 22.4102 98.9328 21.6956 100.002C20.5379 99.6926 16.1406 95.541 15.1592 94.3682C13.2131 92.0406 11.3619 89.8834 9.80163 87.2921C1.47733 73.4579 2.23408 57.9686 11.8277 45.1626L14.7039 41.6893C16.0818 39.9165 19.258 36.9935 21.165 35.7167L22.1826 36.5549L19.9409 43.2224C17.847 49.6157 16.4029 60.664 16.4029 67.4627L16.4044 67.4612ZM101.325 28.5728C101.325 20.4309 113.23 20.7414 113.23 28.3089C113.23 36.4508 101.325 36.1403 101.325 28.5728ZM22.2248 28.5728C22.2248 20.4309 34.1293 20.7414 34.1293 28.3089C34.1293 36.4508 22.2248 36.1403 22.2248 28.5728ZM38.0985 25.9271C41.6275 25.1056 44.8565 23.5363 51.0794 22.2413C64.2307 19.5038 78.1402 20.2937 90.9537 23.8664C93.0024 24.4377 95.2501 25.4357 97.359 25.9271C97.359 29.1803 96.7244 32.0671 100.068 35.3881C102.109 37.4156 103.588 38.0578 106.506 38.495C107.85 38.697 107.905 38.3608 109.265 38.3608C110.186 38.3608 112.856 49.3488 113.216 51.0764C115.952 64.2201 115.162 78.1447 111.591 90.9507C111.02 92.9994 110.022 95.247 109.53 97.356C106.942 97.356 106.463 96.9324 104.025 97.6711C99.7634 98.963 97.5942 102.299 96.9626 106.502C96.7606 107.845 97.0967 107.901 97.0967 109.261C97.0967 110.182 86.1087 112.851 84.3811 113.212C73.9524 115.382 61.7282 115.343 51.3025 113.257C49.48 112.892 38.3668 110.186 38.3668 109.261C38.3668 107.69 38.9427 106.757 37.9191 103.888C36.882 100.98 34.3615 98.5575 31.437 97.6711C29.0009 96.9324 28.52 97.356 25.9317 97.356C25.1101 93.827 23.5408 90.598 22.2459 84.3751C20.0736 73.9449 20.1128 61.7298 22.2006 51.2965C22.5655 49.474 25.2714 38.3608 26.197 38.3608C27.7678 38.3608 28.7009 38.9367 31.5696 37.9131C33.3741 37.2694 34.1821 36.591 35.3941 35.3881C36.5518 34.2394 37.2935 33.059 37.788 31.4324C38.5266 28.9964 38.103 28.5155 38.103 25.9271H38.0985ZM35.4529 21.6941C35.7695 20.5093 37.3659 19.2128 38.0985 18.2556C38.9517 17.1385 40.105 15.9431 41.2341 15.0416C44.5822 12.3689 44.353 12.292 48.3057 9.67952C52.2673 7.06103 59.6525 4.39279 64.8171 4.233C66.1693 4.19079 66.3246 3.94809 67.728 3.94809C70.4535 3.94809 75.8865 4.87669 78.413 5.71787C83.154 7.2962 88.7588 10.1664 92.3949 13.4286C93.1124 14.0723 93.2376 14.2834 94.0712 14.9271C95.3058 15.8813 99.676 20.4685 100.003 21.6941C98.9238 22.4177 99.0564 22.3152 96.6023 21.3911C88.2614 18.2495 76.7322 16.4029 67.728 16.4029C64.7327 16.4029 61.6167 16.7511 58.7419 16.941C54.1532 17.2456 46.8931 18.8194 42.6285 20.1399L37.2664 21.9549C36.1252 22.3167 36.3137 22.27 35.4529 21.6941V21.6941Z" fill="url(#paint0_linear_2_34)"/>
<path fill-rule="evenodd" clip-rule="evenodd" d="M51.8528 102.117C50.7674 101.863 45.2394 99.0278 45.2394 97.8836V84.9208C45.2394 80.5732 49.3232 76.7201 53.7055 76.7201H81.7476C86.3559 76.7201 90.2136 81.0074 90.2136 84.657V97.8851C90.2136 99.064 84.7912 101.841 83.6003 102.118L83.6214 90.7216C83.5596 89.496 82.9053 88.6262 81.7491 88.6262C78.8773 88.6262 79.6326 92.324 79.6326 95.2395V103.969L74.0052 105.221C63.7272 107.03 59.2846 104.257 55.8235 103.969C55.8235 101.147 55.8235 98.3253 55.8235 95.5033C55.8235 92.9391 56.5591 88.6247 53.9723 88.6247C51.1397 88.6247 51.8558 91.6427 51.8558 94.1797V102.117H51.8528ZM64.5518 68.2541C65.108 68.5209 66.8567 68.7833 67.7265 68.7833C68.5963 68.7833 70.345 68.5209 70.9013 68.2541V72.4871H64.5518V68.2541ZM67.9903 64.5503C62.2302 64.5503 58.9952 60.4198 58.9952 54.7622V52.6457C61.4283 52.6457 65.7276 52.0367 68.0973 51.4307C72.154 50.3935 70.1611 50.6769 73.7323 51.9296C76.1096 52.7633 76.4563 51.6508 76.4563 54.2331C76.4563 60.067 73.4821 64.5503 67.9903 64.5503V64.5503ZM60.0534 48.4127H58.9952C58.9952 38.2432 62.9749 39.4176 70.8998 39.4176C73.0027 39.4176 74.5765 40.7728 75.3951 42.0647C76.5468 43.8812 76.4548 45.5259 76.4548 48.4112C70.8093 47.0967 73.9328 45.547 68.9355 46.9761C66.5658 47.6544 62.8935 48.4112 60.0519 48.4112L60.0534 48.4127ZM41.0064 36.2428C41.0064 37.4096 41.8597 38.094 43.1229 38.094C44.2656 38.094 46.5193 36.074 48.2574 35.0263C58.3289 28.9587 72.6288 27.7798 83.3395 33.0635C86.2037 34.476 89.7447 36.4192 92.1281 38.5613C93.0371 39.3784 93.8029 39.9557 94.6501 40.8014C97.953 44.1043 100.317 47.9122 102.388 52.112C108.11 63.7121 106.212 79.1637 98.9449 89.4176C98.2032 90.4623 95.5154 93.9943 94.4481 94.7089C94.4481 87.782 95.1295 82.5104 92.1838 78.1899C91.1573 76.6855 88.9036 74.7333 87.2227 73.8906C83.9666 72.258 79.0839 72.4856 75.1358 72.4856V66.1361C77.4106 65.5286 80.427 60.0745 80.427 56.8772V44.7073C80.427 39.7402 75.6408 35.1831 70.639 35.1831H64.8186C59.8168 35.1831 55.0305 39.7402 55.0305 44.7073V56.8772C55.0305 60.0745 58.0455 65.5286 60.3218 66.1361V72.4856C53.6225 72.4856 47.3273 72.2399 43.2737 78.1899C40.31 82.5405 41.0095 87.7428 41.0095 94.7089C38.4241 92.9783 34.5605 86.3137 33.1585 83.5128C27.7421 72.6967 28.9421 58.3681 35.0323 48.2559C36.7252 45.4445 38.3638 44.2762 38.3638 42.3285C38.3638 41.0909 37.0071 40.7411 35.9835 40.7411C34.1972 40.7411 29.6687 49.4001 28.8743 51.3568C23.3297 65.0296 24.8794 80.0818 33.3379 92.0633C33.9937 92.9904 34.7534 93.9732 35.5313 94.8958C37.7096 97.4826 40.6552 100.184 43.3913 102.115C49.2569 106.256 57.8812 109.788 65.8768 109.788C73.577 109.788 79.2482 109.089 85.7198 105.821C91.7542 102.774 91.7648 102.412 96.1138 98.7549C96.7334 98.2334 96.961 98.1685 97.567 97.5625C100.84 94.2898 103.761 89.802 105.825 85.7138C113.037 71.4319 110.32 52.8417 99.9263 40.5527C92.7175 32.0294 81.0149 25.6603 69.5807 25.6603C61.7629 25.6603 58.4329 26.001 51.3598 28.8682C49.7046 29.5391 47.1193 30.8325 45.6103 31.8485C43.7094 33.1269 41.0095 34.4474 41.0095 36.2413L41.0064 36.2428Z" fill="url(#paint1_linear_2_34)"/>
</g>
<defs>
<linearGradient id="paint0_linear_2_34" x1="67.7258" y1="0" x2="67.7258" y2="135.45" gradientUnits="userSpaceOnUse">
<stop stop-color="#00F968"/>
<stop offset="1" stop-color="#00C9A8"/>
</linearGradient>
<linearGradient id="paint1_linear_2_34" x1="67.7411" y1="25.6603" x2="67.7411" y2="109.788" gradientUnits="userSpaceOnUse">
<stop stop-color="#00F968"/>
<stop offset="1" stop-color="#00C9A8"/>
</linearGradient>
<clipPath id="clip0_2_34">
<rect width="135.45" height="135.45" fill="white"/>
</clipPath>
</defs>
</svg>
